<?xml version="1.0" encoding="UTF-8"?>
<svg id="Ebene_1" data-name="Ebene 1" xmlns="http://www.w3.org/2000/svg" xmlns:xlink="http://www.w3.org/1999/xlink" viewBox="0 0 514.18 496">
  <defs>
    <style>
      .cls-1 {
        clip-path: url(#clippath-51);
      }

      .cls-2 {
        fill: #000001;
      }

      .cls-3 {
        clip-path: url(#clippath-34);
      }

      .cls-4 {
        clip-path: url(#clippath-38);
      }

      .cls-5 {
        clip-path: url(#clippath-21);
      }

      .cls-6 {
        clip-path: url(#clippath-17);
      }

      .cls-7 {
        clip-path: url(#clippath-31);
      }

      .cls-8 {
        clip-path: url(#clippath-15);
      }

      .cls-9 {
        clip-path: url(#clippath-33);
      }

      .cls-10 {
        clip-path: url(#clippath-61);
      }

      .cls-11 {
        clip-path: url(#clippath-18);
      }

      .cls-12 {
        clip-path: url(#clippath-47);
      }

      .cls-13 {
        clip-path: url(#clippath-4);
      }

      .cls-14 {
        clip-path: url(#clippath-22);
      }

      .cls-15 {
        clip-path: url(#clippath-23);
      }

      .cls-16 {
        clip-path: url(#clippath-54);
      }

      .cls-17 {
        clip-path: url(#clippath-66);
      }

      .cls-18 {
        clip-path: url(#clippath-9);
      }

      .cls-19 {
        clip-path: url(#clippath-42);
      }

      .cls-20 {
        clip-path: url(#clippath-59);
      }

      .cls-21 {
        fill: #fff;
      }

      .cls-22 {
        clip-path: url(#clippath-43);
      }

      .cls-23 {
        clip-path: url(#clippath-64);
      }

      .cls-24 {
        clip-path: url(#clippath-25);
      }

      .cls-25 {
        clip-path: url(#clippath-27);
      }

      .cls-26 {
        clip-path: url(#clippath-60);
      }

      .cls-27 {
        clip-path: url(#clippath-11);
      }

      .cls-28 {
        clip-path: url(#clippath-57);
      }

      .cls-29 {
        fill: none;
      }

      .cls-30 {
        clip-path: url(#clippath-36);
      }

      .cls-31 {
        clip-path: url(#clippath-35);
      }

      .cls-32 {
        clip-path: url(#clippath-48);
      }

      .cls-33 {
        clip-path: url(#clippath-28);
      }

      .cls-34 {
        clip-path: url(#clippath-56);
      }

      .cls-35 {
        clip-path: url(#clippath-45);
      }

      .cls-36 {
        clip-path: url(#clippath-46);
      }

      .cls-37 {
        clip-path: url(#clippath-40);
      }

      .cls-38 {
        clip-path: url(#clippath-5);
      }

      .cls-39 {
        clip-path: url(#clippath-20);
      }

      .cls-40 {
        clip-path: url(#clippath-8);
      }

      .cls-41 {
        clip-path: url(#clippath-52);
      }

      .cls-42 {
        clip-path: url(#clippath-41);
      }

      .cls-43 {
        clip-path: url(#clippath-67);
      }

      .cls-44 {
        clip-path: url(#clippath-26);
      }

      .cls-45 {
        clip-path: url(#clippath-12);
      }

      .cls-46 {
        clip-path: url(#clippath-50);
      }

      .cls-47 {
        clip-path: url(#clippath-14);
      }

      .cls-48 {
        clip-path: url(#clippath-30);
      }

      .cls-49 {
        clip-path: url(#clippath-19);
      }

      .cls-50 {
        clip-path: url(#clippath-32);
      }

      .cls-51 {
        clip-path: url(#clippath-55);
      }

      .cls-52 {
        clip-path: url(#clippath-53);
      }

      .cls-53 {
        clip-path: url(#clippath-39);
      }

      .cls-54 {
        clip-path: url(#clippath-16);
      }

      .cls-55 {
        clip-path: url(#clippath-29);
      }

      .cls-56 {
        fill: #85c1e9;
        isolation: isolate;
        opacity: .5;
      }

      .cls-57 {
        clip-path: url(#clippath-49);
      }

      .cls-58 {
        clip-path: url(#clippath-37);
      }

      .cls-59 {
        clip-path: url(#clippath-58);
      }

      .cls-60 {
        clip-path: url(#clippath-13);
      }

      .cls-61 {
        clip-path: url(#clippath-63);
      }

      .cls-62 {
        clip-path: url(#clippath-24);
      }

      .cls-63 {
        clip-path: url(#clippath-65);
      }

      .cls-64 {
        clip-path: url(#clippath-44);
      }

      .cls-65 {
        clip-path: url(#clippath-62);
      }
    </style>
    <clipPath id="clippath-4">
      <circle class="cls-29" cx="248" cy="248" r="248"/>
    </clipPath>
    <clipPath id="clippath-5">
      <circle class="cls-29" cx="248" cy="248" r="248"/>
    </clipPath>
    <clipPath id="clippath-8">
      <circle class="cls-29" cx="248" cy="248" r="248"/>
    </clipPath>
    <clipPath id="clippath-9">
      <circle class="cls-29" cx="248" cy="248" r="248"/>
    </clipPath>
    <clipPath id="clippath-11">
      <circle class="cls-29" cx="248" cy="248" r="248"/>
    </clipPath>
    <clipPath id="clippath-12">
      <circle class="cls-29" cx="248" cy="248" r="248"/>
    </clipPath>
    <clipPath id="clippath-13">
      <circle class="cls-29" cx="248" cy="248" r="248"/>
    </clipPath>
    <clipPath id="clippath-14">
      <circle class="cls-29" cx="248" cy="248" r="248"/>
    </clipPath>
    <clipPath id="clippath-15">
      <circle class="cls-29" cx="248" cy="248" r="248"/>
    </clipPath>
    <clipPath id="clippath-16">
      <circle class="cls-29" cx="248" cy="248" r="248"/>
    </clipPath>
    <clipPath id="clippath-17">
      <circle class="cls-29" cx="248" cy="248" r="248"/>
    </clipPath>
    <clipPath id="clippath-18">
      <circle class="cls-29" cx="248" cy="248" r="248"/>
    </clipPath>
    <clipPath id="clippath-19">
      <circle class="cls-29" cx="248" cy="248" r="248"/>
    </clipPath>
    <clipPath id="clippath-20">
      <circle class="cls-29" cx="248" cy="248" r="248"/>
    </clipPath>
    <clipPath id="clippath-21">
      <circle class="cls-29" cx="248" cy="248" r="248"/>
    </clipPath>
    <clipPath id="clippath-22">
      <circle class="cls-29" cx="248" cy="248" r="248"/>
    </clipPath>
    <clipPath id="clippath-23">
      <circle class="cls-29" cx="248" cy="248" r="248"/>
    </clipPath>
    <clipPath id="clippath-24">
      <circle class="cls-29" cx="248" cy="248" r="248"/>
    </clipPath>
    <clipPath id="clippath-25">
      <circle class="cls-29" cx="248" cy="248" r="248"/>
    </clipPath>
    <clipPath id="clippath-26">
      <circle class="cls-29" cx="248" cy="248" r="248"/>
    </clipPath>
    <clipPath id="clippath-27">
      <circle class="cls-29" cx="248" cy="248" r="248"/>
    </clipPath>
    <clipPath id="clippath-28">
      <circle class="cls-29" cx="248" cy="248" r="248"/>
    </clipPath>
    <clipPath id="clippath-29">
      <circle class="cls-29" cx="248" cy="248" r="248"/>
    </clipPath>
    <clipPath id="clippath-30">
      <circle class="cls-29" cx="248" cy="248" r="248"/>
    </clipPath>
    <clipPath id="clippath-31">
      <circle class="cls-29" cx="248" cy="248" r="248"/>
    </clipPath>
    <clipPath id="clippath-32">
      <circle class="cls-29" cx="248" cy="248" r="248"/>
    </clipPath>
    <clipPath id="clippath-33">
      <circle class="cls-29" cx="248" cy="248" r="248"/>
    </clipPath>
    <clipPath id="clippath-34">
      <circle class="cls-29" cx="248" cy="248" r="248"/>
    </clipPath>
    <clipPath id="clippath-35">
      <circle class="cls-29" cx="248" cy="248" r="248"/>
    </clipPath>
    <clipPath id="clippath-36">
      <circle class="cls-29" cx="248" cy="248" r="248"/>
    </clipPath>
    <clipPath id="clippath-37">
      <circle class="cls-29" cx="248" cy="248" r="248"/>
    </clipPath>
    <clipPath id="clippath-38">
      <circle class="cls-29" cx="248" cy="248" r="248"/>
    </clipPath>
    <clipPath id="clippath-39">
      <circle class="cls-29" cx="248" cy="248" r="248"/>
    </clipPath>
    <clipPath id="clippath-40">
      <circle class="cls-29" cx="248" cy="248" r="248"/>
    </clipPath>
    <clipPath id="clippath-41">
      <circle class="cls-29" cx="248" cy="248" r="248"/>
    </clipPath>
    <clipPath id="clippath-42">
      <circle class="cls-29" cx="248" cy="248" r="248"/>
    </clipPath>
    <clipPath id="clippath-43">
      <circle class="cls-29" cx="248" cy="248" r="248"/>
    </clipPath>
    <clipPath id="clippath-44">
      <circle class="cls-29" cx="248" cy="248" r="248"/>
    </clipPath>
    <clipPath id="clippath-45">
      <circle class="cls-29" cx="248" cy="248" r="248"/>
    </clipPath>
    <clipPath id="clippath-46">
      <circle class="cls-29" cx="248" cy="248" r="248"/>
    </clipPath>
    <clipPath id="clippath-47">
      <circle class="cls-29" cx="248" cy="248" r="248"/>
    </clipPath>
    <clipPath id="clippath-48">
      <circle class="cls-29" cx="248" cy="248" r="248"/>
    </clipPath>
    <clipPath id="clippath-49">
      <circle class="cls-29" cx="248" cy="248" r="248"/>
    </clipPath>
    <clipPath id="clippath-50">
      <circle class="cls-29" cx="248" cy="248" r="248"/>
    </clipPath>
    <clipPath id="clippath-51">
      <circle class="cls-29" cx="248" cy="248" r="248"/>
    </clipPath>
    <clipPath id="clippath-52">
      <circle class="cls-29" cx="248" cy="248" r="248"/>
    </clipPath>
    <clipPath id="clippath-53">
      <circle class="cls-29" cx="248" cy="248" r="248"/>
    </clipPath>
    <clipPath id="clippath-54">
      <circle class="cls-29" cx="248" cy="248" r="248"/>
    </clipPath>
    <clipPath id="clippath-55">
      <circle class="cls-29" cx="248" cy="248" r="248"/>
    </clipPath>
    <clipPath id="clippath-56">
      <circle class="cls-29" cx="248" cy="248" r="248"/>
    </clipPath>
    <clipPath id="clippath-57">
      <circle class="cls-29" cx="248" cy="248" r="248"/>
    </clipPath>
    <clipPath id="clippath-58">
      <circle class="cls-29" cx="248" cy="248" r="248"/>
    </clipPath>
    <clipPath id="clippath-59">
      <circle class="cls-29" cx="248" cy="248" r="248"/>
    </clipPath>
    <clipPath id="clippath-60">
      <circle class="cls-29" cx="248" cy="248" r="248"/>
    </clipPath>
    <clipPath id="clippath-61">
      <circle class="cls-29" cx="248" cy="248" r="248"/>
    </clipPath>
    <clipPath id="clippath-62">
      <circle class="cls-29" cx="248" cy="248" r="248"/>
    </clipPath>
    <clipPath id="clippath-63">
      <circle class="cls-29" cx="248" cy="248" r="248"/>
    </clipPath>
    <clipPath id="clippath-64">
      <circle class="cls-29" cx="248" cy="248" r="248"/>
    </clipPath>
    <clipPath id="clippath-65">
      <path class="cls-29" d="M248,0c136.97,0,248,111.03,248,248s-111.03,248-248,248S0,384.97,0,248"/>
    </clipPath>
    <clipPath id="clippath-66">
      <path class="cls-29" d="M248,0c136.97,0,248,111.03,248,248s-111.03,248-248,248S0,384.97,0,248"/>
    </clipPath>
    <clipPath id="clippath-67">
      <path class="cls-29" d="M248,0c136.97,0,248,111.03,248,248s-111.03,248-248,248S0,384.97,0,248"/>
    </clipPath>
  </defs>
  <circle class="cls-29" cx="248" cy="248" r="248"/>
  <path class="cls-2" d="M14.93,241.12c-.33,0-.63-.21-.72-.54-.11-.4.11-.81.51-.93l133.98-38.59c.4-.12.81.12.93.51s-.11.81-.51.93L15.14,241.09c-.07.02-.14.03-.21.03Z"/>
  <g class="cls-13">
    <path class="cls-2" d="M233.58,178.07c-.33,0-.63-.21-.72-.54-.12-.4.11-.81.51-.93l119.05-34.4c.4-.12.81.12.93.51s-.11.81-.51.93l-119.05,34.4c-.07.02-.14.03-.21.03Z"/>
  </g>
  <g class="cls-38">
    <path class="cls-2" d="M254.6,403.9c-1.7,0-3.41-.29-5.02-.87l-113.15-40.61c-1.99-.71-3.32-2.61-3.32-4.72v-85.26c0-2.35,1.57-4.43,3.83-5.08l212.35-60.78h0c2.26-.65,4.66-.64,6.92.01l112.67,32.71c2.11.61,3.58,2.57,3.58,4.76v81.31c0,2.52-1.61,4.77-3.99,5.6l-209,72.11c-1.57.54-3.21.81-4.85.81ZM350.11,209.46l-212.35,60.78c-.98.28-1.65,1.18-1.65,2.2v85.26c0,.85.54,1.61,1.34,1.9l113.15,40.61c2.54.91,5.34.93,7.88.05l209-72.11c1.18-.41,1.97-1.52,1.97-2.76v-81.31c0-.87-.58-1.64-1.41-1.88l-112.67-32.71c-1.72-.5-3.54-.5-5.26-.01Z"/>
  </g>
  <g class="cls-40">
    <polygon class="cls-21" points="49.93 332.37 18.01 342.04 18.01 336.12 49.11 326.29 49.93 332.37"/>
  </g>
  <g class="cls-18">
    <path class="cls-21" d="M16.24,262.81c1.79,6.52,4,15,3.41,25.45"/>
  </g>
  <g class="cls-27">
    <path class="cls-2" d="M254.62,307.29c-2.22,0-4.44-.34-6.6-1.02l-112.67-35.66c-.4-.12-.61-.55-.49-.94.12-.4.55-.61.94-.49l112.67,35.65c3.95,1.25,8.13,1.27,12.09.06l209.26-63.87c.4-.12.82.1.94.5.12.4-.1.82-.5.94l-209.26,63.87c-2.09.64-4.24.96-6.38.96Z"/>
  </g>
  <g class="cls-45">
    <path class="cls-2" d="M259.17,394.21c-.41,0-.75-.34-.75-.75v-80.86c0-.41.34-.75.75-.75s.75.34.75.75v80.86c0,.41-.34.75-.75.75Z"/>
  </g>
  <g class="cls-60">
    <path class="cls-2" d="M252.12,394.98c-.41,0-.75-.34-.75-.75v-81.63c0-.41.34-.75.75-.75s.75.34.75.75v81.63c0,.41-.34.75-.75.75Z"/>
  </g>
  <g class="cls-47">
    <path class="cls-2" d="M255.41,302.06c-1.91,0-3.82-.29-5.67-.88l-82.3-25.92c-2.44-.77-4-2.93-3.96-5.49.04-2.56,1.65-4.67,4.11-5.37l159.6-45.64c2.6-.74,5.33-.69,7.89.16,5.36,1.78,8.96,6.91,8.96,12.78v13.44c0,.41-.34.75-.75.75s-.75-.34-.75-.75v-13.44c0-5.22-3.19-9.78-7.94-11.35-2.27-.75-4.69-.8-7-.14l-159.6,45.64c-2.2.63-3,2.52-3.02,3.95-.02,1.43.73,3.35,2.91,4.04l82.3,25.92c3.35,1.06,6.91,1.08,10.27.05l167.23-51.12c8.68-2.87,9.59-4.56,9.58-5.16-.04-1.93-7.88-4.13-14.79-6.07l-1.15-.32c-.07-.02-1.69-.49-39.91-11.59-3.75-1.04-5.9-1.06-7.19-.08-2.63,2-2.63,9.12-2.62,22.05v2.47c0,.41-.33.75-.75.75s-.75-.34-.75-.75v-2.47c-.01-14.28-.02-20.79,3.21-23.25,1.73-1.32,4.19-1.37,8.51-.17l34.78,10.1c2.94.85,4.4,1.28,5.11,1.58l.02-.09,1.15.32c10.39,2.92,15.82,4.58,15.89,7.48.05,2.17-3.13,4.15-10.62,6.62l-167.24,51.12c-1.8.55-3.64.82-5.49.82Z"/>
  </g>
  <g class="cls-8">
    <path class="cls-2" d="M363.53,220.16c-.09,0-.18-.02-.27-.05-6.08-2.33-11.66-2.76-17.56-1.34-.41.1-.81-.15-.9-.55-.1-.4.15-.81.55-.9,6.21-1.5,12.08-1.05,18.45,1.4.39.15.58.58.43.97-.11.3-.4.48-.7.48Z"/>
  </g>
  <g class="cls-54">
    <path class="cls-56" d="M199.29,284.51l50.67,15.96c3.49,1.11,7.23,1.12,10.72.05l138.29-42.27-37.51-10.89c-10.43-3.03-21.51-3.05-31.96-.06l-130.2,37.21Z"/>
  </g>
  <g class="cls-6">
    <path class="cls-2" d="M255.4,302.06c-1.91,0-3.82-.29-5.67-.88l-50.67-15.96c-.32-.1-.53-.39-.52-.73,0-.33.23-.62.54-.71l130.2-37.21c10.61-3.03,21.8-3.01,32.37.06l37.51,10.89c.32.09.54.38.54.71,0,.33-.21.62-.53.72l-138.29,42.27c-1.8.55-3.65.83-5.49.83ZM201.9,284.55l48.29,15.21c3.35,1.06,6.91,1.08,10.27.05l135.88-41.53-35.1-10.19c-10.3-2.99-21.21-3.01-31.54-.06l-127.8,36.53Z"/>
  </g>
  <g class="cls-11">
    <path class="cls-2" d="M134.6,168.92c-.07,0-.15-.01-.23-.04l-10.06-3.18c-.39-.12-.61-.55-.49-.94.12-.4.55-.61.94-.49l10.06,3.18c.4.12.61.55.49.94-.1.32-.4.52-.71.52Z"/>
  </g>
  <g class="cls-49">
    <path class="cls-2" d="M134.6,163.46c-.07,0-.15-.01-.23-.04l-10.06-3.18c-.39-.12-.61-.55-.49-.94.12-.4.55-.61.94-.49l10.06,3.18c.4.12.61.55.49.94-.1.32-.4.52-.71.52Z"/>
  </g>
  <g class="cls-39">
    <path class="cls-2" d="M134.6,160.62c-.07,0-.15-.01-.23-.04l-5.5-1.74c-.4-.12-.61-.55-.49-.94.12-.4.55-.61.94-.49l5.5,1.74c.4.12.61.55.49.94-.1.32-.4.52-.71.52Z"/>
  </g>
  <g class="cls-5">
    <path class="cls-2" d="M242.37,127.83c-.07,0-.15-.01-.23-.04l-5.49-1.74c-.4-.12-.61-.55-.49-.94.12-.39.55-.61.94-.49l5.49,1.74c.4.12.61.55.49.94-.1.32-.39.52-.71.52Z"/>
  </g>
  <g class="cls-14">
    <path class="cls-2" d="M134.6,163.46c-.32,0-.62-.21-.72-.53-.12-.4.1-.82.5-.94l20.32-6.2c.4-.12.82.1.94.5s-.1.82-.5.94l-20.32,6.2c-.07.02-.15.03-.22.03Z"/>
  </g>
  <g class="cls-15">
    <path class="cls-2" d="M233.33,133.42c-.32,0-.62-.21-.72-.53-.12-.4.1-.82.5-.94l15.87-4.84-7.77-2.45c-.4-.12-.61-.55-.49-.94.12-.39.54-.61.94-.49l10.08,3.18c.31.1.53.39.52.72s-.22.62-.53.71l-18.19,5.54c-.07.02-.15.03-.22.03Z"/>
  </g>
  <g class="cls-62">
    <path class="cls-2" d="M124.55,160.28c-.32,0-.62-.21-.72-.53-.12-.4.1-.82.5-.94l4.56-1.39c.4-.12.82.1.94.5.12.4-.1.82-.5.94l-4.56,1.39c-.07.02-.15.03-.22.03Z"/>
  </g>
  <g class="cls-24">
    <path class="cls-2" d="M236.87,126.09c-.32,0-.62-.21-.72-.53-.12-.4.1-.82.5-.94l4.56-1.39c.4-.12.82.1.94.5.12.4-.1.82-.5.94l-4.56,1.39c-.07.02-.15.03-.22.03Z"/>
  </g>
  <g class="cls-44">
    <path class="cls-2" d="M134.6,160.62c-.32,0-.62-.21-.72-.53-.12-.4.1-.82.5-.94l20.13-6.14c.4-.12.82.1.94.5.12.4-.1.82-.5.94l-20.13,6.14c-.07.02-.15.03-.22.03Z"/>
  </g>
  <g class="cls-25">
    <path class="cls-2" d="M134.6,168.92c-.32,0-.62-.21-.72-.53-.12-.4.1-.82.5-.94l20.32-6.19c.4-.12.82.1.94.5.12.4-.1.82-.5.94l-20.32,6.19c-.07.02-.15.03-.22.03Z"/>
  </g>
  <g class="cls-33">
    <path class="cls-2" d="M233.33,138.92c-.32,0-.62-.21-.72-.53-.12-.4.1-.82.5-.94l18.19-5.56c.4-.12.82.1.94.5.12.4-.1.82-.5.94l-18.19,5.56c-.07.02-.15.03-.22.03Z"/>
  </g>
  <g class="cls-55">
    <path class="cls-2" d="M124.55,165.73c-.41,0-.75-.34-.75-.75v-5.45c0-.41.34-.75.75-.75s.75.34.75.75v5.45c0,.41-.34.75-.75.75Z"/>
  </g>
  <g class="cls-48">
    <path class="cls-2" d="M134.6,168.92c-.41,0-.75-.34-.75-.75v-5.45c0-.41.34-.75.75-.75s.75.34.75.75v5.45c0,.41-.34.75-.75.75Z"/>
  </g>
  <g class="cls-7">
    <path class="cls-2" d="M236.87,129.51c-.41,0-.75-.34-.75-.75v-3.42c0-.41.34-.75.75-.75s.75.34.75.75v3.42c0,.41-.34.75-.75.75Z"/>
  </g>
  <g class="cls-50">
    <path class="cls-2" d="M251.52,133.36c-.41,0-.75-.34-.75-.75v-5.49c0-.41.34-.75.75-.75s.75.34.75.75v5.49c0,.41-.34.75-.75.75Z"/>
  </g>
  <g class="cls-9">
    <path class="cls-2" d="M233.17,130.69c-.32,0-.62-.21-.72-.53-.12-.4.1-.82.49-.94l9.2-2.86c.4-.12.82.1.94.49.12.4-.1.82-.49.94l-9.2,2.86c-.07.02-.15.03-.22.03Z"/>
  </g>
  <g class="cls-3">
    <polyline class="cls-21" points="316.62 158.71 313.46 159.84 313.46 167.92 316.51 169.43"/>
  </g>
  <g class="cls-31">
    <path class="cls-2" d="M316.51,170.18c-.11,0-.23-.02-.33-.08l-3.05-1.51c-.26-.13-.42-.39-.42-.67v-8.07c0-.32.2-.6.5-.71l3.16-1.13c.39-.14.82.06.96.46.14.39-.06.82-.45.96l-2.67.95v7.08l2.63,1.3c.37.18.52.63.34,1.01-.13.26-.4.42-.67.42Z"/>
  </g>
  <g class="cls-30">
    <path class="cls-2" d="M316.51,162.1c-.11,0-.23-.02-.33-.08l-3.05-1.51c-.37-.18-.52-.63-.34-1.01.18-.37.63-.52,1.01-.34l3.05,1.51c.37.18.52.63.34,1.01-.13.26-.4.42-.67.42Z"/>
  </g>
  <g class="cls-58">
    <polyline class="cls-21" points="316.62 72.82 313.46 73.95 313.46 82.03 316.51 83.54"/>
  </g>
  <g class="cls-4">
    <path class="cls-2" d="M316.51,84.29c-.11,0-.23-.03-.33-.08l-3.05-1.51c-.26-.13-.42-.39-.42-.67v-8.08c0-.32.2-.6.5-.71l3.16-1.13c.39-.14.82.06.96.46.14.39-.06.82-.45.96l-2.67.95v7.08l2.63,1.3c.37.18.52.63.34,1-.13.26-.4.42-.67.42Z"/>
  </g>
  <g class="cls-53">
    <path class="cls-2" d="M316.51,76.21c-.11,0-.23-.03-.33-.08l-3.05-1.51c-.37-.18-.52-.63-.34-1,.18-.37.63-.52,1.01-.34l3.05,1.51c.37.18.52.63.34,1-.13.26-.4.42-.67.42Z"/>
  </g>
  <g class="cls-37">
    <path class="cls-21" d="M316.62,61.32c0-1.04.85-1.89,1.89-1.89s1.89.85,1.89,1.89v115.05c0,.37-.85.68-1.89.68s-1.89-.3-1.89-.68V61.32Z"/>
  </g>
  <g class="cls-42">
    <path class="cls-2" d="M318.51,177.8c-1.6,0-2.64-.56-2.64-1.43V61.32c0-1.46,1.18-2.64,2.64-2.64s2.64,1.18,2.64,2.64v115.05c0,.87-1.04,1.43-2.64,1.43ZM317.37,176.12c.19.08.58.18,1.14.18s.95-.1,1.14-.18V61.32c0-.63-.51-1.14-1.14-1.14s-1.14.51-1.14,1.14v114.8Z"/>
  </g>
  <g class="cls-19">
    <path class="cls-2" d="M305.3,240.4c-4.35,0-8.11-1.59-11.15-4.73-8.89-9.15-9.38-28.8-8.98-42.79.02-.81.04-1.43.04-1.84,0-1.66,1.34-3,3-3s3,1.34,3,3c0,.44-.02,1.13-.04,2.01-.57,19.94,1.88,32.87,7.28,38.44,1.9,1.96,4.14,2.91,6.85,2.91,3.76,0,6.77-1.24,9.21-3.79,3.8-3.98,8.13-13.26,7.15-34.9-.42-9.25-1.01-17.73-1.58-25.93-1.38-19.88-2.57-37.04-.38-53.44.22-1.64,1.73-2.8,3.37-2.58,1.64.22,2.8,1.73,2.58,3.37-2.11,15.8-.94,32.68.42,52.23.57,8.24,1.16,16.76,1.59,26.08.87,19.07-2.1,32.29-8.8,39.32-3.58,3.74-8.14,5.64-13.55,5.64Z"/>
  </g>
  <g class="cls-22">
    <path class="cls-21" d="M305.3,238.9c-3.93,0-7.32-1.44-10.08-4.27-9.47-9.75-8.78-33.8-8.55-41.7.02-.82.04-1.46.04-1.88,0-.83.67-1.5,1.5-1.5s1.5.67,1.5,1.5c0,.43-.02,1.1-.04,1.96-.22,7.59-.88,30.68,7.71,39.52,2.2,2.26,4.79,3.36,7.93,3.36,4.19,0,7.56-1.39,10.29-4.25,5.74-6.01,8.36-18.46,7.56-36-.42-9.26-1.01-17.76-1.58-25.97-1.37-19.79-2.56-36.89-.39-53.14.11-.82.87-1.4,1.69-1.29.82.11,1.4.86,1.29,1.68-2.13,15.95-.95,32.9.41,52.53.57,8.23,1.16,16.74,1.58,26.04.85,18.64-1.98,31.5-8.39,38.21-3.28,3.44-7.48,5.18-12.46,5.18Z"/>
  </g>
  <g class="cls-64">
    <path class="cls-21" d="M284.43,188.55v8.46c0,.75,1.69,1.35,3.78,1.35s3.78-.61,3.78-1.35v-10.84"/>
  </g>
  <g class="cls-35">
    <path class="cls-2" d="M288.21,199.12c-2.25,0-4.52-.65-4.52-2.1v-8.46c0-.41.34-.75.75-.75s.75.34.75.75v8.39c.2.22,1.26.68,3.02.68s2.82-.46,3.03-.68v-10.77c0-.41.34-.75.75-.75s.75.34.75.75v10.84c0,1.45-2.27,2.1-4.53,2.1Z"/>
  </g>
  <g class="cls-36">
    <path class="cls-21" d="M268.42,180.57l33.58-9.5c.89-.37,1.99-.22,3.16.54,2.9,1.88,5.16,6.79,5.06,10.96-.06,2.55-.99,4.23-2.36,4.73l-33.77,9.73"/>
  </g>
  <g class="cls-12">
    <path class="cls-2" d="M274.08,197.79c-.33,0-.63-.21-.72-.54-.11-.4.11-.81.51-.93l33.77-9.73c1.07-.39,1.77-1.9,1.82-4.03.1-3.94-2.02-8.57-4.72-10.32-.64-.42-1.59-.84-2.47-.48l-33.66,9.53c-.4.11-.81-.12-.93-.52-.11-.4.12-.81.52-.93l33.58-9.5c1.07-.44,2.44-.23,3.77.63,3.14,2.04,5.51,7.14,5.4,11.61-.07,2.77-1.14,4.79-2.86,5.42l-33.82,9.75c-.07.02-.14.03-.21.03Z"/>
  </g>
  <g class="cls-32">
    <path class="cls-2" d="M273.23,197.93c-.83,0-1.72-.29-2.6-.86-3.17-2.05-5.56-7.2-5.45-11.71.06-2.56.96-4.49,2.46-5.28,1.23-.65,2.71-.48,4.17.48,3.17,2.05,5.56,7.2,5.45,11.71-.06,2.56-.96,4.49-2.47,5.28-.49.26-1.02.39-1.57.39ZM269.22,181.19c-.29,0-.59.06-.88.21-.99.52-1.62,2.02-1.67,3.99-.1,3.98,2.04,8.65,4.76,10.42.7.46,1.73.89,2.65.41.99-.52,1.62-2.02,1.67-3.99.1-3.98-2.04-8.65-4.76-10.41-.48-.31-1.12-.62-1.78-.62Z"/>
  </g>
  <g class="cls-57">
    <path class="cls-21" d="M314,112.32l16.09-4.56c.34-.14.76-.08,1.21.21,1.11.72,1.98,2.61,1.94,4.21-.02.98-.38,1.63-.91,1.82l-16.16,4.65"/>
  </g>
  <g class="cls-46">
    <path class="cls-2" d="M316.17,119.4c-.33,0-.63-.21-.72-.54-.11-.4.11-.81.51-.93l16.16-4.65c.14-.05.35-.44.37-1.12.03-1.35-.7-2.98-1.6-3.57-.21-.14-.4-.19-.52-.14l-16.17,4.59c-.4.11-.81-.12-.93-.52-.11-.4.12-.81.52-.93l16.09-4.56c.51-.21,1.19-.12,1.83.3,1.33.86,2.33,3,2.29,4.86-.03,1.26-.56,2.2-1.4,2.5l-16.21,4.66c-.07.02-.14.03-.21.03Z"/>
  </g>
  <ellipse class="cls-21" cx="315.06" cy="115.49" rx="1.81" ry="3.35" transform="translate(-20.47 110.69) rotate(-19.31)"/>
  <g class="cls-1">
    <path class="cls-2" d="M315.84,119.46c-.41,0-.83-.14-1.25-.41-1.34-.87-2.35-3.02-2.3-4.9.03-1.16.46-2.04,1.19-2.43.62-.33,1.36-.26,2.07.2,1.34.87,2.35,3.02,2.3,4.9h0c-.03,1.16-.46,2.04-1.19,2.43-.26.13-.53.2-.82.2ZM314.31,113.02s-.09,0-.12.03c-.18.1-.38.49-.39,1.14-.03,1.36.71,3.01,1.62,3.6.11.07.38.23.55.14.19-.1.38-.49.39-1.14.03-1.36-.71-3.01-1.62-3.6-.09-.05-.27-.16-.43-.16ZM317.11,116.81h.01-.01Z"/>
  </g>
  <g class="cls-41">
    <path class="cls-21" d="M270.87,183.91l-.48-19.61c-.03-1.13-.59-2.18-1.51-2.83l-.65-.46c-.49-.35-1.07-.43-1.58-.3l-4.03,1.14c-.83.15-1.53.84-1.59,1.8l-1,18.13c-1.24.75-2.06,2.49-2.12,4.99-.11,4.62,2.39,10.05,5.6,12.13,1.2.78,2.32.98,3.27.68h0s.01,0,.01,0h0l4.15-1.16c1.58-.5,2.66-2.39,2.73-5.27.08-3.13-1.05-6.64-2.79-9.22Z"/>
  </g>
  <g class="cls-52">
    <path class="cls-2" d="M266.77,200.32c-.33,0-.63-.22-.72-.55-.11-.4.12-.81.52-.93l4.16-1.17c1.3-.41,2.12-2.12,2.18-4.57.07-2.87-.95-6.24-2.66-8.78-.08-.12-.12-.26-.13-.4l-.48-19.61c-.02-.89-.47-1.73-1.2-2.24l-.65-.46c-.29-.2-.63-.27-.96-.18l-4.02,1.14c-.4.12-.81-.12-.93-.52-.11-.4.12-.81.52-.93l4.04-1.14c.77-.2,1.58-.04,2.22.41l.65.46c1.11.79,1.8,2.07,1.83,3.43l.48,19.39c1.8,2.77,2.87,6.38,2.8,9.47-.08,3.12-1.29,5.35-3.25,5.97l-4.19,1.18c-.07.02-.14.03-.2.03Z"/>
  </g>
  <g class="cls-16">
    <path class="cls-2" d="M265.91,200.45c-.9,0-1.86-.31-2.81-.93-3.45-2.24-6.06-7.85-5.94-12.77.06-2.48.82-4.37,2.14-5.38l.98-17.76c.05-.99.62-1.84,1.51-2.27.89-.43,1.91-.35,2.72.22l.65.46c1.11.79,1.8,2.07,1.83,3.43l.48,19.39c1.8,2.77,2.87,6.38,2.8,9.47-.07,2.78-1.04,4.87-2.67,5.73-.53.28-1.1.41-1.69.41ZM262.97,162.57c-.18,0-.35.04-.52.12-.39.19-.64.57-.67,1l-1,18.13c-.01.25-.15.47-.36.6-1.07.65-1.71,2.24-1.76,4.36-.11,4.38,2.25,9.53,5.26,11.48.78.51,1.94,1,2.98.45,1.11-.59,1.81-2.25,1.86-4.43.07-2.87-.95-6.24-2.66-8.78-.08-.12-.12-.26-.13-.4l-.48-19.61c-.02-.89-.47-1.73-1.2-2.24l-.65-.46c-.21-.15-.44-.22-.68-.22Z"/>
  </g>
  <g class="cls-51">
    <path class="cls-21" d="M363.77,70.52c-1.75-6.2-12.1-8.7-23.12-5.6-11.02,3.11-18.54,10.65-16.79,16.85.49,1.76,1.68,3.21,3.38,4.33,1.69,1.11,2.33,3.3,1.64,5.2l-6.63,18.38c-.46,1.26.25,2.65,1.54,3.02h0c.97.28,2.01-.1,2.57-.94l14.13-21.16c.91-1.37,2.34-2.28,3.95-2.61.84-.17,1.68-.38,2.54-.62,11.02-3.11,18.54-10.65,16.79-16.85Z"/>
  </g>
  <g class="cls-34">
    <path class="cls-2" d="M324.44,113.54c-.28,0-.57-.04-.85-.12-.81-.23-1.5-.8-1.89-1.55-.39-.75-.44-1.64-.15-2.44l6.63-18.38c.58-1.61.01-3.42-1.35-4.32-1.91-1.26-3.15-2.86-3.69-4.75-1.86-6.58,5.91-14.56,17.31-17.77,11.4-3.22,22.19-.47,24.05,6.11,1.86,6.58-5.91,14.56-17.31,17.77-.85.24-1.72.45-2.58.63-1.46.3-2.69,1.12-3.48,2.29l-14.13,21.16c-.58.87-1.54,1.36-2.55,1.36ZM349.98,64.33c-2.85,0-5.96.42-9.13,1.32-10.61,2.99-17.91,10.13-16.27,15.92.43,1.54,1.47,2.85,3.07,3.91,1.96,1.29,2.76,3.8,1.94,6.08l-6.63,18.38c-.15.41-.12.86.08,1.25.2.39.54.67.96.79.66.19,1.36-.07,1.74-.64l14.13-21.16c1.01-1.51,2.58-2.55,4.42-2.93.83-.17,1.66-.38,2.48-.61,10.61-2.99,17.91-10.13,16.28-15.92-1.14-4.06-6.38-6.39-13.07-6.39Z"/>
  </g>
  <g class="cls-28">
    <path class="cls-2" d="M337.97,87.2c-1.06,0-2.08-.07-3.03-.21-3.53-.52-5.8-1.97-6.39-4.08-1.19-4.2,4.85-9.46,13.74-11.97,4.14-1.17,8.25-1.54,11.57-1.05,3.53.52,5.8,1.97,6.39,4.08h0c1.19,4.2-4.85,9.46-13.74,11.97-2.95.83-5.89,1.26-8.54,1.26ZM350.81,71.18c-2.5,0-5.3.41-8.12,1.21-7.81,2.2-13.63,6.83-12.7,10.11.42,1.49,2.3,2.58,5.17,3,3.11.46,7,.1,10.95-1.01,7.81-2.2,13.62-6.83,12.7-10.11h0c-.42-1.49-2.3-2.58-5.17-3-.88-.13-1.83-.19-2.82-.19Z"/>
  </g>
  <g class="cls-59">
    <path class="cls-2" d="M337.96,84.65c-.36,0-.71,0-1.04-.03-.41-.02-.73-.37-.71-.79.02-.41.36-.72.79-.71.31.02.63.02.96.02.22,0,.42.1.56.25.13-.16.32-.26.54-.27.32-.02.64-.04.97-.07.39-.04.78.27.81.68.04.41-.27.78-.68.81-.35.03-.69.06-1.03.07-.23,0-.45-.08-.59-.25-.14.17-.35.28-.58.28ZM334.01,84.18c-.07,0-.14,0-.2-.03-.37-.11-.72-.23-1.04-.36-.38-.16-.56-.6-.39-.99.16-.38.6-.56.98-.39.25.11.53.21.85.3.4.11.63.53.52.93-.09.33-.39.55-.72.55ZM343.07,84.12c-.35,0-.66-.25-.73-.61-.08-.41.18-.8.59-.88.32-.06.64-.13.96-.2.4-.09.81.16.9.56s-.16.81-.56.9c-.33.08-.67.15-1,.21-.05,0-.1.01-.15.01ZM346.94,83.11c-.32,0-.61-.2-.71-.52-.13-.39.08-.82.48-.95.31-.1.62-.21.92-.32.39-.14.82.06.96.45.14.39-.06.82-.45.96-.32.12-.64.23-.97.33-.08.03-.16.04-.23.04ZM350.64,81.62c-.28,0-.55-.16-.68-.42-.18-.37-.02-.82.35-1,.3-.14.58-.29.87-.44.37-.2.82-.06,1.02.31s.06.82-.31,1.01c-.3.16-.61.31-.92.46-.11.05-.22.08-.33.08ZM331.98,81.6c-.12,0-.24-.03-.36-.09-.36-.2-.5-.65-.3-1.02.16-.3.38-.62.65-.94.26-.32.74-.36,1.06-.1.32.26.37.74.1,1.06-.2.25-.37.49-.49.7-.14.25-.39.39-.66.39ZM354.08,79.58c-.23,0-.46-.11-.61-.31-.24-.33-.17-.8.16-1.05.24-.18.48-.36.7-.54l.53.53.48.58s-.06.05-.06.05c-.24.2-.49.4-.76.6-.13.1-.29.14-.44.14ZM334.76,78.76c-.23,0-.46-.11-.61-.31-.24-.33-.17-.8.17-1.05.27-.2.55-.39.86-.59.35-.22.81-.13,1.04.22.23.35.12.81-.22,1.04-.28.18-.54.36-.79.54-.13.1-.29.14-.44.14ZM338.2,76.73c-.28,0-.55-.16-.68-.42-.18-.37-.02-.82.35-1,.3-.14.61-.29.93-.43.38-.17.82,0,.99.39.17.38,0,.82-.39.99-.3.13-.6.27-.88.41-.1.05-.22.07-.32.07ZM356.82,76.72c-.12,0-.24-.03-.35-.09-.37-.19-.51-.65-.32-1.01.18-.34.19-.52.19-.55,0-.41.32-.76.73-.78.39,0,.75.28.77.68,0,.03,0,.11,0,.14,0,.33-.12.75-.36,1.21-.14.25-.4.4-.67.4ZM341.92,75.25c-.32,0-.61-.2-.71-.52-.13-.39.09-.82.48-.94.32-.1.64-.2.98-.3.4-.12.81.11.93.51s-.11.81-.51.93c-.32.09-.63.19-.93.29-.08.03-.15.04-.23.04ZM345.78,74.25c-.35,0-.67-.25-.73-.61-.08-.41.19-.8.59-.88.34-.07.67-.12,1.01-.18.41-.07.8.21.86.62.07.41-.21.79-.62.86-.32.05-.64.11-.96.17-.05,0-.1.01-.14.01ZM354.71,74.19c-.07,0-.13,0-.2-.03-.28-.08-.58-.14-.91-.2-.41-.07-.68-.46-.61-.87s.45-.68.87-.61c.38.07.73.15,1.04.23.4.11.64.52.53.92-.09.33-.39.55-.72.55ZM349.75,73.76c-.4,0-.73-.31-.75-.71-.02-.41.3-.76.71-.79.35-.02.69-.03,1.03-.03h0c.41,0,.75.33.75.75s-.33.75-.75.75c-.32,0-.64.01-.97.03-.01,0-.02,0-.04,0Z"/>
  </g>
  <g class="cls-20">
    <path class="cls-2" d="M337.62,82.5s-.05,0-.08,0c-.37-.03-.71-.07-1.03-.11-.41-.06-.7-.44-.64-.85.06-.41.44-.69.85-.64.29.04.6.08.93.1.41.03.73.39.7.8-.03.39-.35.7-.74.7ZM340.57,82.5c-.39,0-.72-.3-.75-.7-.03-.41.28-.77.69-.8.31-.02.63-.05.95-.09.42-.05.78.25.83.66s-.25.78-.66.83c-.34.04-.68.07-1.01.09-.02,0-.03,0-.05,0ZM344.47,81.91c-.34,0-.65-.24-.73-.58-.09-.4.16-.81.56-.9.21-.05.42-.1.63-.15l.31-.08c.4-.1.81.13.92.53s-.13.81-.53.92l-.33.08c-.22.06-.44.11-.66.16-.06.01-.11.02-.17.02ZM348.25,80.78c-.3,0-.59-.18-.7-.48-.15-.39.05-.82.44-.97.3-.11.59-.23.88-.36.38-.17.82,0,.99.38.17.38,0,.82-.38.99-.31.14-.63.27-.95.39-.09.03-.18.05-.27.05ZM336.27,80.47c-.24,0-.47-.11-.62-.32-.24-.34-.15-.81.19-1.04.27-.19.55-.38.86-.56.36-.22.82-.11,1.03.24.22.35.11.81-.24,1.03-.28.17-.54.35-.79.52-.13.09-.28.13-.43.13ZM351.71,78.93c-.22,0-.44-.1-.59-.28-.26-.32-.2-.8.12-1.05.24-.19.46-.39.64-.59.28-.31.75-.33,1.06-.05.31.28.33.75.05,1.06-.23.26-.51.51-.81.75-.14.11-.3.16-.47.16ZM339.7,78.54c-.28,0-.56-.16-.68-.44-.17-.38,0-.82.37-.99.3-.14.61-.27.93-.4.38-.15.82.03.98.41.15.38-.03.82-.41.98-.3.12-.6.25-.88.38-.1.05-.21.07-.31.07ZM343.4,77.19c-.33,0-.63-.21-.72-.54-.11-.4.11-.81.51-.93.32-.09.64-.18.98-.26.4-.1.81.14.91.54.1.4-.14.81-.55.91-.32.08-.63.16-.93.25-.07.02-.14.03-.21.03ZM347.26,76.36c-.37,0-.69-.27-.74-.65-.06-.41.23-.79.64-.85.34-.05.67-.09,1.01-.12.4-.04.78.26.82.67.04.41-.26.78-.67.82-.31.03-.63.07-.95.11-.04,0-.07,0-.11,0ZM352.17,76.21s-.05,0-.07,0l-.29-.03c-.22-.02-.43-.03-.65-.04-.41-.02-.74-.36-.72-.78s.35-.74.78-.72c.24,0,.48.02.71.04l.31.03c.41.04.71.4.68.82-.04.39-.36.68-.75.68Z"/>
  </g>
  <g class="cls-26">
    <path class="cls-2" d="M340.62,80.35c-.33,0-.64-.22-.73-.56-.02-.06-.02-.13-.02-.19,0-.33.22-.64.56-.72l.48-.13c.4-.11.81.13.92.53.02.06.02.13.02.19,0,.33-.22.64-.56.72l-.48.13c-.06.02-.13.03-.19.03Z"/>
  </g>
  <g class="cls-10">
    <path class="cls-2" d="M343.96,79.47c-.33,0-.64-.22-.73-.56-.11-.4.13-.81.53-.92l.95-.25c.4-.11.81.13.92.53.11.4-.13.81-.53.92l-.95.25c-.06.02-.13.03-.19.03Z"/>
  </g>
  <g class="cls-65">
    <path class="cls-2" d="M347.78,78.46c-.33,0-.64-.22-.73-.56-.02-.06-.02-.13-.02-.19,0-.33.22-.64.56-.72l.48-.13c.4-.11.81.13.92.53.02.06.02.13.02.19,0,.33-.22.64-.56.72l-.48.13c-.06.02-.13.03-.19.03Z"/>
  </g>
  <g class="cls-61">
    <path class="cls-2" d="M343.96,79.47c-.33,0-.64-.22-.73-.56-.11-.4.13-.81.53-.92l.95-.25c.4-.11.81.13.92.53.11.4-.13.81-.53.92l-.95.25c-.06.02-.13.03-.19.03Z"/>
  </g>
  <g class="cls-23">
    <path class="cls-21" d="M315.99,190.45c0-1.07-.69-2.02-1.71-2.34l-21.55-6.87c-.63-.2-1.3-.2-1.93,0l-1.42.43c-1.29.39-2.17,1.58-2.17,2.93v1.75c0,.86.55,1.62,1.37,1.88l17.65,5.62c1.57.5,3.2.75,4.85.75h.76c2.29,0,4.15-1.86,4.15-4.15h0Z"/>
  </g>
  <g class="cls-63">
    <path class="cls-2" d="M311.84,195.35h-.76c-1.73,0-3.43-.27-5.08-.79l-17.65-5.62c-1.13-.36-1.9-1.4-1.9-2.59v-1.75c0-1.69,1.09-3.16,2.7-3.65l1.42-.43c.78-.24,1.6-.23,2.37.01l21.55,6.87c1.34.43,2.23,1.65,2.23,3.06,0,2.7-2.2,4.9-4.9,4.9ZM291.75,181.84c-.24,0-.49.04-.73.11l-1.42.43c-.98.3-1.64,1.19-1.64,2.21v1.75c0,.53.34,1,.85,1.16l17.65,5.62c1.5.48,3.05.72,4.62.72h.76c1.88,0,3.4-1.52,3.4-3.4,0-.75-.48-1.4-1.19-1.63l-21.55-6.87c-.24-.08-.5-.12-.75-.12Z"/>
  </g>
  <g class="cls-17">
    <path class="cls-2" d="M150.39,225.61c-.42,0-.84-.13-1.19-.4-.52-.38-.81-.97-.81-1.62v-59.84c0-.41.34-.75.75-.75s.75.34.75.75v59.84c0,.16.07.31.21.41s.29.13.45.08l4.16-1.27c.4-.12.82.1.94.5.12.4-.1.82-.5.94l-4.16,1.27c-.2.06-.4.09-.59.09Z"/>
  </g>
  <g class="cls-43">
    <path class="cls-2" d="M156.56,229.31c-.5,0-1-.16-1.42-.47-.62-.46-.97-1.16-.97-1.92v-71.98c0-1.35-.87-2.53-2.15-2.94-.29-.09-.58-.1-.85-.04h-.01s-.05.02-.08.02c-.18.05-.36.14-.52.26-.43.31-.67.79-.67,1.32v1.9c0,.41-.34.75-.75.75s-.75-.34-.75-.75v-1.9c0-1.01.47-1.93,1.28-2.53.35-.25.73-.43,1.13-.53l78.26-23.84s.06-.02.09-.03c.57-.15,1.17-.13,1.74.05,1.92.61,3.2,2.36,3.2,4.37v72.26c0,1.49-.96,2.79-2.39,3.23l-74.43,22.68c-.23.07-.47.11-.7.11ZM153.72,151.17c1.21.84,1.95,2.23,1.95,3.76v71.98c0,.29.13.55.36.72.23.17.52.22.79.14l74.43-22.68c.79-.24,1.33-.96,1.33-1.79v-72.26c0-1.35-.87-2.53-2.15-2.94-.28-.09-.58-.1-.85-.04,0,0,0,0-.01,0l-75.84,23.11Z"/>
  </g>
  <path class="cls-2" d="M14.45,403.17c-.33,0-.63-.21-.72-.54-.11-.4.11-.81.51-.93l120.12-42.66c.4-.12.81.12.93.51s-.11.81-.51.93l-120.12,42.66c-.07.02-.14.03-.21.03Z"/>
  <path class="cls-2" d="M14.93,89.29c-.33,0-.63-.21-.72-.54-.11-.4.11-.81.51-.93L344.25,2.49c.4-.12.81.12.93.51s-.11.81-.51.93L15.14,89.26c-.07.02-.14.03-.21.03Z"/>
  <path class="cls-2" d="M14.45,79.53c-.33,0-.63-.21-.72-.54-.11-.4.11-.81.51-.93L306.02,2.49c.4-.12.81.12.93.51s-.11.81-.51.93L14.66,79.5c-.07.02-.14.03-.21.03Z"/>
  <polygon class="cls-2" points="353.18 85.51 353.18 206.11 352.12 206.12 352.12 85.51 353.18 85.51"/>
  <rect class="cls-2" x="352.12" y="2.46" width=".71" height="61.22"/>
  <polygon class="cls-2" points="352.84 143.65 514.18 182.22 514.18 180.83 352.42 142.21 352.84 143.65"/>
  <polygon class="cls-2" points="470.75 328.72 514.18 343.06 514.18 341.67 470.33 327.28 470.75 328.72"/>
</svg>