<?xml version="1.0" encoding="UTF-8"?>
<svg id="GRUPPE" xmlns="http://www.w3.org/2000/svg" xmlns:xlink="http://www.w3.org/1999/xlink" viewBox="0 0 536.98 502.8">
  <defs>
    <style>
      .cls-1 {
        clip-path: url(#clippath-76);
      }

      .cls-2 {
        clip-path: url(#clippath-51);
      }

      .cls-3 {
        fill: #000001;
      }

      .cls-4 {
        clip-path: url(#clippath-34);
      }

      .cls-5 {
        clip-path: url(#clippath-107);
      }

      .cls-6 {
        clip-path: url(#clippath-38);
      }

      .cls-7 {
        clip-path: url(#clippath-21);
      }

      .cls-8 {
        clip-path: url(#clippath-6);
      }

      .cls-9 {
        clip-path: url(#clippath-7);
      }

      .cls-10 {
        clip-path: url(#clippath-17);
      }

      .cls-11 {
        clip-path: url(#clippath-80);
      }

      .cls-12 {
        clip-path: url(#clippath-31);
      }

      .cls-13 {
        clip-path: url(#clippath-79);
      }

      .cls-14 {
        clip-path: url(#clippath-75);
      }

      .cls-15 {
        clip-path: url(#clippath-15);
      }

      .cls-16 {
        clip-path: url(#clippath-33);
      }

      .cls-17 {
        clip-path: url(#clippath-61);
      }

      .cls-18 {
        clip-path: url(#clippath-100);
      }

      .cls-19 {
        clip-path: url(#clippath-18);
      }

      .cls-20 {
        clip-path: url(#clippath-47);
      }

      .cls-21 {
        clip-path: url(#clippath-4);
      }

      .cls-22 {
        clip-path: url(#clippath-71);
      }

      .cls-23 {
        clip-path: url(#clippath-22);
      }

      .cls-24 {
        fill: #85c1e9;
        isolation: isolate;
        opacity: .35;
      }

      .cls-25 {
        clip-path: url(#clippath-103);
      }

      .cls-26 {
        clip-path: url(#clippath-23);
      }

      .cls-27 {
        clip-path: url(#clippath-82);
      }

      .cls-28 {
        clip-path: url(#clippath-54);
      }

      .cls-29 {
        clip-path: url(#clippath-66);
      }

      .cls-30 {
        clip-path: url(#clippath-9);
      }

      .cls-31 {
        clip-path: url(#clippath-102);
      }

      .cls-32 {
        clip-path: url(#clippath-70);
      }

      .cls-33 {
        clip-path: url(#clippath-10);
      }

      .cls-34 {
        clip-path: url(#clippath-42);
      }

      .cls-35 {
        clip-path: url(#clippath-59);
      }

      .cls-36 {
        fill: #fff;
      }

      .cls-37 {
        clip-path: url(#clippath-43);
      }

      .cls-38 {
        clip-path: url(#clippath-64);
      }

      .cls-39 {
        clip-path: url(#clippath-101);
      }

      .cls-40 {
        clip-path: url(#clippath-25);
      }

      .cls-41 {
        clip-path: url(#clippath-27);
      }

      .cls-42 {
        clip-path: url(#clippath-60);
      }

      .cls-43 {
        clip-path: url(#clippath-93);
      }

      .cls-44 {
        clip-path: url(#clippath-11);
      }

      .cls-45 {
        clip-path: url(#clippath-57);
      }

      .cls-46 {
        clip-path: url(#clippath-88);
      }

      .cls-47 {
        fill: none;
      }

      .cls-48 {
        clip-path: url(#clippath-85);
      }

      .cls-49 {
        clip-path: url(#clippath-105);
      }

      .cls-50 {
        clip-path: url(#clippath-36);
      }

      .cls-51 {
        clip-path: url(#clippath-92);
      }

      .cls-52 {
        clip-path: url(#clippath-35);
      }

      .cls-53 {
        clip-path: url(#clippath-98);
      }

      .cls-54 {
        clip-path: url(#clippath-48);
      }

      .cls-55 {
        clip-path: url(#clippath-104);
      }

      .cls-56 {
        clip-path: url(#clippath-28);
      }

      .cls-57 {
        clip-path: url(#clippath-1);
      }

      .cls-58 {
        clip-path: url(#clippath-56);
      }

      .cls-59 {
        clip-path: url(#clippath-108);
      }

      .cls-60 {
        clip-path: url(#clippath-90);
      }

      .cls-61 {
        clip-path: url(#clippath-45);
      }

      .cls-62 {
        clip-path: url(#clippath-99);
      }

      .cls-63 {
        clip-path: url(#clippath-89);
      }

      .cls-64 {
        clip-path: url(#clippath-46);
      }

      .cls-65 {
        clip-path: url(#clippath-40);
      }

      .cls-66 {
        clip-path: url(#clippath-96);
      }

      .cls-67 {
        clip-path: url(#clippath-5);
      }

      .cls-68 {
        clip-path: url(#clippath-20);
      }

      .cls-69 {
        clip-path: url(#clippath-95);
      }

      .cls-70 {
        clip-path: url(#clippath-8);
      }

      .cls-71 {
        clip-path: url(#clippath-52);
      }

      .cls-72 {
        clip-path: url(#clippath-41);
      }

      .cls-73 {
        clip-path: url(#clippath-67);
      }

      .cls-74 {
        clip-path: url(#clippath-74);
      }

      .cls-75 {
        clip-path: url(#clippath-3);
      }

      .cls-76 {
        clip-path: url(#clippath-26);
      }

      .cls-77 {
        clip-path: url(#clippath-91);
      }

      .cls-78 {
        clip-path: url(#clippath-12);
      }

      .cls-79 {
        clip-path: url(#clippath-50);
      }

      .cls-80 {
        clip-path: url(#clippath-14);
      }

      .cls-81 {
        clip-path: url(#clippath-97);
      }

      .cls-82 {
        clip-path: url(#clippath-30);
      }

      .cls-83 {
        clip-path: url(#clippath-77);
      }

      .cls-84 {
        clip-path: url(#clippath-19);
      }

      .cls-85 {
        clip-path: url(#clippath-78);
      }

      .cls-86 {
        clip-path: url(#clippath-72);
      }

      .cls-87 {
        clip-path: url(#clippath-84);
      }

      .cls-88 {
        clip-path: url(#clippath-32);
      }

      .cls-89 {
        clip-path: url(#clippath-55);
      }

      .cls-90 {
        clip-path: url(#clippath-73);
      }

      .cls-91 {
        clip-path: url(#clippath-53);
      }

      .cls-92 {
        clip-path: url(#clippath-39);
      }

      .cls-93 {
        clip-path: url(#clippath-81);
      }

      .cls-94 {
        clip-path: url(#clippath-106);
      }

      .cls-95 {
        clip-path: url(#clippath-16);
      }

      .cls-96 {
        clip-path: url(#clippath-2);
      }

      .cls-97 {
        clip-path: url(#clippath-29);
      }

      .cls-98 {
        clip-path: url(#clippath-49);
      }

      .cls-99 {
        clip-path: url(#clippath-37);
      }

      .cls-100 {
        clip-path: url(#clippath-58);
      }

      .cls-101 {
        clip-path: url(#clippath-13);
      }

      .cls-102 {
        clip-path: url(#clippath-86);
      }

      .cls-103 {
        clip-path: url(#clippath-63);
      }

      .cls-104 {
        clip-path: url(#clippath-24);
      }

      .cls-105 {
        clip-path: url(#clippath-94);
      }

      .cls-106 {
        clip-path: url(#clippath);
      }

      .cls-107 {
        clip-path: url(#clippath-87);
      }

      .cls-108 {
        clip-path: url(#clippath-68);
      }

      .cls-109 {
        clip-path: url(#clippath-83);
      }

      .cls-110 {
        clip-path: url(#clippath-65);
      }

      .cls-111 {
        clip-path: url(#clippath-44);
      }

      .cls-112 {
        clip-path: url(#clippath-62);
      }

      .cls-113 {
        clip-path: url(#clippath-69);
      }
    </style>
    <clipPath id="clippath">
      <circle class="cls-47" cx="250" cy="252.8" r="248"/>
    </clipPath>
    <clipPath id="clippath-1">
      <circle class="cls-47" cx="250" cy="252.8" r="248"/>
    </clipPath>
    <clipPath id="clippath-2">
      <circle class="cls-47" cx="250" cy="252.8" r="248"/>
    </clipPath>
    <clipPath id="clippath-3">
      <circle class="cls-47" cx="250" cy="252.8" r="248"/>
    </clipPath>
    <clipPath id="clippath-4">
      <circle class="cls-47" cx="250" cy="252.8" r="248"/>
    </clipPath>
    <clipPath id="clippath-5">
      <circle class="cls-47" cx="250" cy="252.8" r="248"/>
    </clipPath>
    <clipPath id="clippath-6">
      <circle class="cls-47" cx="250" cy="252.8" r="248"/>
    </clipPath>
    <clipPath id="clippath-7">
      <circle class="cls-47" cx="250" cy="252.8" r="248"/>
    </clipPath>
    <clipPath id="clippath-8">
      <circle class="cls-47" cx="250" cy="252.8" r="248"/>
    </clipPath>
    <clipPath id="clippath-9">
      <circle class="cls-47" cx="250" cy="252.8" r="248"/>
    </clipPath>
    <clipPath id="clippath-10">
      <circle class="cls-47" cx="250" cy="252.8" r="248"/>
    </clipPath>
    <clipPath id="clippath-11">
      <circle class="cls-47" cx="250" cy="252.8" r="248"/>
    </clipPath>
    <clipPath id="clippath-12">
      <circle class="cls-47" cx="250" cy="252.8" r="248"/>
    </clipPath>
    <clipPath id="clippath-13">
      <circle class="cls-47" cx="250" cy="252.8" r="248"/>
    </clipPath>
    <clipPath id="clippath-14">
      <circle class="cls-47" cx="250" cy="252.8" r="248"/>
    </clipPath>
    <clipPath id="clippath-15">
      <circle class="cls-47" cx="250" cy="252.8" r="248"/>
    </clipPath>
    <clipPath id="clippath-16">
      <circle class="cls-47" cx="250" cy="252.8" r="248"/>
    </clipPath>
    <clipPath id="clippath-17">
      <circle class="cls-47" cx="250" cy="252.8" r="248"/>
    </clipPath>
    <clipPath id="clippath-18">
      <circle class="cls-47" cx="250" cy="252.8" r="248"/>
    </clipPath>
    <clipPath id="clippath-19">
      <circle class="cls-47" cx="250" cy="252.8" r="248"/>
    </clipPath>
    <clipPath id="clippath-20">
      <circle class="cls-47" cx="250" cy="252.8" r="248"/>
    </clipPath>
    <clipPath id="clippath-21">
      <circle class="cls-47" cx="250" cy="252.8" r="248"/>
    </clipPath>
    <clipPath id="clippath-22">
      <circle class="cls-47" cx="250" cy="252.8" r="248"/>
    </clipPath>
    <clipPath id="clippath-23">
      <circle class="cls-47" cx="250" cy="252.8" r="248"/>
    </clipPath>
    <clipPath id="clippath-24">
      <circle class="cls-47" cx="250" cy="252.8" r="248"/>
    </clipPath>
    <clipPath id="clippath-25">
      <circle class="cls-47" cx="250" cy="252.8" r="248"/>
    </clipPath>
    <clipPath id="clippath-26">
      <circle class="cls-47" cx="250" cy="252.8" r="248"/>
    </clipPath>
    <clipPath id="clippath-27">
      <circle class="cls-47" cx="250" cy="252.8" r="248"/>
    </clipPath>
    <clipPath id="clippath-28">
      <circle class="cls-47" cx="250" cy="252.8" r="248"/>
    </clipPath>
    <clipPath id="clippath-29">
      <circle class="cls-47" cx="250" cy="252.8" r="248"/>
    </clipPath>
    <clipPath id="clippath-30">
      <circle class="cls-47" cx="250" cy="252.8" r="248"/>
    </clipPath>
    <clipPath id="clippath-31">
      <circle class="cls-47" cx="250" cy="252.8" r="248"/>
    </clipPath>
    <clipPath id="clippath-32">
      <circle class="cls-47" cx="250" cy="252.8" r="248"/>
    </clipPath>
    <clipPath id="clippath-33">
      <circle class="cls-47" cx="250" cy="252.8" r="248"/>
    </clipPath>
    <clipPath id="clippath-34">
      <circle class="cls-47" cx="250" cy="252.8" r="248"/>
    </clipPath>
    <clipPath id="clippath-35">
      <circle class="cls-47" cx="250" cy="252.8" r="248"/>
    </clipPath>
    <clipPath id="clippath-36">
      <circle class="cls-47" cx="250" cy="252.8" r="248"/>
    </clipPath>
    <clipPath id="clippath-37">
      <circle class="cls-47" cx="250" cy="252.8" r="248"/>
    </clipPath>
    <clipPath id="clippath-38">
      <circle class="cls-47" cx="250" cy="252.8" r="248"/>
    </clipPath>
    <clipPath id="clippath-39">
      <circle class="cls-47" cx="250" cy="252.8" r="248"/>
    </clipPath>
    <clipPath id="clippath-40">
      <circle class="cls-47" cx="250" cy="252.8" r="248"/>
    </clipPath>
    <clipPath id="clippath-41">
      <circle class="cls-47" cx="250" cy="252.8" r="248"/>
    </clipPath>
    <clipPath id="clippath-42">
      <circle class="cls-47" cx="250" cy="252.8" r="248"/>
    </clipPath>
    <clipPath id="clippath-43">
      <circle class="cls-47" cx="250" cy="252.8" r="248"/>
    </clipPath>
    <clipPath id="clippath-44">
      <circle class="cls-47" cx="250" cy="252.8" r="248"/>
    </clipPath>
    <clipPath id="clippath-45">
      <circle class="cls-47" cx="250" cy="252.8" r="248"/>
    </clipPath>
    <clipPath id="clippath-46">
      <circle class="cls-47" cx="250" cy="252.8" r="248"/>
    </clipPath>
    <clipPath id="clippath-47">
      <circle class="cls-47" cx="250" cy="252.8" r="248"/>
    </clipPath>
    <clipPath id="clippath-48">
      <circle class="cls-47" cx="250" cy="252.8" r="248"/>
    </clipPath>
    <clipPath id="clippath-49">
      <circle class="cls-47" cx="250" cy="252.8" r="248"/>
    </clipPath>
    <clipPath id="clippath-50">
      <circle class="cls-47" cx="250" cy="252.8" r="248"/>
    </clipPath>
    <clipPath id="clippath-51">
      <circle class="cls-47" cx="250" cy="252.8" r="248"/>
    </clipPath>
    <clipPath id="clippath-52">
      <circle class="cls-47" cx="250" cy="252.8" r="248"/>
    </clipPath>
    <clipPath id="clippath-53">
      <circle class="cls-47" cx="250" cy="252.8" r="248"/>
    </clipPath>
    <clipPath id="clippath-54">
      <circle class="cls-47" cx="250" cy="252.8" r="248"/>
    </clipPath>
    <clipPath id="clippath-55">
      <circle class="cls-47" cx="250" cy="252.8" r="248"/>
    </clipPath>
    <clipPath id="clippath-56">
      <circle class="cls-47" cx="250" cy="252.8" r="248"/>
    </clipPath>
    <clipPath id="clippath-57">
      <circle class="cls-47" cx="250" cy="252.8" r="248"/>
    </clipPath>
    <clipPath id="clippath-58">
      <circle class="cls-47" cx="250" cy="252.8" r="248"/>
    </clipPath>
    <clipPath id="clippath-59">
      <circle class="cls-47" cx="250" cy="252.8" r="248"/>
    </clipPath>
    <clipPath id="clippath-60">
      <circle class="cls-47" cx="250" cy="252.8" r="248"/>
    </clipPath>
    <clipPath id="clippath-61">
      <circle class="cls-47" cx="250" cy="252.8" r="248"/>
    </clipPath>
    <clipPath id="clippath-62">
      <circle class="cls-47" cx="250" cy="252.8" r="248"/>
    </clipPath>
    <clipPath id="clippath-63">
      <circle class="cls-47" cx="250" cy="252.8" r="248"/>
    </clipPath>
    <clipPath id="clippath-64">
      <circle class="cls-47" cx="250" cy="252.8" r="248"/>
    </clipPath>
    <clipPath id="clippath-65">
      <circle class="cls-47" cx="250" cy="252.8" r="248"/>
    </clipPath>
    <clipPath id="clippath-66">
      <circle class="cls-47" cx="250" cy="252.8" r="248"/>
    </clipPath>
    <clipPath id="clippath-67">
      <circle class="cls-47" cx="250" cy="252.8" r="248"/>
    </clipPath>
    <clipPath id="clippath-68">
      <circle class="cls-47" cx="250" cy="252.8" r="248"/>
    </clipPath>
    <clipPath id="clippath-69">
      <circle class="cls-47" cx="250" cy="252.8" r="248"/>
    </clipPath>
    <clipPath id="clippath-70">
      <circle class="cls-47" cx="250" cy="252.8" r="248"/>
    </clipPath>
    <clipPath id="clippath-71">
      <circle class="cls-47" cx="250" cy="252.8" r="248"/>
    </clipPath>
    <clipPath id="clippath-72">
      <circle class="cls-47" cx="250" cy="252.8" r="248"/>
    </clipPath>
    <clipPath id="clippath-73">
      <circle class="cls-47" cx="250" cy="252.8" r="248"/>
    </clipPath>
    <clipPath id="clippath-74">
      <circle class="cls-47" cx="250" cy="252.8" r="248"/>
    </clipPath>
    <clipPath id="clippath-75">
      <circle class="cls-47" cx="250" cy="252.8" r="248"/>
    </clipPath>
    <clipPath id="clippath-76">
      <circle class="cls-47" cx="250" cy="252.8" r="248"/>
    </clipPath>
    <clipPath id="clippath-77">
      <circle class="cls-47" cx="250" cy="252.8" r="248"/>
    </clipPath>
    <clipPath id="clippath-78">
      <circle class="cls-47" cx="250" cy="252.8" r="248"/>
    </clipPath>
    <clipPath id="clippath-79">
      <circle class="cls-47" cx="250" cy="252.8" r="248"/>
    </clipPath>
    <clipPath id="clippath-80">
      <circle class="cls-47" cx="250" cy="252.8" r="248"/>
    </clipPath>
    <clipPath id="clippath-81">
      <circle class="cls-47" cx="250" cy="252.8" r="248"/>
    </clipPath>
    <clipPath id="clippath-82">
      <circle class="cls-47" cx="250" cy="252.8" r="248"/>
    </clipPath>
    <clipPath id="clippath-83">
      <circle class="cls-47" cx="250" cy="252.8" r="248"/>
    </clipPath>
    <clipPath id="clippath-84">
      <circle class="cls-47" cx="250" cy="252.8" r="248"/>
    </clipPath>
    <clipPath id="clippath-85">
      <circle class="cls-47" cx="250" cy="252.8" r="248"/>
    </clipPath>
    <clipPath id="clippath-86">
      <circle class="cls-47" cx="250" cy="252.8" r="248"/>
    </clipPath>
    <clipPath id="clippath-87">
      <circle class="cls-47" cx="250" cy="252.8" r="248"/>
    </clipPath>
    <clipPath id="clippath-88">
      <circle class="cls-47" cx="250" cy="252.8" r="248"/>
    </clipPath>
    <clipPath id="clippath-89">
      <circle class="cls-47" cx="288.92" cy="248.06" r="247.99" transform="translate(-90.78 276.96) rotate(-45)"/>
    </clipPath>
    <clipPath id="clippath-90">
      <circle class="cls-47" cx="250" cy="252.8" r="248"/>
    </clipPath>
    <clipPath id="clippath-91">
      <circle class="cls-47" cx="250" cy="252.8" r="248"/>
    </clipPath>
    <clipPath id="clippath-92">
      <circle class="cls-47" cx="250" cy="252.8" r="248"/>
    </clipPath>
    <clipPath id="clippath-93">
      <circle class="cls-47" cx="250" cy="252.8" r="248"/>
    </clipPath>
    <clipPath id="clippath-94">
      <circle class="cls-47" cx="250" cy="252.8" r="248"/>
    </clipPath>
    <clipPath id="clippath-95">
      <circle class="cls-47" cx="250" cy="252.8" r="248"/>
    </clipPath>
    <clipPath id="clippath-96">
      <circle class="cls-47" cx="250" cy="252.8" r="248"/>
    </clipPath>
    <clipPath id="clippath-97">
      <circle class="cls-47" cx="250" cy="252.8" r="248"/>
    </clipPath>
    <clipPath id="clippath-98">
      <circle class="cls-47" cx="250" cy="252.8" r="248"/>
    </clipPath>
    <clipPath id="clippath-99">
      <circle class="cls-47" cx="250" cy="252.8" r="248"/>
    </clipPath>
    <clipPath id="clippath-100">
      <circle class="cls-47" cx="250" cy="252.8" r="248"/>
    </clipPath>
    <clipPath id="clippath-101">
      <circle class="cls-47" cx="250" cy="252.8" r="248"/>
    </clipPath>
    <clipPath id="clippath-102">
      <circle class="cls-47" cx="250" cy="252.8" r="248"/>
    </clipPath>
    <clipPath id="clippath-103">
      <circle class="cls-47" cx="250" cy="252.8" r="248"/>
    </clipPath>
    <clipPath id="clippath-104">
      <circle class="cls-47" cx="250" cy="252.8" r="248"/>
    </clipPath>
    <clipPath id="clippath-105">
      <circle class="cls-47" cx="250" cy="252.8" r="248"/>
    </clipPath>
    <clipPath id="clippath-106">
      <circle class="cls-47" cx="250" cy="252.8" r="248"/>
    </clipPath>
    <clipPath id="clippath-107">
      <circle class="cls-47" cx="250" cy="252.8" r="248"/>
    </clipPath>
    <clipPath id="clippath-108">
      <circle class="cls-47" cx="250" cy="252.8" r="248"/>
    </clipPath>
  </defs>
  <circle id="WeisserHintergrund" class="cls-36" cx="250" cy="252.8" r="250"/>
  <g>
    <g class="cls-106">
      <path class="cls-3" d="M-.57,406.81c-.32,0-.62-.21-.72-.54-.12-.4.11-.81.51-.93l500.64-144.77c.4-.11.81.11.93.51.11.4-.11.81-.51.93L-.36,406.78c-.07.02-.14.03-.21.03Z"/>
    </g>
    <g class="cls-57">
      <path class="cls-24" d="M296.43,157.58l142.87-42.25c.45,10.46.91,10.8.91,11.27v272.98l-143.78,41.54V157.58Z"/>
    </g>
    <g class="cls-96">
      <path class="cls-3" d="M45.66,91.62c-.33,0-.62-.21-.72-.54-.12-.4.12-.81.51-.93L330.42,7.82c.4-.11.81.11.93.51.11.4-.11.81-.51.93L45.87,91.59c-.07.02-.14.03-.21.03Z"/>
    </g>
    <g class="cls-75">
      <path class="cls-3" d="M.09,88.18c-.32,0-.62-.21-.72-.54-.12-.4.12-.81.51-.93L292.83,2.08c.4-.11.81.12.93.51.11.4-.11.81-.51.93L.29,88.15c-.07.02-.14.03-.21.03Z"/>
    </g>
    <g class="cls-21">
      <path class="cls-24" d="M440.35,398.96V120.65c0-2.66-1.29-5.16-3.47-6.69l-108.17-76.31c-4.11-2.9-9.79.04-9.79,5.07v266.33c0,2.66,1.29,5.16,3.47,6.69l117.96,83.22Z"/>
    </g>
    <g class="cls-67">
      <path class="cls-3" d="M319.35,314.33c-.41,0-.75-.34-.75-.75v-179.67c0-.41.34-.75.75-.75s.75.34.75.75v179.67c0,.41-.34.75-.75.75Z"/>
    </g>
    <g class="cls-8">
      <path class="cls-3" d="M296.43,441.65c-.33,0-.62-.21-.72-.54-.11-.4.11-.81.51-.93l142.35-41.12c.4-.12.81.11.93.51.11.4-.11.81-.51.93l-142.35,41.12c-.07.02-.14.03-.21.03Z"/>
    </g>
    <g class="cls-9">
      <path class="cls-3" d="M298.86,431.28c-.15,0-.3-.05-.43-.14l-102.65-72.52c-.24-.17-.35-.45-.31-.74.05-.29.26-.52.53-.6l114.96-33.02c3.61-1.04,7.45-.39,10.52,1.78l98.11,69.32c.24.17.36.45.31.74-.05.29-.26.52-.53.6l-120.3,34.55c-.07.02-.14.03-.21.03ZM197.91,358.29l101.08,71.42,118.45-34.02-96.84-68.42c-2.7-1.91-6.07-2.48-9.24-1.57l-113.46,32.59Z"/>
    </g>
    <g class="cls-70">
      <path class="cls-3" d="M440.78,399.99c-.15,0-.3-.04-.43-.14l-121.43-85.66c-.34-.24-.42-.71-.18-1.05.24-.34.71-.42,1.05-.18l121.43,85.66c.34.24.42.71.18,1.05-.15.21-.38.32-.61.32Z"/>
    </g>
    <g class="cls-30">
      <path class="cls-3" d="M309.49,356.27c-.15,0-.31-.05-.43-.14l-16.2-11.49c-.23-.17-.35-.45-.3-.74s.26-.52.53-.6l20.17-5.79c.22-.06.45-.02.64.11l16.2,11.49c.23.17.35.45.3.74s-.26.52-.53.6l-20.17,5.79c-.07.02-.14.03-.21.03ZM294.99,344.32l14.64,10.38,18.33-5.27-14.64-10.38-18.33,5.27Z"/>
    </g>
    <g class="cls-33">
      <path class="cls-3" d="M416.46,397.57c-.12,0-.24-.03-.35-.09l-81.88-43c-.37-.19-.51-.65-.32-1.01.19-.37.65-.51,1.01-.32l81.88,43c.37.19.51.65.32,1.01-.13.25-.4.4-.67.4Z"/>
    </g>
    <g class="cls-44">
      <path class="cls-3" d="M298.42,430.06s-.07,0-.11,0c-.41-.06-.7-.44-.64-.85l9.45-66.61c.06-.41.44-.69.85-.64.41.06.7.44.64.85l-9.45,66.61c-.05.37-.37.64-.74.64Z"/>
    </g>
    <g class="cls-78">
      <path class="cls-3" d="M199.52,361.11c-.36,0-.68-.26-.74-.63-.07-.41.21-.8.62-.86l81.41-13.49c.41-.07.8.21.86.62.07.41-.21.8-.62.86l-81.41,13.49s-.08.01-.12.01Z"/>
    </g>
    <g class="cls-101">
      <path class="cls-36" d="M72.93,192.77c-2.19,2.54-2.96,13.54.23,33.32,2.26,14.01,1.67,34.93,1.8,37.59.13,2.66,9.24,1.16,9.24,1.16l-.17-74.83s-9.96,1.44-11.1,2.76Z"/>
    </g>
    <g class="cls-80">
      <path class="cls-3" d="M79.31,266.02c-1.75,0-3.49-.22-4.38-.94-.44-.36-.69-.83-.72-1.36-.03-.53-.02-1.69-.02-3.45.01-6.83.04-22.82-1.77-34.06-2.85-17.66-2.87-30.66-.06-33.93h0c1.23-1.42,9.16-2.67,11.56-3.02.21-.03.43.03.6.18s.26.35.26.57l.17,74.83c0,.37-.27.68-.63.74-.67.11-2.85.44-5.01.44ZM73.5,193.26c-1.53,1.77-3.16,10.66.4,32.71,1.83,11.36,1.8,27.43,1.79,34.3,0,1.67,0,2.88.02,3.37,0,.08.03.16.16.27,1.06.86,4.96.65,7.58.29l-.17-73.32c-4.41.68-9.19,1.74-9.78,2.38Z"/>
    </g>
    <g class="cls-15">
      <path class="cls-3" d="M95.72,339.12c-.32,0-.62-.21-.72-.54-.12-.4.11-.81.51-.93l21.41-6.24c.74-.39,1.1-1.47.9-2.72-.3-1.88-1.76-3.58-3.17-3.71-.24-.02-.47,0-.67.08l-21.43,6.25c-.4.11-.81-.11-.93-.51-.12-.4.11-.81.51-.93l21.38-6.23c.37-.13.82-.19,1.28-.14,2.11.2,4.1,2.38,4.51,4.97.32,1.98-.38,3.68-1.79,4.34-.04.02-.07.03-.11.04l-21.48,6.26c-.07.02-.14.03-.21.03Z"/>
    </g>
    <g class="cls-95">
      <path class="cls-3" d="M95.03,339.29c-.15,0-.3-.01-.45-.04-1.82-.32-3.64-2.53-4.16-5.04h0c-.32-1.58-.06-2.95.72-3.75.54-.55,1.27-.78,2.07-.64,1.82.32,3.64,2.53,4.16,5.04.32,1.58.06,2.95-.72,3.75-.43.45-1,.68-1.62.68ZM92.77,331.27c-.22,0-.4.08-.54.23-.33.34-.58,1.14-.33,2.41h0c.42,2.05,1.89,3.68,2.94,3.86.31.05.55-.02.74-.21.33-.34.58-1.14.33-2.4-.42-2.05-1.89-3.68-2.94-3.86-.07-.01-.13-.02-.19-.02Z"/>
    </g>
    <g class="cls-10">
      <polygon class="cls-36" points="120.73 324.3 89.11 333.59 89.11 327.67 119.92 318.21 120.73 324.3"/>
    </g>
    <g class="cls-19">
      <path class="cls-3" d="M145.08,317.19c-.32,0-.62-.21-.72-.54-.12-.4.11-.81.51-.93,1.56-.46,2.61-1.88,2.61-3.54V93.94l-6.56-.38v215.62c0,.41-.34.75-.75.75s-.75-.34-.75-.75V92.76c0-.21.09-.4.24-.54.15-.14.35-.22.56-.2l8.06.46c.4.02.71.35.71.75v218.96c0,2.33-1.48,4.33-3.69,4.97-.07.02-.14.03-.21.03Z"/>
    </g>
    <ellipse class="cls-36" cx="144.2" cy="92.99" rx="1.61" ry="4.04" transform="translate(41.57 230.49) rotate(-86.08)"/>
    <g class="cls-84">
      <path class="cls-3" d="M144.78,95.38c-.21,0-.41,0-.62-.02-2.28-.13-4.74-1-4.74-2.6,0-.29.09-.72.52-1.13.77-.73,2.42-1.11,4.3-1,2.28.13,4.74,1,4.74,2.6,0,.29-.09.72-.52,1.13-.68.64-2.06,1.02-3.68,1.02ZM143.61,92.11c-1.67,0-2.6.47-2.69.68.08.21,1.21.95,3.33,1.07,1.95.11,3.07-.4,3.23-.64-.13-.28-1.26-.97-3.31-1.09-.19-.01-.38-.02-.55-.02ZM147.48,93.24h0Z"/>
    </g>
    <g class="cls-68">
      <path class="cls-36" d="M60.93,320.08l84.19-24.79c.83-.24,1.02-1.14.4-2.25-.76-1.35-2.43-2.51-3.74-2.58-.25-.01-.46.01-.64.07l-80.2,23.57"/>
    </g>
    <g class="cls-7">
      <path class="cls-3" d="M60.93,320.83c-.32,0-.62-.21-.72-.54-.12-.4.11-.81.51-.93l84.19-24.79c.16-.05.18-.11.2-.15.06-.15.04-.52-.24-1.02-.63-1.13-2.07-2.14-3.13-2.2-.15,0-.27,0-.37.04l-80.22,23.58c-.39.12-.81-.11-.93-.51-.12-.4.11-.81.51-.93l80.2-23.58c.26-.08.57-.12.9-.1,1.56.09,3.47,1.39,4.35,2.96.48.85.59,1.67.32,2.32-.21.5-.62.86-1.17,1.02l-84.18,24.78c-.07.02-.14.03-.21.03Z"/>
    </g>
    <g class="cls-23">
      <path class="cls-3" d="M145.3,295.69l-83.66,24.58c-.1.03-.19.03-.28.03-.35-.02-.68-.26-.81-.61-.15-.45.08-.93.52-1.05l83.46-24.52.03-.02c.09-.03.19-.07.33-.12.39-.14.23-.77.23-.77l.46.79c.18.32.25.68.15,1.02-.08.3-.22.61-.44.68Z"/>
    </g>
    <g class="cls-26">
      <path class="cls-36" d="M60.93,306.45l84.19-24.79c.83-.24,1.02-1.14.4-2.25-.76-1.35-2.43-2.51-3.74-2.58-.25-.01-.46.01-.64.07l-80.2,23.58"/>
    </g>
    <g class="cls-104">
      <path class="cls-3" d="M60.93,307.2c-.32,0-.62-.21-.72-.54-.12-.4.11-.81.51-.93l84.19-24.79c.16-.05.18-.11.2-.15.06-.15.04-.52-.24-1.02-.63-1.13-2.07-2.14-3.13-2.2-.15,0-.27,0-.37.04l-80.22,23.58c-.39.12-.81-.11-.93-.51-.12-.4.11-.81.51-.93l80.2-23.58c.26-.08.57-.12.9-.1,1.56.09,3.47,1.39,4.35,2.96.48.85.59,1.67.32,2.32-.21.5-.62.86-1.17,1.02l-84.18,24.78c-.07.02-.14.03-.21.03Z"/>
    </g>
    <g class="cls-40">
      <path class="cls-3" d="M145.3,282.06l-83.66,24.58c-.1.03-.19.03-.28.03-.35-.02-.68-.26-.81-.61-.15-.45.08-.93.52-1.05l83.46-24.52.03-.02c.09-.03.19-.07.33-.12.39-.14.23-.77.23-.77l.46.79c.18.32.25.68.15,1.02-.08.3-.22.61-.44.68Z"/>
    </g>
    <g class="cls-76">
      <path class="cls-36" d="M60.93,292.83l84.19-24.79c.83-.24,1.02-1.14.4-2.25-.76-1.35-2.43-2.51-3.74-2.58-.25-.01-.46.01-.64.07l-80.2,23.57"/>
    </g>
    <g class="cls-41">
      <path class="cls-3" d="M60.93,293.58c-.32,0-.62-.21-.72-.54-.12-.4.11-.81.51-.93l84.19-24.79c.16-.05.18-.11.2-.15.06-.16.04-.52-.24-1.02-.63-1.13-2.07-2.14-3.13-2.2-.15,0-.27,0-.37.04l-80.22,23.58c-.39.12-.81-.11-.93-.51-.12-.4.11-.81.51-.93l80.2-23.58c.26-.08.57-.12.9-.1,1.56.09,3.47,1.39,4.35,2.96.48.85.59,1.67.32,2.32-.21.5-.62.86-1.17,1.02l-84.18,24.78c-.07.02-.14.03-.21.03Z"/>
    </g>
    <g class="cls-56">
      <path class="cls-3" d="M145.3,268.44l-83.66,24.58c-.1.03-.19.03-.28.03-.35-.02-.68-.26-.81-.61-.15-.45.08-.93.52-1.05l83.46-24.52.03-.02c.09-.03.19-.07.33-.12.39-.14.23-.77.23-.77l.46.79c.18.32.25.68.15,1.02-.08.3-.22.61-.44.68Z"/>
    </g>
    <g class="cls-97">
      <path class="cls-36" d="M60.93,279.2l84.19-24.79c.83-.24,1.02-1.13.4-2.25-.76-1.35-2.43-2.51-3.74-2.58-.25-.01-.46.01-.64.07l-80.2,23.57"/>
    </g>
    <g class="cls-82">
      <path class="cls-3" d="M60.93,279.95c-.32,0-.62-.21-.72-.54-.12-.4.11-.81.51-.93l84.19-24.79c.16-.04.18-.11.2-.15.06-.16.04-.52-.24-1.02-.63-1.13-2.07-2.14-3.13-2.2-.15,0-.27,0-.37.04l-80.22,23.58c-.39.12-.81-.11-.93-.51-.12-.4.11-.81.51-.93l80.2-23.57c.26-.08.56-.12.9-.1,1.56.09,3.47,1.39,4.35,2.96.48.85.59,1.67.32,2.32-.21.5-.62.86-1.17,1.02l-84.18,24.78c-.07.02-.14.03-.21.03Z"/>
    </g>
    <g class="cls-12">
      <path class="cls-3" d="M145.3,254.81l-83.66,24.58c-.1.03-.19.03-.28.03-.35-.02-.68-.26-.81-.61-.15-.45.08-.93.52-1.05l83.46-24.52h.03c.09-.04.19-.08.33-.14.39-.14.23-.77.23-.77l.46.79c.18.32.25.68.15,1.02-.08.3-.22.61-.44.68Z"/>
    </g>
    <g class="cls-88">
      <path class="cls-36" d="M60.93,265.58l84.19-24.79c.83-.24,1.02-1.13.4-2.25-.76-1.35-2.43-2.51-3.74-2.58-.25-.01-.46.01-.64.07l-80.2,23.57"/>
    </g>
    <g class="cls-16">
      <path class="cls-3" d="M60.93,266.33c-.32,0-.62-.21-.72-.54-.12-.4.11-.81.51-.93l84.19-24.79c.16-.04.18-.11.2-.15.06-.16.04-.52-.24-1.02-.63-1.13-2.07-2.14-3.13-2.2-.15,0-.27,0-.37.04l-80.22,23.58c-.39.12-.81-.11-.93-.51-.12-.4.11-.81.51-.93l80.2-23.57c.26-.08.56-.12.9-.1,1.56.09,3.47,1.39,4.35,2.96.48.85.59,1.67.32,2.32-.21.5-.62.86-1.17,1.02l-84.18,24.78c-.07.02-.14.03-.21.03Z"/>
    </g>
    <g class="cls-4">
      <path class="cls-3" d="M145.3,241.19l-83.66,24.58c-.1.03-.19.03-.28.03-.35-.02-.68-.26-.81-.61-.15-.45.08-.93.52-1.05l83.46-24.52h.03c.09-.04.19-.08.33-.14.39-.14.23-.77.23-.77l.46.79c.18.32.25.68.15,1.02-.08.3-.22.61-.44.68Z"/>
    </g>
    <g class="cls-52">
      <path class="cls-36" d="M60.93,245.14l84.19-24.79c.83-.24,1.02-1.13.4-2.25-.76-1.35-2.43-2.51-3.74-2.58-.25-.01-.46.01-.64.07l-80.2,23.57"/>
    </g>
    <g class="cls-50">
      <path class="cls-3" d="M60.93,245.89c-.32,0-.62-.21-.72-.54-.12-.4.11-.81.51-.93l84.19-24.79c.16-.04.18-.11.2-.15.06-.16.04-.52-.24-1.02-.63-1.13-2.07-2.14-3.13-2.2-.15,0-.27,0-.37.04l-80.22,23.58c-.39.12-.81-.11-.93-.51-.12-.4.11-.81.51-.93l80.2-23.57c.26-.08.57-.11.9-.1,1.56.09,3.48,1.39,4.35,2.96.48.85.59,1.67.32,2.32-.21.5-.62.86-1.17,1.02l-84.18,24.78c-.07.02-.14.03-.21.03Z"/>
    </g>
    <g class="cls-99">
      <path class="cls-3" d="M145.3,220.75l-83.66,24.59c-.1.03-.19.03-.28.03-.35-.02-.68-.26-.81-.61-.15-.45.08-.93.52-1.05l83.46-24.52h.03c.09-.04.19-.08.33-.14.39-.14.23-.77.23-.77l.46.79c.18.32.25.68.15,1.02-.08.3-.22.61-.44.67Z"/>
    </g>
    <g class="cls-6">
      <path class="cls-36" d="M60.93,231.52l84.19-24.79c.83-.24,1.02-1.13.4-2.25-.76-1.35-2.43-2.51-3.74-2.58-.25-.01-.46.01-.64.07l-80.2,23.57"/>
    </g>
    <g class="cls-92">
      <path class="cls-3" d="M60.93,232.27c-.32,0-.62-.21-.72-.54-.12-.4.11-.81.51-.93l84.19-24.79c.16-.04.18-.11.2-.15.06-.16.04-.52-.24-1.02-.63-1.13-2.07-2.14-3.13-2.2-.15,0-.27,0-.37.04l-80.22,23.58c-.39.12-.81-.11-.93-.51-.12-.4.11-.81.51-.93l80.2-23.57c.26-.08.57-.12.9-.1,1.56.09,3.47,1.39,4.35,2.96.48.85.59,1.67.32,2.32-.21.5-.62.86-1.17,1.02l-84.18,24.78c-.07.02-.14.03-.21.03Z"/>
    </g>
    <g class="cls-65">
      <path class="cls-3" d="M145.3,207.12l-83.66,24.59c-.1.03-.19.03-.28.03-.35-.02-.68-.26-.81-.61-.15-.45.08-.93.52-1.05l83.46-24.52h.03c.09-.04.19-.08.33-.14.39-.14.23-.77.23-.77l.46.79c.18.32.25.68.15,1.02-.08.3-.22.61-.44.67Z"/>
    </g>
    <g class="cls-72">
      <path class="cls-36" d="M60.93,217.89l84.19-24.79c.83-.24,1.02-1.13.4-2.25-.76-1.35-2.43-2.51-3.74-2.58-.25-.01-.46.01-.64.07l-80.2,23.57"/>
    </g>
    <g class="cls-34">
      <path class="cls-3" d="M60.93,218.64c-.32,0-.62-.21-.72-.54-.12-.4.11-.81.51-.93l84.19-24.79c.16-.04.18-.11.2-.15.06-.16.04-.52-.24-1.02-.63-1.13-2.07-2.14-3.13-2.2-.15,0-.27,0-.37.04l-80.22,23.58c-.39.11-.81-.11-.93-.51-.12-.4.11-.81.51-.93l80.2-23.57c.26-.08.57-.12.9-.1,1.56.09,3.47,1.39,4.35,2.96.48.85.59,1.67.32,2.32-.21.5-.62.86-1.17,1.02l-84.18,24.78c-.07.02-.14.03-.21.03Z"/>
    </g>
    <g class="cls-37">
      <path class="cls-3" d="M145.3,193.5l-83.66,24.59c-.1.03-.19.03-.28.03-.35-.02-.68-.26-.81-.61-.15-.45.08-.93.52-1.05l83.46-24.52h.03c.09-.04.19-.08.33-.14.39-.14.23-.77.23-.77l.46.79c.18.32.25.68.15,1.02-.08.3-.22.61-.44.67Z"/>
    </g>
    <g class="cls-111">
      <path class="cls-36" d="M60.93,204.27l84.19-24.79c.83-.24,1.02-1.13.4-2.25-.76-1.35-2.43-2.51-3.74-2.58-.25-.01-.46.01-.64.07l-80.2,23.57"/>
    </g>
    <g class="cls-61">
      <path class="cls-3" d="M60.93,205.02c-.32,0-.62-.21-.72-.54-.12-.4.11-.81.51-.93l84.19-24.79c.16-.04.18-.11.2-.15.06-.16.04-.52-.24-1.02-.63-1.13-2.07-2.14-3.13-2.2-.15,0-.27,0-.37.04l-80.22,23.58c-.39.11-.81-.11-.93-.51-.12-.4.11-.81.51-.93l80.2-23.57c.26-.08.57-.12.9-.1,1.56.09,3.47,1.39,4.35,2.96.48.85.59,1.67.32,2.32-.21.5-.62.86-1.17,1.02l-84.18,24.78c-.07.02-.14.03-.21.03Z"/>
    </g>
    <g class="cls-64">
      <path class="cls-3" d="M145.3,179.87l-83.66,24.59c-.1.03-.19.03-.28.03-.35-.02-.68-.26-.81-.61-.15-.45.08-.93.52-1.05l83.46-24.52h.03c.09-.04.19-.08.33-.14.39-.14.23-.77.23-.77l.46.79c.18.32.25.68.15,1.02-.08.3-.22.61-.44.67Z"/>
    </g>
    <g class="cls-20">
      <path class="cls-36" d="M60.93,183.83l84.19-24.79c.83-.24,1.02-1.13.4-2.25-.76-1.35-2.43-2.51-3.74-2.58-.25-.01-.46.01-.64.07l-80.2,23.57"/>
    </g>
    <g class="cls-54">
      <path class="cls-3" d="M60.93,184.58c-.32,0-.62-.21-.72-.54-.12-.4.11-.81.51-.93l84.19-24.79c.16-.04.18-.11.2-.15.06-.16.04-.52-.24-1.02-.63-1.13-2.07-2.14-3.13-2.2-.15,0-.27,0-.37.04l-80.22,23.58c-.39.12-.81-.11-.93-.51-.12-.4.11-.81.51-.93l80.2-23.57c.26-.08.57-.12.9-.1,1.56.09,3.47,1.39,4.35,2.96.48.85.59,1.67.32,2.32-.21.5-.62.86-1.17,1.02l-84.18,24.78c-.07.02-.14.03-.21.03Z"/>
    </g>
    <g class="cls-98">
      <path class="cls-3" d="M145.3,159.44l-83.66,24.58c-.1.03-.19.03-.28.03-.35-.02-.68-.26-.81-.61-.15-.45.08-.93.52-1.05l83.46-24.52h.03c.09-.04.19-.08.33-.14.39-.14.23-.77.23-.77l.46.79c.18.32.25.68.15,1.02-.08.3-.22.61-.44.68Z"/>
    </g>
    <g class="cls-79">
      <path class="cls-36" d="M60.93,170.2l84.19-24.79c.83-.24,1.02-1.13.4-2.25-.76-1.35-2.43-2.51-3.74-2.58-.25-.01-.46.01-.64.07l-80.2,23.57"/>
    </g>
    <g class="cls-2">
      <path class="cls-3" d="M60.93,170.95c-.32,0-.62-.21-.72-.54-.12-.4.11-.81.51-.93l84.19-24.79c.16-.04.18-.11.2-.15.06-.15.04-.51-.24-1.02-.63-1.13-2.07-2.14-3.13-2.2-.15,0-.27,0-.37.04l-80.22,23.58c-.39.12-.81-.11-.93-.51-.12-.4.11-.81.51-.93l80.2-23.57c.26-.08.57-.12.9-.1,1.56.09,3.47,1.39,4.35,2.96.48.85.59,1.67.32,2.32-.21.5-.62.86-1.17,1.02l-84.18,24.78c-.07.02-.14.03-.21.03Z"/>
    </g>
    <g class="cls-71">
      <path class="cls-3" d="M145.3,145.81l-83.66,24.58c-.1.03-.19.03-.28.03-.35-.02-.68-.26-.81-.61-.15-.45.08-.93.52-1.05l83.46-24.52h.03c.09-.04.19-.08.33-.14.39-.14.23-.77.23-.77l.46.79c.18.32.25.68.15,1.02-.08.3-.22.61-.44.68Z"/>
    </g>
    <g class="cls-91">
      <path class="cls-36" d="M60.93,156.58l84.19-24.79c.83-.24,1.02-1.14.4-2.25-.76-1.35-2.43-2.5-3.74-2.58-.25-.01-.46.01-.64.07l-80.2,23.57"/>
    </g>
    <g class="cls-28">
      <path class="cls-3" d="M60.93,157.33c-.32,0-.62-.21-.72-.54-.12-.4.11-.81.51-.93l84.19-24.79c.16-.04.18-.11.2-.15.06-.15.04-.51-.24-1.02-.63-1.13-2.07-2.14-3.13-2.2-.15,0-.27,0-.37.04l-80.22,23.58c-.39.12-.81-.11-.93-.51-.12-.4.11-.81.51-.93l80.2-23.57c.26-.08.57-.12.9-.1,1.56.09,3.47,1.39,4.35,2.96.48.85.59,1.67.32,2.32-.21.5-.62.86-1.17,1.02l-84.18,24.78c-.07.02-.14.03-.21.03Z"/>
    </g>
    <g class="cls-89">
      <path class="cls-3" d="M145.3,132.19l-83.66,24.58c-.1.03-.19.03-.28.03-.35-.02-.68-.26-.81-.61-.15-.45.08-.93.52-1.05l83.46-24.52h.03c.09-.04.19-.08.33-.14.39-.14.23-.77.23-.77l.46.79c.18.31.25.69.15,1.02-.08.3-.22.61-.44.68Z"/>
    </g>
    <g class="cls-58">
      <path class="cls-36" d="M60.93,142.95l84.19-24.79c.83-.24,1.02-1.14.4-2.25-.76-1.35-2.43-2.5-3.74-2.58-.25-.01-.46.01-.64.07l-80.2,23.57"/>
    </g>
    <g class="cls-45">
      <path class="cls-3" d="M60.93,143.7c-.32,0-.62-.21-.72-.54-.12-.4.11-.81.51-.93l84.19-24.79c.16-.04.18-.11.2-.15.06-.15.04-.51-.24-1.02-.63-1.13-2.07-2.14-3.13-2.2-.15,0-.27,0-.37.04l-80.22,23.58c-.39.12-.81-.11-.93-.51-.12-.4.11-.81.51-.93l80.2-23.57c.26-.08.57-.12.9-.1,1.56.09,3.47,1.39,4.35,2.96.48.85.59,1.67.32,2.32-.21.5-.62.86-1.17,1.02l-84.18,24.78c-.07.02-.14.03-.21.03Z"/>
    </g>
    <g class="cls-100">
      <path class="cls-3" d="M145.3,118.56l-83.66,24.58c-.1.03-.19.03-.28.03-.35-.02-.68-.26-.81-.61-.15-.45.08-.93.52-1.05l83.46-24.52h.03c.09-.04.19-.08.33-.14.39-.14.23-.77.23-.77l.46.79c.18.32.25.68.15,1.02-.08.3-.22.61-.44.67Z"/>
    </g>
    <g class="cls-35">
      <path class="cls-36" d="M60.93,129.33l84.19-24.79c.83-.24,1.02-1.14.4-2.25-.76-1.35-2.43-2.5-3.74-2.58-.25-.01-.46.01-.64.07l-80.2,23.57"/>
    </g>
    <g class="cls-42">
      <path class="cls-3" d="M60.93,130.08c-.32,0-.62-.21-.72-.54-.12-.4.11-.81.51-.93l84.19-24.79c.16-.04.18-.11.2-.15.06-.15.04-.51-.24-1.02-.63-1.13-2.07-2.14-3.13-2.2-.15,0-.27,0-.37.04l-80.22,23.58c-.39.12-.81-.11-.93-.51-.12-.4.11-.81.51-.93l80.2-23.57c.26-.08.57-.12.9-.1,1.56.09,3.47,1.39,4.35,2.96.48.85.59,1.67.32,2.32-.21.5-.62.86-1.17,1.02l-84.18,24.78c-.07.02-.14.03-.21.03Z"/>
    </g>
    <g class="cls-17">
      <path class="cls-3" d="M145.3,104.94l-83.66,24.58c-.1.03-.19.03-.28.03-.35-.02-.68-.25-.81-.61-.15-.45.08-.93.52-1.05l83.46-24.52h.03c.09-.04.19-.08.33-.14.39-.14.23-.77.23-.77l.46.79c.18.32.25.68.15,1.02-.08.3-.22.61-.44.67Z"/>
    </g>
    <g class="cls-112">
      <polygon class="cls-36" points="60.93 334.63 52.93 334.17 52.93 122.85 60.93 121.61 60.93 334.63"/>
    </g>
    <g class="cls-103">
      <path class="cls-3" d="M56.62,343.07c-.92,0-1.84-.31-2.63-.89-1.13-.85-1.81-2.18-1.81-3.55V118.4c0-.21.08-.4.24-.54.15-.14.36-.22.56-.2l8.06.46c.4.02.71.35.71.75v212.57l78.22-22.96c.4-.12.81.11.93.51s-.11.81-.51.93l-79.18,23.25c-.23.07-.47.02-.66-.12-.19-.14-.3-.36-.3-.6V119.57l-6.56-.38v219.43c0,.92.44,1.78,1.21,2.35.74.56,1.65.73,2.5.48l87.48-25.73c.4-.11.81.11.93.51.12.4-.11.81-.51.93l-87.48,25.73c-.39.12-.79.17-1.19.17Z"/>
    </g>
    <ellipse class="cls-36" cx="56.96" cy="118.62" rx="1.61" ry="4.04" transform="translate(-65.28 167.34) rotate(-86.08)"/>
    <g class="cls-38">
      <path class="cls-3" d="M57.54,121.01c-.2,0-.41,0-.62-.02-2.28-.13-4.74-1-4.74-2.6,0-.29.09-.72.52-1.13.77-.73,2.42-1.11,4.3-1,2.28.13,4.74,1,4.74,2.6,0,.29-.09.72-.52,1.13-.69.64-2.06,1.02-3.68,1.02ZM56.37,117.75c-1.67,0-2.6.47-2.69.68.08.21,1.21.95,3.33,1.07,1.95.11,3.07-.4,3.23-.64-.13-.28-1.26-.97-3.31-1.09-.19-.01-.38-.02-.55-.02ZM60.24,118.88h0,0Z"/>
    </g>
    <g class="cls-110">
      <path class="cls-36" d="M93.46,187.29s6.98-1.95,9.1-2.78c3.23-1.25,4.56-1.5,5.97-.37,3.61,2.9,1.43,8.32,3.04,26.83s4.64,34.49,5.32,43.28-.74,13.07-.74,13.07c0,0-6.33,1.07-10.04,3.8-3.71,2.73-12.85-46.99-12.85-46.99l.2-36.85Z"/>
    </g>
    <g class="cls-29">
      <path class="cls-3" d="M105.8,271.99c-.16,0-.32-.03-.49-.1-4.15-1.65-11.39-39.96-12.79-47.62,0-.05-.01-.09-.01-.14l.2-36.85c0-.34.22-.63.55-.72.07-.02,6.97-1.95,9.03-2.75,3.22-1.25,4.94-1.68,6.71-.25,2.5,2.01,2.53,4.91,2.6,11.26.04,3.8.1,9,.71,16.09.92,10.57,2.32,20.45,3.44,28.38.85,5.97,1.58,11.12,1.87,14.9.68,8.83-.71,13.19-.77,13.37-.09.26-.31.46-.59.51-.06.01-6.2,1.07-9.72,3.66-.23.17-.49.26-.75.26ZM94.01,224.07c4,21.74,9.44,44.78,11.76,46.37,3.26-2.34,8.22-3.46,9.78-3.76.31-1.26,1.13-5.38.59-12.37-.29-3.73-1.02-8.87-1.86-14.81-1.13-7.95-2.54-17.85-3.46-28.46-.62-7.15-.68-12.38-.72-16.21-.07-6.04-.09-8.54-2.04-10.11-1.06-.85-1.99-.77-5.23.48-1.81.7-6.93,2.16-8.62,2.65l-.2,36.21Z"/>
    </g>
    <g class="cls-73">
      <path class="cls-36" d="M72.55,193.8c0-1.01.93-1.92,3.33-2.54,4.27-1.1,12.4-4.04,14.18-4.48,1.94-.48,5.65-.6,6.41,8.86.76,9.46-1.86,32.57,1.69,47.49,3.54,14.92,10.29,33.05,10.55,39.46,0,0-6.6,6.28-17.63,4.95-5.4-.65-7.59-1.11-11.98-.27,0,0,1.86-23.78,1.69-29.76-.17-5.98-1.86-32.9-1.52-45.58.34-12.68-2.03-17.61-4.72-17.34-1.41.14-1.98.05-1.98-.79Z"/>
    </g>
    <g class="cls-108">
      <path class="cls-3" d="M94.14,288.48c-1.01,0-2.06-.06-3.16-.19l-1.82-.22c-4.12-.51-6.19-.77-9.93-.05-.23.04-.47-.02-.64-.18-.17-.16-.27-.38-.25-.62.02-.24,1.85-23.8,1.69-29.68-.04-1.59-.2-4.68-.39-8.58-.55-11.04-1.38-27.72-1.13-37.04.32-11.96-1.79-15.25-2.71-16.1-.39-.36-.77-.51-1.19-.47-.96.09-1.8.13-2.35-.36-.31-.28-.46-.67-.46-1.17h0c0-1.5,1.31-2.6,3.9-3.27,2.5-.64,6.35-1.93,9.45-2.97,2.22-.74,3.97-1.33,4.73-1.51,1.58-.39,2.89-.19,4,.61,1.87,1.35,2.96,4.27,3.34,8.92.26,3.22.13,7.95-.01,13.42-.29,10.76-.65,24.14,1.68,33.95,1.52,6.41,3.68,13.54,5.58,19.84,2.6,8.6,4.84,16.03,4.99,19.77,0,.22-.08.42-.23.57-.25.24-5.74,5.35-15.08,5.35ZM83.51,286.07c1.78,0,3.52.22,5.84.51l1.81.22c9.36,1.12,15.49-3.46,16.78-4.54-.26-3.67-2.42-10.81-4.91-19.04-1.91-6.32-4.07-13.47-5.6-19.92-2.38-10-2.01-23.49-1.72-34.33.14-5.43.27-10.12.02-13.26-.33-4.07-1.27-6.77-2.72-7.82-.74-.54-1.62-.65-2.77-.37-.7.17-2.51.78-4.61,1.48-3.12,1.04-7.01,2.34-9.56,3-1.04.27-2.77.85-2.77,1.81,0,.03,0,.05,0,.07.12.03.43.05,1.16-.02.85-.08,1.66.22,2.36.87,2.33,2.17,3.43,8.13,3.19,17.24-.25,9.27.58,25.91,1.13,36.93.19,3.92.35,7.01.39,8.62.15,5.34-1.26,24.3-1.61,28.87,1.32-.21,2.47-.3,3.6-.3ZM73.31,193.93h0Z"/>
    </g>
    <g class="cls-113">
      <path class="cls-36" d="M85.33,228.94c-.76,8.03.25,18.87,2.03,25.41,1.77,6.54,3.97,15.05,3.38,25.49"/>
    </g>
    <g class="cls-32">
      <path class="cls-3" d="M90.73,280.58s-.03,0-.04,0c-.41-.02-.73-.38-.71-.79.6-10.66-1.78-19.44-3.35-25.25-1.89-6.98-2.77-18.02-2.05-25.68.04-.41.4-.72.82-.68.41.04.71.4.68.82-.71,7.5.15,18.31,2,25.14,1.6,5.9,4.02,14.82,3.4,25.73-.02.4-.35.71-.75.71Z"/>
    </g>
    <g class="cls-22">
      <path class="cls-3" d="M440.78,401.69c-.83,0-1.5-.67-1.5-1.5V120.08c0-1.88-.92-3.65-2.45-4.74l-110.86-78.21c-1.01-.71-2.27-.8-3.36-.23s-1.75,1.65-1.75,2.88v111.5c0,.83-.67,1.5-1.5,1.5s-1.5-.67-1.5-1.5V39.79c0-2.34,1.29-4.47,3.37-5.54,2.08-1.08,4.56-.91,6.47.44l110.86,78.21c2.33,1.65,3.73,4.33,3.73,7.19v280.1c0,.83-.67,1.5-1.5,1.5Z"/>
    </g>
    <g class="cls-86">
      <polyline class="cls-36" points="257.28 68.68 253.76 69.65 253.76 78.64 257.15 81.04"/>
    </g>
    <g class="cls-90">
      <path class="cls-3" d="M257.15,81.78c-.15,0-.3-.04-.43-.14l-3.39-2.39c-.2-.14-.32-.37-.32-.61v-8.99c0-.34.23-.63.55-.72l3.52-.97c.4-.11.81.12.92.52.11.4-.12.81-.52.92l-2.97.82v8.03l3.07,2.17c.34.24.42.71.18,1.04-.15.21-.38.32-.61.32Z"/>
    </g>
    <g class="cls-74">
      <path class="cls-3" d="M257.15,72.8c-.15,0-.3-.04-.43-.14l-3.39-2.39c-.34-.24-.42-.71-.18-1.04s.71-.42,1.04-.18l3.39,2.39c.34.24.42.71.18,1.04-.14.21-.38.32-.61.32Z"/>
    </g>
    <g class="cls-14">
      <polyline class="cls-36" points="257.28 224.85 253.76 225.82 253.76 234.81 257.15 237.2"/>
    </g>
    <g class="cls-1">
      <path class="cls-3" d="M257.15,237.95c-.15,0-.3-.04-.43-.14l-3.39-2.39c-.2-.14-.32-.37-.32-.61v-8.99c0-.34.23-.63.55-.72l3.52-.97c.4-.11.81.12.92.52.11.4-.12.81-.52.92l-2.97.82v8.03l3.07,2.17c.34.24.42.71.18,1.04-.15.21-.38.32-.61.32Z"/>
    </g>
    <g class="cls-83">
      <path class="cls-3" d="M257.15,228.96c-.15,0-.3-.04-.43-.14l-3.39-2.39c-.34-.24-.42-.71-.18-1.04.24-.34.71-.42,1.04-.18l3.39,2.39c.34.24.42.71.18,1.04-.14.21-.38.32-.61.32Z"/>
    </g>
    <g class="cls-85">
      <path class="cls-36" d="M257.28,61.8c0-1.16.94-2.1,2.1-2.1s2.1.94,2.1,2.1v183.13c0,.42-.94.75-2.1.75s-2.1-.34-2.1-.75V61.8Z"/>
    </g>
    <g class="cls-13">
      <path class="cls-3" d="M259.38,246.44c-1.32,0-2.85-.39-2.85-1.5V61.8c0-1.57,1.28-2.85,2.85-2.85s2.85,1.28,2.85,2.85v183.13c0,1.11-1.54,1.5-2.85,1.5ZM258.03,244.71c.21.1.7.22,1.35.22s1.14-.12,1.35-.22V61.8c0-.74-.61-1.35-1.35-1.35s-1.35.61-1.35,1.35v182.91Z"/>
    </g>
    <g class="cls-11">
      <path class="cls-3" d="M244.67,315.87c-4.75,0-8.85-1.73-12.17-5.16-10.94-11.26-10.15-38.45-9.9-47.39.03-.9.05-1.6.05-2.05,0-1.66,1.34-3,3-3s3,1.34,3,3c0,.49-.02,1.25-.05,2.23-.64,22.29,2.12,36.77,8.2,43.03,2.18,2.25,4.76,3.34,7.87,3.34,4.29,0,7.72-1.41,10.5-4.32,4.28-4.48,9.15-14.9,8.05-39.1-.21-4.52-.45-9.56-.71-14.96-1.77-36.71-4.45-92.19-1.47-114.48.22-1.64,1.73-2.8,3.37-2.58,1.64.22,2.8,1.73,2.58,3.37-2.9,21.76-.24,76.91,1.52,113.4.26,5.41.5,10.45.71,14.98.96,21.13-2.3,35.77-9.7,43.51-3.92,4.1-8.91,6.18-14.84,6.18Z"/>
    </g>
    <g class="cls-93">
      <path class="cls-36" d="M244.67,314.37c-4.33,0-8.06-1.58-11.1-4.7-10.49-10.8-9.73-37.52-9.47-46.3.03-.92.05-1.63.05-2.1,0-.83.67-1.5,1.5-1.5s1.5.67,1.5,1.5c0,.48-.02,1.22-.05,2.18-.24,8.47-.99,34.23,8.63,44.12,2.48,2.55,5.41,3.79,8.94,3.79,4.72,0,8.51-1.57,11.58-4.79,6.43-6.73,9.35-20.63,8.46-40.2-.21-4.52-.45-9.56-.71-14.97-1.77-36.66-4.44-92.05-1.49-114.21.11-.82.86-1.4,1.68-1.29.82.11,1.4.86,1.29,1.68-2.92,21.89-.25,77.12,1.51,113.67.26,5.41.5,10.45.71,14.98.94,20.7-2.18,34.97-9.29,42.41-3.62,3.79-8.25,5.71-13.75,5.71Z"/>
    </g>
    <g class="cls-27">
      <path class="cls-36" d="M221.44,251.82v9.42c0,.83,1.88,1.51,4.2,1.51s4.2-.67,4.2-1.51v-12.07"/>
    </g>
    <g class="cls-109">
      <path class="cls-3" d="M225.65,263.5c-2.39,0-4.95-.71-4.95-2.26v-9.42c0-.41.34-.75.75-.75s.75.34.75.75v9.42c.12.17,1.3.76,3.45.76s3.34-.58,3.47-.83v-12c-.01-.41.32-.75.74-.75s.75.34.75.75v12.06c0,1.55-2.57,2.26-4.95,2.26Z"/>
    </g>
    <g class="cls-87">
      <path class="cls-36" d="M203.39,245.25l37.54-10.64c.8-.33,1.78-.2,2.83.49,2.6,1.68,4.63,6.09,4.54,9.83-.06,2.28-.89,3.79-2.12,4.24l-37.71,10.84"/>
    </g>
    <g class="cls-48">
      <path class="cls-3" d="M208.46,260.76c-.33,0-.63-.21-.72-.54-.12-.4.12-.81.51-.93l37.71-10.84c.92-.34,1.53-1.67,1.58-3.54.09-3.45-1.84-7.65-4.2-9.18-.56-.36-1.38-.73-2.14-.42l-37.62,10.66c-.4.11-.81-.12-.93-.52-.11-.4.12-.81.52-.93l37.54-10.64c.98-.41,2.23-.21,3.45.58,2.83,1.84,4.98,6.44,4.88,10.48-.06,2.51-1.04,4.36-2.61,4.93l-37.76,10.86c-.07.02-.14.03-.21.03Z"/>
    </g>
    <ellipse class="cls-36" cx="205.89" cy="252.63" rx="4.22" ry="7.81" transform="translate(-71.96 82.31) rotate(-19.31)"/>
    <g class="cls-102">
      <path class="cls-3" d="M207.7,260.89c-.76,0-1.57-.26-2.37-.79-2.86-1.85-5.02-6.49-4.92-10.57.06-2.32.88-4.07,2.25-4.8,1.12-.59,2.48-.44,3.82.43,2.86,1.85,5.02,6.5,4.92,10.57h0c-.06,2.32-.88,4.07-2.25,4.8-.45.24-.94.36-1.44.36ZM204.11,245.88c-.25,0-.51.05-.75.18-.87.46-1.41,1.77-1.45,3.51-.09,3.54,1.81,7.7,4.24,9.27.61.4,1.5.78,2.3.36.87-.46,1.41-1.77,1.45-3.51h0c.09-3.54-1.81-7.7-4.24-9.27-.42-.27-.98-.54-1.55-.54Z"/>
    </g>
    <g class="cls-107">
      <path class="cls-36" d="M254.35,132.49l17.91-5.07c.38-.16.85-.09,1.35.23,1.24.8,2.21,2.9,2.17,4.69-.03,1.09-.42,1.81-1.01,2.02l-17.99,5.17"/>
    </g>
    <g class="cls-46">
      <path class="cls-3" d="M256.77,140.28c-.33,0-.63-.21-.72-.54-.12-.4.11-.81.51-.93l17.99-5.17c.19-.07.45-.52.47-1.32.04-1.53-.8-3.38-1.82-4.04-.15-.1-.45-.25-.66-.17l-17.99,5.1c-.4.11-.81-.12-.93-.52-.11-.4.12-.81.52-.93l17.91-5.07c.55-.23,1.27-.12,1.96.32,1.45.94,2.56,3.29,2.51,5.34-.03,1.37-.6,2.38-1.51,2.71l-18.04,5.19c-.07.02-.14.03-.21.03Z"/>
    </g>
    <g class="cls-63">
      <ellipse class="cls-36" cx="255.54" cy="136.01" rx="2.01" ry="3.72" transform="translate(-30.6 92.16) rotate(-19.31)"/>
    </g>
    <g class="cls-60">
      <path class="cls-3" d="M256.41,140.34c-.44,0-.9-.15-1.35-.44-1.47-.95-2.58-3.32-2.52-5.38.03-1.26.5-2.21,1.28-2.63.67-.35,1.46-.27,2.22.22,1.47.95,2.58,3.32,2.53,5.38h0c-.03,1.26-.5,2.21-1.28,2.63-.28.14-.57.22-.87.22ZM254.7,133.18c-.06,0-.12.01-.18.04-.21.11-.46.53-.48,1.34-.04,1.54.8,3.41,1.84,4.09.17.11.48.27.7.15.21-.11.46-.53.48-1.34h0c.04-1.54-.81-3.41-1.84-4.09-.13-.08-.34-.2-.53-.2ZM257.82,137.48h.01-.01Z"/>
    </g>
    <g class="cls-77">
      <path class="cls-36" d="M205.59,248.24l-.43-17.58c-.02-1.01-.53-1.96-1.36-2.54l-.58-.41c-.44-.31-.96-.38-1.42-.27l-3.62,1.02c-.74.14-1.38.75-1.42,1.61l-.9,16.25c-1.11.67-1.85,2.23-1.9,4.47-.1,4.14,2.15,9.01,5.02,10.87,1.07.7,2.08.87,2.93.61h0s0,0,0,0h0l3.72-1.04c1.42-.45,2.38-2.14,2.45-4.73.07-2.81-.94-5.95-2.5-8.27Z"/>
    </g>
    <g class="cls-51">
      <path class="cls-3" d="M201.91,263.03c-.33,0-.63-.22-.72-.55-.11-.4.12-.81.52-.92l3.73-1.05c1.11-.35,1.85-1.9,1.9-4.02.06-2.56-.85-5.56-2.37-7.83-.08-.12-.12-.26-.13-.4l-.43-17.58c-.02-.77-.41-1.5-1.04-1.95l-.58-.41c-.24-.17-.53-.22-.8-.15l-3.6,1.02c-.39.12-.81-.12-.93-.52-.11-.4.12-.81.52-.93l3.62-1.02c.72-.18,1.46-.04,2.05.38l.58.41c1.02.72,1.64,1.89,1.67,3.13l.43,17.36c1.62,2.49,2.57,5.73,2.51,8.52-.07,2.83-1.18,4.86-2.97,5.42l-3.75,1.05c-.07.02-.14.03-.2.03Z"/>
    </g>
    <g class="cls-43">
      <path class="cls-3" d="M201.14,263.15c-.82,0-1.69-.29-2.56-.85-3.11-2.02-5.47-7.08-5.36-11.52.05-2.23.73-3.94,1.92-4.86l.88-15.88c.05-.92.57-1.7,1.4-2.1.82-.4,1.77-.32,2.52.21l.58.41c1.02.72,1.64,1.89,1.67,3.14l.43,17.36c1.62,2.49,2.57,5.74,2.51,8.52-.06,2.52-.95,4.42-2.43,5.2-.48.26-1,.38-1.55.38ZM198.5,229.19c-.15,0-.29.03-.43.1-.33.16-.54.47-.55.83l-.9,16.25c-.01.25-.15.47-.36.6-.93.56-1.49,1.97-1.54,3.85-.1,3.9,2,8.49,4.68,10.23.69.45,1.69.88,2.6.4.97-.51,1.58-1.98,1.63-3.91.06-2.56-.85-5.56-2.37-7.83-.08-.12-.12-.26-.13-.4l-.43-17.58c-.02-.77-.41-1.5-1.04-1.95l-.58-.41c-.17-.12-.37-.18-.57-.18Z"/>
    </g>
    <g class="cls-105">
      <path class="cls-36" d="M309.77,85.95c-1.95-6.9-13.47-9.69-25.74-6.23-12.27,3.46-20.64,11.86-18.7,18.75.55,1.96,1.87,3.58,3.76,4.82,1.88,1.24,2.6,3.67,1.83,5.79l-7.38,20.46c-.51,1.41.28,2.95,1.72,3.36h0c1.08.31,2.24-.11,2.86-1.05l15.73-23.56c1.02-1.52,2.61-2.54,4.4-2.91.93-.19,1.88-.42,2.82-.69,12.27-3.46,20.64-11.86,18.7-18.76Z"/>
    </g>
    <g class="cls-69">
      <path class="cls-3" d="M265.98,133.76c-.31,0-.62-.04-.93-.13-.88-.25-1.63-.87-2.05-1.69-.42-.82-.48-1.78-.17-2.65l7.38-20.46c.66-1.82.01-3.89-1.54-4.91-2.11-1.39-3.48-3.16-4.07-5.25-2.05-7.29,6.57-16.11,19.21-19.68,12.65-3.57,24.61-.54,26.66,6.75h0c1.02,3.61-.48,7.66-4.21,11.4-3.62,3.63-8.95,6.57-15.01,8.28-.95.27-1.92.5-2.87.7-1.64.34-3.04,1.26-3.92,2.59l-15.73,23.56c-.63.94-1.67,1.48-2.76,1.48ZM294.4,78.98c-3.18,0-6.64.47-10.17,1.47-11.85,3.34-20.01,11.34-18.18,17.83.49,1.73,1.65,3.21,3.45,4.4,2.15,1.42,3.03,4.16,2.12,6.67l-7.38,20.46c-.17.48-.14,1,.09,1.46s.63.79,1.13.93c.77.22,1.58-.08,2.03-.74l15.73-23.56c1.11-1.66,2.84-2.81,4.87-3.23.92-.19,1.85-.42,2.77-.68,5.81-1.64,10.91-4.44,14.35-7.9,3.33-3.34,4.69-6.87,3.83-9.93h0c-1.29-4.55-7.15-7.17-14.64-7.17Z"/>
    </g>
    <g class="cls-66">
      <path class="cls-3" d="M281.05,104.44c-5.49,0-9.55-1.67-10.41-4.72-1.31-4.63,5.39-10.44,15.23-13.22,9.85-2.78,18.59-1.32,19.89,3.31.65,2.32-.65,4.98-3.67,7.5-2.86,2.39-6.97,4.42-11.56,5.71-3.38.95-6.62,1.41-9.48,1.41ZM295.39,86.61c-2.75,0-5.9.43-9.11,1.34-8.74,2.46-15.24,7.67-14.2,11.36s9.3,4.74,18.04,2.28c4.4-1.24,8.31-3.17,11.01-5.42,2.5-2.09,3.66-4.26,3.19-5.94-.66-2.34-4.2-3.61-8.93-3.61Z"/>
    </g>
    <g class="cls-81">
      <path class="cls-3" d="M281.04,101.6c-.36,0-.7,0-1.03-.02-.41-.02-.73-.37-.72-.78.02-.41.37-.74.78-.72.52.02,1.09.03,1.66.01.41-.04.76.31.77.73.01.41-.31.76-.73.77-.25,0-.49.01-.74.01ZM284.74,101.34c-.37,0-.69-.27-.74-.65-.06-.41.23-.79.64-.84.32-.04.64-.09.97-.15.4-.07.79.21.86.62.07.41-.21.79-.62.86-.34.06-.68.11-1.01.15-.04,0-.07,0-.1,0ZM277.07,101.19c-.06,0-.12,0-.17-.02-.38-.09-.72-.19-1.03-.3-.39-.14-.6-.56-.46-.95.13-.39.56-.6.95-.46.27.09.56.18.89.25.4.1.65.5.56.9-.08.35-.39.58-.73.58ZM288.66,100.57c-.33,0-.64-.22-.73-.56-.1-.4.14-.81.54-.91.29-.07.58-.15.87-.23.4-.11.85.11.96.51.11.4-.08.8-.48.92l-.08.02c-.3.08-.6.17-.91.24-.06.02-.12.02-.19.02ZM292.48,99.37c-.3,0-.59-.18-.7-.49-.15-.39.05-.82.44-.97.31-.12.61-.24.91-.36.38-.16.82.03.98.41s-.02.82-.41.98c-.31.13-.63.25-.95.38-.09.03-.18.05-.26.05ZM274.06,99.04s-.07,0-.11,0c-.41-.06-.7-.44-.64-.85.05-.37.2-.77.45-1.19.21-.36.67-.48,1.02-.28.36.21.48.67.28,1.02-.18.32-.24.54-.26.66-.05.37-.38.64-.74.64ZM296.12,97.73c-.27,0-.53-.14-.66-.4-.19-.37-.05-.82.31-1.01.29-.15.57-.31.85-.47.36-.21.82-.09,1.02.27.21.36.09.82-.27,1.03-.29.17-.59.34-.9.5-.11.06-.23.09-.35.09ZM276.4,95.88c-.21,0-.42-.09-.57-.26-.27-.31-.23-.79.08-1.06.25-.22.52-.44.82-.65.33-.25.8-.19,1.05.15.25.33.18.8-.15,1.05-.27.2-.51.4-.74.6-.14.12-.31.18-.49.18ZM299.48,95.57c-.22,0-.44-.1-.59-.28-.26-.32-.21-.79.12-1.05l.29-.24c.15-.13.3-.25.43-.38.31-.28.78-.26,1.06.05s.26.78-.05,1.06c-.15.14-.31.28-.48.42l-.32.26c-.14.11-.3.16-.47.16ZM279.69,93.62c-.26,0-.52-.14-.65-.38-.2-.36-.08-.82.29-1.02.29-.16.59-.33.9-.49.37-.19.82-.05,1.01.32.19.37.05.82-.32,1.01-.3.15-.58.31-.86.46-.12.07-.24.1-.37.1ZM302.11,92.6c-.11,0-.21-.02-.32-.07-.38-.18-.54-.62-.36-1,.14-.31.15-.47.15-.52-.06-.41.23-.8.64-.86.41-.06.79.21.85.62.01.07.02.15.02.24,0,.34-.1.73-.29,1.15-.13.27-.4.43-.68.43ZM283.3,91.91c-.3,0-.58-.18-.7-.47-.15-.39.04-.82.42-.97.31-.12.63-.25.95-.36.39-.14.82.06.96.45.14.39-.06.82-.45.96-.31.11-.62.23-.91.35-.09.04-.18.05-.28.05ZM287.1,90.64c-.33,0-.63-.22-.72-.55-.11-.4.12-.81.52-.92.33-.09.66-.18.99-.26.4-.1.81.15.91.55s-.15.81-.55.91c-.32.08-.63.16-.95.25-.07.02-.13.03-.2.03ZM299.94,90.02c-.07,0-.14-.01-.22-.03-.28-.08-.58-.16-.9-.23-.41-.08-.67-.48-.58-.89.08-.4.48-.67.89-.58.37.08.72.16,1.03.26.4.12.62.54.5.93-.1.32-.4.53-.72.53ZM291,89.8c-.36,0-.68-.26-.74-.64-.06-.41.22-.79.63-.86.34-.05.68-.1,1.01-.14.41-.05.79.24.84.65.05.41-.24.79-.65.84-.32.04-.64.08-.97.14-.04,0-.08,0-.12,0ZM295.99,89.45h-.02c-.2,0-.4,0-.61,0h-.36c-.37,0-.76-.32-.76-.74,0-.41.32-.75.74-.76h.38c.22,0,.44,0,.65,0,.41.01.74.36.73.77-.01.41-.34.73-.75.73Z"/>
    </g>
    <g class="cls-53">
      <path class="cls-3" d="M283.64,99.22c-.39,0-.73-.31-.75-.71-.02-.41.29-.77.7-.79.32-.02.64-.04.97-.08.4-.04.78.26.82.67.04.41-.26.78-.67.82-.34.03-.69.06-1.02.08-.02,0-.03,0-.05,0ZM280.64,99.21s-.08,0-.12,0c-.33-.03-.68-.06-1-.11-.41-.06-.7-.43-.64-.85s.43-.7.85-.64c.3.04.61.07.95.1.41.03.73.39.7.8-.03.4-.35.7-.74.7ZM287.59,98.7c-.35,0-.66-.25-.73-.6-.08-.41.18-.8.58-.88.32-.06.63-.13.95-.21.4-.09.81.15.9.56.1.4-.15.81-.56.9-.33.08-.67.15-1,.22-.05.01-.1.01-.15.01ZM291.45,97.66c-.31,0-.61-.2-.71-.51-.13-.39.08-.82.47-.95.3-.1.61-.21.92-.33.39-.14.82.05.97.44.15.39-.05.82-.44.97-.32.12-.65.24-.97.34-.08.03-.16.04-.24.04ZM278.82,97.18c-.23,0-.46-.11-.61-.31-.24-.33-.17-.8.16-1.05.27-.19.55-.39.85-.59.35-.23.81-.13,1.04.22.23.35.13.81-.22,1.04-.28.18-.54.37-.79.55-.14.1-.29.14-.44.14ZM295.1,96.06c-.26,0-.51-.13-.65-.37-.21-.36-.09-.82.27-1.03.27-.16.54-.33.78-.5.34-.24.8-.16,1.05.18.24.34.16.81-.18,1.04-.28.2-.58.39-.9.57-.12.07-.25.1-.38.1ZM282.25,95.14c-.28,0-.54-.15-.67-.42-.18-.37-.03-.82.34-1,.3-.15.61-.29.93-.43.38-.17.82,0,.99.38.17.38,0,.82-.38.99-.3.14-.6.27-.88.41-.11.05-.22.08-.33.08ZM285.94,93.64c-.32,0-.61-.2-.71-.52-.13-.39.09-.82.48-.95.32-.1.64-.21.97-.3.4-.12.81.11.93.51s-.11.81-.51.93c-.32.09-.63.19-.93.29-.08.02-.16.04-.23.04ZM297.87,93.3c-.07,0-.15-.01-.23-.04-.4-.12-.61-.54-.49-.94.02-.08.03-.14.04-.17-.25-.25-.29-.66-.08-.96.24-.34.71-.41,1.05-.17.34.25.53.64.53,1.1,0,.21-.04.43-.11.65-.1.32-.39.53-.71.53ZM297.29,92.24h.01-.01ZM289.8,92.63c-.35,0-.67-.25-.73-.61-.08-.41.19-.8.59-.88.34-.07.67-.12,1.01-.18.41-.07.79.21.86.62.07.41-.21.79-.62.86-.32.05-.64.11-.96.17-.05,0-.1.01-.14.01ZM293.76,92.14c-.4,0-.73-.31-.75-.71-.02-.41.3-.77.71-.79.35-.02.69-.03,1.03-.03h0c.41,0,.75.33.75.75,0,.41-.33.75-.74.75-.32,0-.64.01-.97.03-.01,0-.03,0-.04,0Z"/>
    </g>
    <g class="cls-62">
      <path class="cls-3" d="M283.99,96.81c-.33,0-.64-.22-.73-.56-.02-.06-.02-.13-.02-.19,0-.33.22-.64.56-.72l.48-.13c.4-.11.81.13.92.54.02.06.02.13.02.19,0,.33-.22.64-.56.72l-.48.13c-.06.02-.13.02-.19.02Z"/>
    </g>
    <g class="cls-18">
      <path class="cls-3" d="M287.7,95.83c-.33,0-.64-.22-.73-.56-.11-.4.13-.81.53-.92l1.08-.28c.4-.11.81.13.92.53.11.4-.13.81-.53.92l-1.08.28c-.07.02-.13.03-.19.03Z"/>
    </g>
    <g class="cls-39">
      <path class="cls-3" d="M292.02,94.7c-.33,0-.64-.22-.73-.56-.02-.06-.02-.13-.02-.19,0-.33.22-.64.56-.72l.48-.13c.4-.1.81.14.92.54.02.06.02.13.02.19,0,.33-.22.64-.56.72l-.48.13c-.06.02-.13.02-.19.02Z"/>
    </g>
    <g class="cls-31">
      <path class="cls-3" d="M287.7,95.83c-.33,0-.64-.22-.73-.56-.11-.4.13-.81.53-.92l1.08-.28c.4-.11.81.13.92.53.11.4-.13.81-.53.92l-1.08.28c-.06.02-.13.03-.19.03Z"/>
    </g>
    <g class="cls-25">
      <path class="cls-24" d="M296.43,441.84l-121.43-85.66V81.45c0-3.85,4.34-6.09,7.48-3.88l108.83,76.78c3.21,2.26,5.12,5.95,5.12,9.87v277.62Z"/>
    </g>
    <g class="cls-55">
      <path class="cls-3" d="M296.43,443.34c-.3,0-.61-.09-.86-.27l-121.43-85.66c-.4-.28-.63-.74-.63-1.23V81.45c0-2.34,1.29-4.47,3.37-5.54,2.08-1.08,4.56-.91,6.47.44l110.23,77.77c2.73,1.92,4.35,5.06,4.35,8.4v279.34c0,.56-.31,1.07-.81,1.33-.22.11-.45.17-.69.17ZM176.5,355.4l118.43,83.55V162.51c0-2.36-1.15-4.58-3.08-5.94l-110.24-77.77c-1.01-.71-2.26-.8-3.36-.23-1.1.57-1.75,1.64-1.75,2.88v273.96Z"/>
    </g>
    <g class="cls-49">
      <path class="cls-3" d="M296.43,443.34c-.32,0-.64-.1-.9-.3-.38-.28-.6-.73-.6-1.2V162.1c0-3.12,2.09-5.93,5.09-6.81h0l134.8-39.87c1.64-.48,3.36-.18,4.73.85,1.37,1.02,2.15,2.59,2.15,4.3v279.74c0,.67-.44,1.26-1.08,1.44l-143.78,41.54c-.14.04-.28.06-.42.06ZM300.87,158.16h0c-1.73.51-2.94,2.13-2.94,3.93v277.75l140.78-40.67V120.56c0-.75-.35-1.44-.95-1.89s-1.36-.59-2.09-.37l-134.8,39.87Z"/>
    </g>
    <g class="cls-94">
      <path class="cls-36" d="M307.46,267.46l2.86-.85c1.47-.43,2.94.67,2.94,2.2v33.01c0,1.02-.67,1.92-1.66,2.2l-2.86.83c-1.47.42-2.93-.68-2.93-2.2v-32.99c0-1.01.67-1.91,1.64-2.2Z"/>
    </g>
    <g class="cls-5">
      <path class="cls-3" d="M308.1,305.69c-.65,0-1.28-.21-1.82-.61-.77-.58-1.21-1.47-1.21-2.43v-32.99c0-1.34.9-2.54,2.18-2.92l2.86-.85c.93-.27,1.91-.1,2.68.48.78.58,1.22,1.47,1.22,2.44v33.01c0,1.35-.9,2.55-2.2,2.92l-2.86.83c-.28.08-.57.12-.85.12ZM310.98,267.26c-.15,0-.3.02-.44.06l-2.86.85h0c-.65.19-1.11.8-1.11,1.48v32.99c0,.49.22.94.62,1.23.39.29.89.39,1.36.25l2.86-.83c.66-.19,1.11-.8,1.11-1.48v-33.01c0-.49-.23-.94-.62-1.24-.27-.2-.59-.31-.92-.31ZM307.46,267.46h.01-.01Z"/>
    </g>
    <g class="cls-59">
      <polygon class="cls-36" points="427.2 107.41 285.99 149.61 280.02 145.63 421.23 103.44 427.2 107.41"/>
    </g>
    <path class="cls-3" d="M285.99,150.36c-.15,0-.29-.04-.42-.12l-5.97-3.97c-.24-.16-.37-.45-.33-.74s.25-.52.53-.61l141.21-42.2c.21-.06.45-.03.63.09l5.97,3.97c.24.16.37.45.33.74s-.25.52-.53.61l-141.21,42.2c-.07.02-.14.03-.21.03ZM281.77,145.89l4.35,2.89,139.34-41.64-4.35-2.89-139.34,41.64Z"/>
    <line class="cls-47" x1="286" y1="149.61" x2="427.21" y2="107.41"/>
    <path class="cls-3" d="M286,151.11c-.65,0-1.24-.42-1.44-1.07-.24-.79.21-1.63,1.01-1.87l141.21-42.2c.8-.24,1.63.21,1.87,1.01s-.21,1.63-1.01,1.87l-141.21,42.2c-.14.04-.29.06-.43.06Z"/>
    <polyline class="cls-3" points="95.08 59.29 0 86.67 .09 88.18 92.62 61.48"/>
    <polyline class="cls-3" points="67.72 85.27 0 105.12 0 103.39 69.14 83.3"/>
    <polyline class="cls-3" points="281.56 6.9 295.7 2.8 290.34 2.8 277.5 6.51"/>
    <polyline class="cls-3" points="315.25 13.77 353.07 2.8 347.76 2.8 312.63 12.96"/>
    <polyline class="cls-3" points="497.72 261.19 500 260.54 500 262.09 497.72 262.75"/>
    <polyline class="cls-3" points="44.95 392.12 0 405.12 0 406.68 45.79 393.42"/>
  </g>
</svg>