<?xml version="1.0" encoding="UTF-8"?>
<svg id="GRUPPE" xmlns="http://www.w3.org/2000/svg" version="1.1" viewBox="0 0 500 500">
  <!-- Generator: Adobe Illustrator 29.6.0, SVG Export Plug-In . SVG Version: 2.1.1 Build 207)  -->
  <defs>
    <style>
      .st0 {
        fill: #000001;
      }

      .st1 {
        fill: #cd7f32;
      }
    </style>
  </defs>
  <path class="st1" d="M300.48,156.48l-7.68,35.89c-7.38-7.34-18.14-11.01-32.29-11.01s-25.61,5.05-34.37,15.16c-4.95,5.7-8.46,12.83-10.55,21.38h71.61l-4.17,20.08h-70.05c-.09,1.99-.13,4.54-.13,7.65s.09,6.18.26,9.46h66.27l-4.17,20.08h-59.37c2.17,9.24,5.51,16.5,10.02,21.77,8.68,10.19,19.96,15.29,33.85,15.29,16.67,0,29.95-5.1,39.84-15.29v39.65c-11.29,5.61-24.43,8.42-39.45,8.42-25.35,0-46.18-8.64-62.5-25.91-11.11-11.75-18.45-26.39-22-43.92h-19.27l4.17-20.08h12.76c-.09-2.07-.13-4.28-.13-6.61,0-3.97.09-7.47.26-10.49h-17.06l4.17-20.08h15.49c3.65-17.19,10.89-31.57,21.74-43.15,16.4-17.45,37.97-26.17,64.71-26.17,14.58,0,27.26,2.63,38.02,7.9l.02-.02Z"/>
  <path class="st0" d="M260.12,346.51c-25.66,0-47.05-8.88-63.59-26.38-11-11.63-18.44-26.24-22.13-43.46h-19.89l4.79-23.08h12.43c-.05-1.62-.07-3.33-.07-5.11,0-3.32.06-6.34.18-8.99h-17.32l4.79-23.08h15.51c3.77-16.87,11.12-31.22,21.86-42.67,16.63-17.68,38.76-26.65,65.8-26.65,14.74,0,27.75,2.71,38.68,8.06l1.05.51-8.5,39.73-1.95-1.94c-7.05-7.02-17.56-10.58-31.23-10.58s-24.81,4.93-33.24,14.64c-4.41,5.08-7.68,11.43-9.74,18.9h71.51l-4.79,23.08h-69.82c-.05,1.71-.08,3.76-.08,6.15,0,2.56.06,5.24.19,7.96h66.69l-4.79,23.08h-58.68c2.11,8.1,5.21,14.58,9.25,19.29,8.34,9.8,19.35,14.77,32.71,14.77,16.17,0,29.21-4.99,38.77-14.83l2.58-2.65v44.28l-.83.41c-11.44,5.69-24.94,8.58-40.12,8.58l-.02-.02ZM158.2,273.67h18.65l.24,1.2c3.49,17.18,10.76,31.71,21.62,43.19,15.95,16.88,36.6,25.45,61.41,25.45,14.34,0,27.1-2.64,37.95-7.86v-35.19c-9.85,8.81-22.73,13.27-38.34,13.27-14.29,0-26.06-5.32-34.99-15.82-4.65-5.42-8.13-12.96-10.34-22.4l-.43-1.84h60.04l3.54-17.08h-65.85l-.08-1.42c-.17-3.27-.26-6.48-.26-9.54s.04-5.7.13-7.71l.06-1.43h70.26l3.54-17.08h-71.68l.45-1.85c2.13-8.75,5.79-16.15,10.87-22.01,9.02-10.4,20.97-15.68,35.51-15.68,13.29,0,23.83,3.24,31.37,9.63l6.89-32.17c-10.29-4.81-22.5-7.25-36.3-7.25-26.18,0-47.58,8.65-63.62,25.7-10.61,11.32-17.8,25.59-21.37,42.43l-.25,1.19h-15.49l-3.54,17.08h16.8l-.09,1.59c-.17,2.96-.26,6.46-.26,10.41,0,2.32.04,4.52.13,6.54l.07,1.56h-13.1l-3.54,17.08h0Z"/>
</svg>