<?xml version="1.0" encoding="UTF-8"?>
<svg id="GRUPPE" xmlns="http://www.w3.org/2000/svg" viewBox="0 0 487.22 614.28">
  <defs>
    <style>
      .cls-1 {
        fill: #000001;
      }

      .cls-2 {
        fill: #fff;
      }

      .cls-3 {
        isolation: isolate;
        opacity: .25;
      }

      .cls-4 {
        fill: #85c1e9;
      }
    </style>
  </defs>
  <path class="cls-1" d="M1.08,601.45c-.31,0-.6-.2-.71-.51-.13-.39.08-.82.47-.95l134.87-50.24c.39-.13.82.08.95.47.13.39-.08.82-.47.95L1.32,601.41c-.08.03-.16.04-.24.04Z"/>
  <path class="cls-1" d="M376.74,469.45c-.31,0-.6-.2-.71-.51-.13-.39.08-.82.47-.95l20.9-7.1c.39-.13.82.08.95.47s-.08.82-.47.95l-20.9,7.1c-.08.03-.16.04-.24.04Z"/>
  <path class="cls-1" d="M220.51,614.28c-6.05,0-12.01-2.03-16.91-5.93l-66.35-52.79c-1.85-1.47-2.87-3.66-2.81-6v-42.11c0-.83.67-1.5,1.5-1.5s1.5.67,1.5,1.5v42.15c-.04,1.43.57,2.74,1.68,3.61l66.35,52.79c6.48,5.16,15.03,6.64,22.88,3.98l143.99-48.98c1.79-.61,2.92-2.23,2.89-4.13v-161.49c0-.83.67-1.5,1.5-1.5s1.5.67,1.5,1.5v161.47c.05,3.15-1.93,5.97-4.93,6.99l-143.99,48.98c-2.89.98-5.86,1.46-8.8,1.46Z"/>
  <path class="cls-1" d="M210.36,600.65c-.41,0-.75-.34-.75-.75v-135.49c0-.41.34-.75.75-.75s.75.34.75.75v135.49c0,.41-.34.75-.75.75Z"/>
  <path class="cls-1" d="M229.04,528.11c-1.6,0-3.16-.5-4.51-1.47-2.07-1.48-3.26-3.79-3.26-6.34v-52.18c0-3.91,2.49-7.38,6.19-8.64l135.88-46.19c1.67-.57,3.46-.3,4.89.73,1.44,1.03,2.26,2.63,2.26,4.4v56.18c0,3.51-2.23,6.62-5.55,7.75l-133.37,45.34c-.84.28-1.69.42-2.54.42ZM365.09,416c-.26,0-.53.04-.78.13l-135.88,46.19c-2.48.84-4.15,3.17-4.15,5.8v52.18c0,1.57.73,2.99,2,3.9,1.27.91,2.85,1.15,4.34.64l133.37-45.34c2.1-.71,3.52-2.69,3.52-4.91v-56.18c0-.79-.37-1.5-1.01-1.96-.42-.3-.9-.45-1.4-.45Z"/>
  <path class="cls-1" d="M229.04,602.71c-1.6,0-3.16-.5-4.51-1.47-2.07-1.48-3.26-3.79-3.26-6.34v-52.18c0-3.91,2.49-7.38,6.19-8.64l135.88-46.19c1.67-.57,3.46-.3,4.89.73s2.26,2.63,2.26,4.4v56.18c0,3.51-2.23,6.62-5.55,7.75l-133.37,45.34c-.84.28-1.69.42-2.53.42ZM365.09,490.6c-.26,0-.53.04-.78.13l-135.88,46.19c-2.48.85-4.15,3.17-4.15,5.8v52.18c0,1.57.73,2.99,2,3.9,1.27.91,2.85,1.14,4.34.64l133.37-45.34c2.1-.71,3.52-2.69,3.52-4.91v-56.18c0-.79-.37-1.5-1.01-1.96-.42-.3-.9-.45-1.4-.45Z"/>
  <path class="cls-1" d="M281.02,561.23c-1.36,0-2.72-.03-4.06-.09-1.59-.07-2.84-1.38-2.84-2.98v-13.4c0-.3.09-.59.25-.83l2.31-3.45c.29-.43.76-.69,1.29-.67,0,0,2.03.05,3.05.05,20.12,0,38.12-6.84,45.86-17.42.39-.53,1.08-.75,1.71-.53l3.22,1.13c.6.21,1,.78,1,1.42v15.1c0,.29-.08.57-.24.82-7.7,11.89-29.86,20.86-51.55,20.86ZM277.12,545.22v12.94c1.27.04,2.59.07,3.9.07,20.53,0,41.38-8.2,48.79-19.12v-13.58l-1.19-.42c-8.61,10.82-27.11,17.76-47.61,17.76-.62,0-1.6-.02-2.3-.03l-1.6,2.39ZM331.31,539.56h.01-.01Z"/>
  <path class="cls-1" d="M281.27,545.69c-1.9,0-3.81-.06-5.69-.17-.41-.02-.73-.38-.7-.79s.38-.73.79-.7c1.85.11,3.73.17,5.6.17,21.74,0,42.36-8.51,49.01-20.23.2-.36.66-.49,1.02-.28.36.2.49.66.28,1.02-6.9,12.16-28.07,20.99-50.32,20.99Z"/>
  <path class="cls-1" d="M281.02,486.85c-1.35,0-2.71-.03-4.06-.09-1.59-.07-2.84-1.38-2.84-2.98v-13.4c0-.3.09-.59.25-.83l2.31-3.45c.29-.43.76-.69,1.29-.67,0,0,2.03.05,3.05.05,20.12,0,38.12-6.84,45.86-17.42.39-.53,1.08-.75,1.71-.53l3.22,1.13c.6.21,1,.78,1,1.42v15.1c0,.29-.08.57-.24.82-7.7,11.89-29.86,20.86-51.55,20.86ZM277.12,470.83v12.94c1.28.04,2.6.07,3.9.07,20.53,0,41.38-8.2,48.79-19.12v-13.58l-1.19-.42c-8.61,10.82-27.11,17.76-47.61,17.76-.62,0-1.6-.02-2.3-.03l-1.6,2.39ZM331.31,465.17h.01-.01Z"/>
  <path class="cls-1" d="M281.27,471.3c-1.9,0-3.82-.06-5.69-.17-.41-.02-.73-.38-.7-.79s.38-.73.79-.7c1.84.11,3.73.17,5.6.17,21.74,0,42.36-8.51,49.01-20.23.2-.36.66-.49,1.02-.28.36.2.49.66.28,1.02-6.9,12.16-28.07,20.99-50.32,20.99Z"/>
  <path class="cls-1" d="M451.38,324.67c-.41,0-.75-.34-.75-.75V127.78c0-.41.34-.75.75-.75s.75.34.75.75v196.14c0,.41-.34.75-.75.75Z"/>
  <g class="cls-3">
    <path class="cls-4" d="M289.93,208.51l-138.89,47.24c-1.55.46-3.12-.7-3.12-2.33V70.31c0-1.47.97-2.77,2.38-3.19l139.9-47.55c1.08-.32,2.16.49,2.16,1.61v184.05c0,1.51-.99,2.84-2.44,3.26Z"/>
  </g>
  <path class="cls-1" d="M150.33,256.61c-.68,0-1.33-.22-1.89-.63-.81-.6-1.28-1.53-1.28-2.54V70.31c0-1.79,1.2-3.4,2.91-3.9l139.87-47.54c.77-.23,1.55-.09,2.18.37s.98,1.18.98,1.95v184.05c0,1.82-1.21,3.46-2.96,3.98l-138.88,47.24c-.32.09-.63.14-.95.14ZM290.68,20.26c-.09,0-.18.01-.27.04l-139.88,47.54c-1.11.33-1.87,1.35-1.87,2.48v183.12c0,.53.25,1.02.67,1.34.43.32.97.42,1.48.26l138.86-47.24s.02,0,.03,0c1.12-.33,1.9-1.38,1.9-2.55V21.19c0-.3-.14-.57-.38-.75-.16-.12-.36-.19-.56-.19Z"/>
  <path class="cls-1" d="M145.3,268.82c-1.66,0-3.28-.51-4.66-1.5-.34-.24-.41-.71-.17-1.05s.71-.41,1.05-.17c1.65,1.18,3.72,1.53,5.67.95l146.79-49.59c3.71-1.1,6.28-4.55,6.28-8.39V10.88c0-.97-.39-1.87-1.09-2.54-.3-.29-.31-.76-.03-1.06.29-.3.76-.31,1.06-.03,1,.95,1.55,2.24,1.55,3.62v198.19c0,4.5-3.01,8.54-7.32,9.82l-146.79,49.59c-.77.23-1.56.34-2.34.34Z"/>
  <path class="cls-1" d="M141.32,267.63c-.15,0-.3-.04-.43-.14l-8.54-6.02c-2.16-1.53-3.4-3.93-3.4-6.57V60.87c0-4.55,3.04-8.63,7.4-9.92L286.98.22c1.53-.46,3.12-.18,4.39.74l8.42,5.94c.34.24.42.71.18,1.04-.24.34-.71.42-1.05.18l-8.43-5.94c-.9-.65-2.01-.84-3.06-.53l-150.63,50.73c-3.75,1.11-6.36,4.6-6.36,8.49v194.02c0,2.15,1.01,4.1,2.77,5.35l8.54,6.02c.34.24.42.71.18,1.04-.15.21-.38.32-.61.32Z"/>
  <path class="cls-1" d="M141.08,267.46c-.15,0-.3-.04-.44-.14-2.14-1.53-3.37-3.92-3.37-6.55V66.75c0-4.55,3.04-8.63,7.4-9.92L295.31,6.09c1.76-.52,3.58-.09,4.9,1.16.3.29.31.76.03,1.06-.29.3-.76.31-1.06.03-.92-.87-2.2-1.18-3.41-.82l-150.63,50.73c-3.75,1.11-6.36,4.6-6.36,8.49v194.02c0,2.14,1,4.08,2.74,5.33.34.24.41.71.17,1.05-.15.2-.38.31-.61.31Z"/>
  <path class="cls-2" d="M1.5,477.19l57.69,46.17c5.57,4.43,13.02,5.73,19.76,3.43l340.17-115.5c1.98-.67,3.31-2.53,3.31-4.62v-6.48c0-1.28-.58-2.49-1.58-3.29l-44.11-35.11"/>
  <path class="cls-1" d="M72.18,529.43c-4.99,0-9.89-1.67-13.93-4.89L.57,478.37c-.65-.52-.76-1.46-.24-2.11.52-.65,1.46-.76,2.11-.24l57.69,46.17c5.2,4.14,12.06,5.33,18.34,3.19l340.18-115.5c1.37-.47,2.29-1.75,2.29-3.2v-6.48c0-.83-.37-1.6-1.02-2.11l-44.11-35.11c-.65-.52-.76-1.46-.24-2.11.52-.65,1.46-.76,2.11-.24l44.11,35.11c1.37,1.09,2.15,2.71,2.15,4.46v6.48c0,2.73-1.74,5.16-4.33,6.04l-340.17,115.5c-2.38.81-4.82,1.2-7.25,1.2Z"/>
  <path class="cls-1" d="M72.18,516.68c-4.82,0-9.56-1.62-13.46-4.72L.61,465.46c-.32-.26-.38-.73-.12-1.05.26-.32.73-.38,1.05-.12l58.12,46.49c5.4,4.29,12.52,5.53,19.05,3.31l343.49-116.62c.39-.13.82.08.95.47s-.08.82-.47.95l-343.49,116.62c-2.3.78-4.66,1.16-7.01,1.16Z"/>
  <path class="cls-1" d="M1.83,424.14c-.62,0-1.21-.39-1.42-1.02-.27-.79.15-1.64.94-1.9l134.12-45.69c.79-.26,1.64.15,1.9.94.27.79-.15,1.64-.94,1.9L4.25,423.25c-.16.05-2.27.9-2.43.9Z"/>
  <path class="cls-1" d="M177.37,135.87c-.3,0-.6-.09-.86-.27-.68-.48-.84-1.41-.36-2.09l5.64-8.01c.48-.68,1.41-.84,2.09-.36.68.48.84,1.41.36,2.09l-5.64,8.01c-.29.41-.76.64-1.23.64Z"/>
  <path class="cls-1" d="M161,159.12c-.3,0-.6-.09-.86-.27-.68-.48-.84-1.41-.36-2.09l1.17-1.67c.48-.68,1.41-.84,2.09-.36.68.48.84,1.41.36,2.09l-1.17,1.67c-.29.42-.76.64-1.23.64Z"/>
  <path class="cls-1" d="M164.63,153.97c-.3,0-.6-.09-.86-.27-.68-.48-.84-1.41-.36-2.09l10.29-14.62c.48-.68,1.41-.84,2.09-.36.68.48.84,1.41.36,2.09l-10.29,14.62c-.29.42-.76.64-1.23.64Z"/>
  <path class="cls-1" d="M185.3,204.51c-.3,0-.6-.09-.86-.27-.68-.48-.84-1.41-.36-2.09l9.82-13.95c.48-.68,1.41-.84,2.09-.36.68.48.84,1.41.36,2.09l-9.82,13.95c-.29.42-.76.64-1.23.64Z"/>
  <path class="cls-1" d="M156.8,245c-.3,0-.6-.09-.86-.27-.68-.48-.84-1.41-.36-2.09l2.04-2.9c.48-.68,1.41-.84,2.09-.36.68.48.84,1.41.36,2.09l-2.04,2.9c-.29.42-.76.64-1.23.64Z"/>
  <path class="cls-1" d="M163.11,236.03c-.3,0-.6-.09-.86-.27-.68-.48-.84-1.41-.36-2.09l17.91-25.46c.48-.68,1.41-.84,2.09-.36.68.48.84,1.41.36,2.09l-17.91,25.46c-.29.42-.76.64-1.23.64Z"/>
  <path class="cls-1" d="M199.38,184.49c-.3,0-.6-.09-.86-.27-.68-.48-.84-1.41-.36-2.09l32.69-46.44c.48-.68,1.41-.84,2.09-.36.68.48.84,1.41.36,2.09l-32.69,46.45c-.29.41-.76.64-1.23.64Z"/>
  <path class="cls-1" d="M376.74,345.34h0c-.83,0-1.5-.68-1.49-1.51,0-1.32-.57-2.5-1.61-3.34l-69.36-55.09c-4.75-3.77-11.02-4.86-16.77-2.91l-147.05,49.94c-1.8.61-2.98,2.24-3.01,4.14-.01.83-.73,1.49-1.52,1.48-.83-.01-1.49-.7-1.48-1.52.05-3.19,2.03-5.91,5.04-6.93l147.05-49.94c6.72-2.28,14.04-1.01,19.6,3.4l69.36,55.09c1.76,1.39,2.76,3.47,2.75,5.7,0,.83-.67,1.49-1.5,1.49Z"/>
  <path class="cls-2" d="M248.53,305.67v10.63c0,3.12-4.72,5.66-10.55,5.66s-10.55-2.53-10.55-5.66v-38.97"/>
  <path class="cls-1" d="M237.98,322.7c-6.34,0-11.3-2.81-11.3-6.41v-38.97c0-.41.34-.75.75-.75s.75.34.75.75v38.97c0,2.66,4.49,4.91,9.8,4.91s9.8-2.25,9.8-4.91v-10.63c0-.41.34-.75.75-.75s.75.34.75.75v10.63c0,3.59-4.96,6.41-11.3,6.41Z"/>
  <path class="cls-1" d="M248.53,286.74c-.41,0-.75-.34-.75-.75v-3.25c0-.41.34-.75.75-.75s.75.34.75.75v3.25c0,.42-.34.75-.75.75Z"/>
  <path class="cls-2" d="M376.74,344.97v39.23c.04,2.36-1.35,4.7-3.91,5.57l-143.99,48.98c-8.29,2.82-17.44,1.23-24.29-4.22l-66.35-52.79c-1.57-1.25-2.29-3.04-2.24-4.79v-38.65"/>
  <path class="cls-1" d="M220.51,441.64c-6.05,0-12.01-2.03-16.91-5.93l-66.35-52.79c-1.85-1.47-2.87-3.66-2.81-6v-38.61c0-.83.67-1.5,1.5-1.5s1.5.67,1.5,1.5v38.65c-.04,1.43.57,2.74,1.68,3.61l66.35,52.79c6.48,5.16,15.03,6.64,22.88,3.98l143.99-48.98c1.79-.61,2.92-2.23,2.89-4.13v-39.25c0-.83.67-1.5,1.5-1.5s1.5.67,1.5,1.5v39.23c.05,3.15-1.93,5.97-4.93,6.99l-143.99,48.98c-2.89.98-5.86,1.46-8.8,1.46Z"/>
  <path class="cls-1" d="M220.52,400.51c-5.89,0-11.68-1.98-16.44-5.77l-66.35-52.79c-1.66-1.32-2.58-3.29-2.52-5.4.01-.41.37-.77.77-.73.41.01.74.35.73.77-.04,1.63.67,3.16,1.96,4.18l66.35,52.79c6.68,5.32,15.5,6.85,23.58,4.1l143.99-48.98c2.07-.7,3.44-2.65,3.4-4.85,0-.41.33-.76.74-.76h.01c.41,0,.74.33.75.74.04,2.85-1.73,5.38-4.42,6.29l-143.99,48.98c-2.8.95-5.69,1.42-8.56,1.42Z"/>
  <path class="cls-1" d="M205.7,429.2c-.41,0-.75-.34-.75-.75v-24.25c0-.41.34-.75.75-.75s.75.34.75.75v24.25c0,.41-.34.75-.75.75Z"/>
  <path class="cls-1" d="M310.57,336.94c-.41,0-.75-.34-.75-.75v-24.25c0-.41.34-.75.75-.75s.75.34.75.75v24.25c0,.41-.34.75-.75.75Z"/>
  <path class="cls-1" d="M321.81,339.19c-.41,0-.75-.34-.75-.75v-24.25c0-.41.34-.75.75-.75s.75.34.75.75v24.25c0,.41-.34.75-.75.75Z"/>
  <path class="cls-1" d="M221.86,433.53c-.41,0-.75-.34-.75-.75v-24.25c0-.41.34-.75.75-.75s.75.34.75.75v24.25c0,.41-.34.75-.75.75Z"/>
  <path class="cls-1" d="M237.98,283.73c-6.34,0-11.3-2.81-11.3-6.41,0-.41.34-.75.75-.75s.75.34.75.75c0,2.66,4.49,4.91,9.8,4.91,3.07,0,5.92-.73,7.81-1.99.34-.23.81-.14,1.04.21.23.34.14.81-.21,1.04-2.13,1.42-5.29,2.24-8.64,2.24Z"/>
  <path class="cls-1" d="M253.94,281.38c-1.72,0-3.43-.5-4.88-1.47-4.12-2.76-10.23-6.76-15.93-10.15-.36-.21-.47-.67-.26-1.03.21-.36.67-.47,1.03-.26,5.73,3.41,11.86,7.43,16,10.19,1.86,1.25,4.24,1.56,6.37.84l9.31-3.15c.57-.19.96-.67,1.04-1.26.08-.59-.17-1.15-.67-1.49-4.92-3.31-14.3-9.54-21.93-14.08-3.3-1.96-6.43-2.59-9.29-1.85-3.8.97-6.04,4.07-6.54,4.82v11.04c0,2.66,4.49,4.91,9.8,4.91,1.6,0,3.12-.19,4.53-.57.4-.11.81.13.92.53.11.4-.13.81-.53.92-1.54.41-3.19.62-4.92.62-6.34,0-11.3-2.81-11.3-6.41v-11.26c0-.13.04-.26.1-.38.1-.18,2.63-4.4,7.55-5.67,3.27-.84,6.79-.16,10.45,2.01,7.66,4.56,17.07,10.81,22,14.13.97.65,1.47,1.77,1.32,2.93-.15,1.16-.94,2.11-2.05,2.49l-9.31,3.15c-.91.31-1.86.46-2.8.46Z"/>
  <path class="cls-1" d="M253.94,285.12c-1.72,0-3.43-.5-4.88-1.47l-.67-.45c-3.02-2.02-3.33-2.23-13.41-8.54-.35-.22-.46-.68-.24-1.03.22-.35.68-.46,1.03-.24,10.1,6.32,10.42,6.54,13.45,8.57l.67.45c1.86,1.25,4.24,1.56,6.37.84l9.31-3.15c.79-.27,1.06-.97,1.05-1.49v-3.69c0-.41.34-.75.75-.75s.75.34.75.75v3.68c.02,1.32-.82,2.5-2.07,2.92l-9.31,3.15c-.91.31-1.85.46-2.8.46Z"/>
  <path class="cls-2" d="M276.7,304.98v4c.01.93-.54,1.87-1.57,2.21l-9.2,3.12c-2.36.8-4.95.46-7.03-.93-3.73-2.49-19-12.02-19-12.02-1.16-.73-2.11-1.98-2.64-3.68-1.33-4.24.38-9.66,3.82-12.1,2.01-1.43,4.17-1.53,5.88-.52"/>
  <path class="cls-1" d="M263.38,315.48c-1.72,0-3.43-.5-4.89-1.47-3.67-2.46-18.83-11.91-18.98-12.01-1.36-.86-2.39-2.27-2.96-4.1-1.42-4.52.42-10.32,4.1-12.94,2.17-1.54,4.68-1.75,6.7-.55.36.21.48.67.26,1.03-.21.36-.67.48-1.03.26-1.52-.9-3.37-.73-5.07.48-3.19,2.27-4.78,7.32-3.54,11.27.46,1.48,1.27,2.61,2.32,3.27.15.09,15.33,9.56,19.02,12.03,1.86,1.25,4.24,1.56,6.37.84l9.2-3.12c.79-.27,1.06-.97,1.05-1.49v-4.01c0-.41.34-.75.75-.75s.75.34.75.75v4c.02,1.32-.82,2.5-2.07,2.92l-9.2,3.12c-.91.31-1.86.46-2.8.46Z"/>
  <path class="cls-1" d="M227.43,277.72c-.41,0-.75-.34-.75-.75v-3.5c0-.41.34-.75.75-.75s.75.34.75.75v3.5c0,.41-.34.75-.75.75Z"/>
  <path class="cls-2" d="M241.54,298.6c5.89,3.5,13.65,8.54,17.37,11.03.21.14.43.28.66.4,2.59,1.4,2.48,1.38,6.81-2.34,1.21-1.04,2.88-2.53,4.39-2.69,1.25-.13,2.36.06,3.22.3,3.15.91,3.04-.65,2.32-1.52-.14-.17-.3-.33-.5-.46l-29.01-18.38"/>
  <path class="cls-1" d="M261.78,311.64c-.69,0-1.42-.33-2.51-.91-.31-.17-.55-.31-.78-.47-3.75-2.51-11.47-7.52-17.34-11.01-.36-.21-.47-.67-.26-1.03.21-.36.67-.47,1.03-.26,5.9,3.51,13.64,8.53,17.4,11.05.19.13.39.25.6.36q2.06,1.11,5.6-1.93l.55-.47c1.24-1.07,2.95-2.54,4.62-2.71,1.14-.12,2.32,0,3.51.33,1.44.41,1.81.18,1.81.17-.01-.02-.07-.26-.27-.5-.11-.13-.21-.23-.33-.3l-29.01-18.38c-.35-.22-.45-.68-.23-1.04.22-.35.69-.45,1.04-.23l29.01,18.38c.25.16.47.36.68.61.63.76.77,1.66.35,2.29-.52.79-1.68.94-3.46.43-1-.29-1.98-.38-2.93-.28-1.2.13-2.7,1.42-3.8,2.36l-.55.47c-2.5,2.15-3.56,3.06-4.71,3.06Z"/>
  <path class="cls-1" d="M219.86,391.79c-3.26,0-6.47-1.09-9.11-3.19l-40.33-32.02c-1.15-.92-1.69-2.33-1.44-3.78.25-1.45,1.23-2.6,2.63-3.07l137.09-46.56c3.61-1.23,7.55-.54,10.54,1.83l41.95,33.31c1.13.9,1.65,2.27,1.4,3.69s-1.21,2.54-2.57,3h0l-135.44,46c-1.55.53-3.15.79-4.74.79ZM312.31,304.07c-1.05,0-2.1.17-3.12.52l-137.09,46.56c-.87.29-1.48,1.01-1.63,1.91-.16.9.18,1.78.89,2.35l40.33,32.02c3.52,2.8,8.17,3.61,12.43,2.16l135.44-46c.83-.28,1.42-.97,1.57-1.84.15-.87-.17-1.71-.86-2.26l-41.95-33.31c-1.74-1.38-3.85-2.1-6-2.1ZM359.8,344.29h.01-.01Z"/>
  <path class="cls-1" d="M199.14,379.16c-.31,0-.6-.2-.71-.51-.13-.39.08-.82.47-.95l109.81-37.29c3.61-1.23,7.55-.54,10.54,1.83l13.58,10.78c.32.26.38.73.12,1.05s-.73.38-1.05.12l-13.58-10.78c-2.59-2.06-6-2.65-9.13-1.59l-109.81,37.29c-.08.03-.16.04-.24.04Z"/>
  <path class="cls-1" d="M260.76,378.68c-.23,0-.45-.1-.6-.3-.57-.76-.86-1.57-.86-2.41,0-3.46,4.98-6.16,11.33-6.16,2.87,0,5.6.57,7.68,1.6.37.18.52.63.34,1.01-.18.37-.63.52-1.01.34-1.88-.93-4.37-1.44-7.02-1.44-5.33,0-9.83,2.13-9.83,4.66,0,.51.19,1.01.56,1.5.25.33.19.8-.14,1.05-.14.1-.3.15-.45.15Z"/>
  <path class="cls-1" d="M248.1,343.37c-.49,0-.98-.08-1.45-.24-1.39-.47-2.48-1.57-3.06-3.1-1.12-2.97.09-6.71,2.72-8.35,1.3-.81,2.75-1,4.1-.55,1.39.47,2.48,1.57,3.06,3.1h0c1.12,2.97-.09,6.71-2.72,8.35-.84.52-1.75.79-2.64.79ZM248.96,332.4c-.62,0-1.26.19-1.86.56-2.05,1.27-2.99,4.21-2.11,6.54.42,1.1,1.18,1.88,2.14,2.21.91.31,1.91.16,2.82-.4,2.05-1.27,2.99-4.21,2.11-6.54h0c-.42-1.1-1.18-1.88-2.14-2.21-.31-.11-.64-.16-.97-.16Z"/>
  <path class="cls-1" d="M264.7,315.37c-.38,0-.7-.29-.74-.67-.04-.41.26-.78.67-.83.36-.04,1.48-.95,2.3-1.61,1.4-1.13,2.98-2.41,4.38-2.79,1.46-.39,3.55.19,4.56.47l.25.07c.4.1.64.52.53.92-.11.4-.52.64-.92.53l-.27-.07c-.74-.21-2.71-.75-3.77-.47-1.09.29-2.61,1.52-3.83,2.51-1.47,1.19-2.33,1.87-3.1,1.94-.02,0-.05,0-.07,0Z"/>
  <path class="cls-1" d="M437.37,353.16c-.16,0-.33-.05-.47-.16l-63.12-50.13c-1.48-1.19-3.48-1.28-5.2-.24-1.8,1.09-3.03,3.21-3.19,5.53v22.53c0,.41-.33.75-.75.75s-.75-.34-.75-.75v-22.58c.2-2.85,1.7-5.42,3.92-6.76,2.28-1.38,4.93-1.25,6.92.35l63.11,50.13c.33.26.38.73.12,1.05-.15.19-.37.28-.59.28Z"/>
  <path class="cls-1" d="M446.9,373.96c-.47,0-.95-.08-1.4-.23-1.32-.45-2.34-1.47-2.9-2.89-1.08-2.77.05-6.24,2.53-7.74,1.23-.74,2.61-.92,3.88-.49,1.31.45,2.34,1.47,2.9,2.88,1.08,2.77-.05,6.24-2.53,7.74-.79.48-1.63.72-2.47.72ZM447.6,363.89c-.57,0-1.15.17-1.7.5-1.88,1.14-2.74,3.79-1.91,5.91.39,1,1.09,1.71,1.98,2.01.85.29,1.78.16,2.62-.35,1.88-1.14,2.74-3.79,1.91-5.91-.39-1-1.09-1.71-1.98-2.01-.3-.1-.61-.15-.92-.15Z"/>
  <path class="cls-1" d="M362.73,308.22c-.16,0-.33-.05-.46-.16-.69-.54-1.23-1.28-1.58-2.14-1.13-2.78.01-6.26,2.55-7.75,1.84-1.08,4.03-.89,5.58.49.31.28.33.75.06,1.06-.27.31-.75.34-1.06.06-1.06-.95-2.53-1.07-3.82-.32-1.92,1.13-2.79,3.77-1.92,5.89.25.62.64,1.15,1.12,1.53.33.26.38.73.12,1.05-.15.19-.37.29-.59.29Z"/>
  <path class="cls-1" d="M370.33,301.58c-.16,0-.33-.05-.47-.16l-2.03-1.61c-.32-.26-.38-.73-.12-1.05.26-.32.73-.38,1.05-.12l2.03,1.61c.32.26.38.73.12,1.05-.15.19-.37.28-.59.28Z"/>
  <path class="cls-1" d="M364.65,309.77c-.16,0-.33-.05-.47-.16l-1.92-1.52c-.32-.26-.38-.73-.12-1.05.26-.32.73-.38,1.05-.12l1.92,1.52c.32.26.38.73.12,1.05-.15.19-.37.28-.59.28Z"/>
  <path class="cls-1" d="M425.21,482.83c-.8,0-1.6-.27-2.26-.8l-45.76-36.33c-.32-.26-.38-.73-.12-1.05.26-.32.73-.38,1.05-.12l45.76,36.33c.66.52,1.51.62,2.27.25.76-.37,1.21-1.09,1.21-1.93v-120.7c.2-2.85,1.7-5.42,3.92-6.76,1.62-.98,3.44-1.21,5.12-.64,1.73.59,3.09,1.95,3.83,3.82.11.29.21.58.28.87.11.4-.14.81-.54.91-.4.1-.81-.13-.92-.54-.06-.24-.14-.47-.23-.71-.57-1.46-1.6-2.5-2.91-2.95-1.25-.42-2.62-.24-3.86.51-1.8,1.09-3.03,3.21-3.19,5.53v120.65c0,1.41-.79,2.67-2.06,3.28-.51.25-1.05.37-1.59.37Z"/>
  <path class="cls-1" d="M436.76,474.71c-.8,0-1.6-.27-2.26-.79l-6.86-5.45c-.32-.26-.38-.73-.12-1.05.26-.33.73-.38,1.05-.12l6.86,5.45c.66.52,1.51.62,2.27.25.76-.37,1.21-1.09,1.21-1.93v-101.93c0-.41.34-.75.75-.75s.75.34.75.75v101.93c0,1.41-.79,2.67-2.06,3.28-.51.25-1.05.37-1.59.37Z"/>
  <path class="cls-1" d="M472.28,341.27c-.16,0-.33-.05-.47-.16l-63.12-50.13c-1.48-1.19-3.48-1.28-5.2-.24-1.8,1.09-3.03,3.21-3.19,5.53v26.08c0,.41-.33.75-.75.75s-.75-.34-.75-.75v-26.13c.2-2.85,1.7-5.42,3.92-6.76,2.28-1.38,4.93-1.25,6.92.35l63.11,50.13c.33.26.38.73.12,1.05-.15.19-.37.28-.59.28Z"/>
  <path class="cls-1" d="M481.8,362.07c-.47,0-.95-.08-1.4-.23-1.32-.45-2.34-1.47-2.9-2.89-1.08-2.77.05-6.24,2.53-7.74,1.23-.74,2.61-.92,3.88-.49,1.32.45,2.34,1.47,2.9,2.88h0c1.08,2.77-.05,6.24-2.53,7.74-.79.47-1.63.72-2.47.72ZM482.51,352c-.57,0-1.15.17-1.7.5-1.88,1.14-2.74,3.79-1.91,5.91.39,1,1.09,1.71,1.98,2.01.85.29,1.78.16,2.62-.35,1.88-1.14,2.74-3.79,1.91-5.91-.39-1-1.09-1.71-1.98-2.01-.3-.1-.61-.15-.92-.15Z"/>
  <path class="cls-1" d="M397.64,296.33c-.16,0-.33-.05-.46-.16-.69-.54-1.23-1.28-1.58-2.14-1.13-2.79.01-6.26,2.55-7.75,1.84-1.08,4.03-.89,5.58.49.31.28.33.75.06,1.06-.27.31-.75.34-1.06.06-1.06-.95-2.53-1.07-3.82-.32-1.92,1.13-2.79,3.77-1.92,5.89.25.62.64,1.15,1.12,1.53.33.26.38.73.12,1.05-.15.19-.37.29-.59.29Z"/>
  <path class="cls-1" d="M405.23,289.68c-.16,0-.33-.05-.47-.16l-2.03-1.61c-.32-.26-.38-.73-.12-1.05s.73-.38,1.05-.12l2.03,1.61c.32.26.38.73.12,1.05-.15.19-.37.28-.59.28Z"/>
  <path class="cls-1" d="M484.9,352.94c-.16,0-.33-.05-.47-.16l-15.78-12.52c-.32-.26-.38-.73-.12-1.05s.73-.38,1.05-.12l15.78,12.52c.32.26.38.73.12,1.05-.15.19-.37.28-.59.28Z"/>
  <path class="cls-1" d="M479.33,361.21c-.16,0-.33-.05-.47-.16l-16.27-12.92c-.32-.26-.38-.73-.12-1.05.26-.32.73-.38,1.05-.12l16.27,12.92c.32.26.38.73.12,1.05-.15.19-.37.28-.59.28Z"/>
  <path class="cls-1" d="M399.56,297.87c-.16,0-.33-.05-.47-.16l-1.92-1.53c-.33-.26-.38-.73-.12-1.05.26-.32.73-.38,1.05-.12l1.92,1.53c.33.26.38.73.12,1.05-.15.19-.37.28-.59.28Z"/>
  <path class="cls-1" d="M460.11,470.94c-.8,0-1.6-.27-2.26-.79l-18.68-14.83c-.32-.26-.38-.73-.12-1.05.26-.33.73-.38,1.05-.12l18.68,14.83c.66.52,1.51.62,2.27.25.76-.37,1.21-1.09,1.21-1.93v-120.7c.2-2.85,1.7-5.42,3.92-6.76,1.62-.98,3.44-1.21,5.12-.64,1.73.59,3.09,1.94,3.83,3.82.11.29.21.58.28.87.11.4-.14.81-.54.91-.4.1-.81-.13-.92-.54-.06-.24-.14-.47-.23-.71-.57-1.46-1.6-2.5-2.91-2.95-1.25-.42-2.62-.24-3.86.51-1.8,1.09-3.03,3.21-3.19,5.53v120.65c0,1.41-.79,2.67-2.06,3.28-.51.25-1.06.37-1.59.37Z"/>
  <path class="cls-1" d="M471.67,462.82c-.8,0-1.6-.27-2.26-.8l-6.86-5.45c-.32-.26-.38-.73-.12-1.05.26-.32.73-.38,1.05-.12l6.86,5.45c.66.52,1.51.62,2.27.25.76-.37,1.21-1.09,1.21-1.93v-101.93c0-.41.34-.75.75-.75s.75.34.75.75v101.93c0,1.41-.79,2.67-2.06,3.28-.51.25-1.05.37-1.59.37Z"/>
  <path class="cls-1" d="M446.85,373.93c-.47,0-.95-.08-1.4-.23-1.32-.45-2.34-1.47-2.9-2.89-1.08-2.77.05-6.24,2.53-7.74,1.23-.74,2.61-.92,3.88-.49,1.32.45,2.34,1.47,2.9,2.88h0c1.08,2.77-.05,6.24-2.53,7.74-.79.47-1.63.72-2.47.72ZM447.55,363.86c-.57,0-1.15.17-1.7.5-1.88,1.14-2.74,3.79-1.91,5.91.39,1,1.09,1.71,1.98,2.01.85.29,1.78.16,2.62-.35,1.88-1.14,2.74-3.79,1.91-5.91-.39-1-1.09-1.71-1.98-2.01-.3-.1-.61-.15-.92-.15Z"/>
  <path class="cls-1" d="M449.95,364.8c-.16,0-.33-.05-.47-.16l-15.78-12.52c-.32-.26-.38-.73-.12-1.05s.73-.38,1.05-.12l15.78,12.52c.32.26.38.73.12,1.05-.15.19-.37.28-.59.28Z"/>
  <path class="cls-1" d="M444.38,373.07c-.16,0-.33-.05-.47-.16l-16.27-12.92c-.32-.26-.38-.73-.12-1.05.26-.32.73-.38,1.05-.12l16.27,12.92c.32.26.38.73.12,1.05-.15.19-.37.28-.59.28Z"/>
</svg>