<?xml version="1.0" encoding="UTF-8"?>
<svg id="GRUPPE" xmlns="http://www.w3.org/2000/svg" xmlns:xlink="http://www.w3.org/1999/xlink" viewBox="0 0 500 496">
  <defs>
    <style>
      .cls-1 {
        fill: #000001;
      }

      .cls-2 {
        clip-path: url(#clippath-21);
      }

      .cls-3 {
        clip-path: url(#clippath-6);
      }

      .cls-4 {
        clip-path: url(#clippath-7);
      }

      .cls-5 {
        clip-path: url(#clippath-17);
      }

      .cls-6 {
        clip-path: url(#clippath-15);
      }

      .cls-7 {
        clip-path: url(#clippath-18);
      }

      .cls-8 {
        clip-path: url(#clippath-4);
      }

      .cls-9 {
        clip-path: url(#clippath-22);
      }

      .cls-10 {
        clip-path: url(#clippath-23);
      }

      .cls-11 {
        clip-path: url(#clippath-9);
      }

      .cls-12 {
        clip-path: url(#clippath-10);
      }

      .cls-13 {
        fill: #fff;
      }

      .cls-14 {
        clip-path: url(#clippath-25);
      }

      .cls-15 {
        clip-path: url(#clippath-11);
      }

      .cls-16 {
        fill: none;
      }

      .cls-17 {
        clip-path: url(#clippath-1);
      }

      .cls-18 {
        clip-path: url(#clippath-5);
      }

      .cls-19 {
        clip-path: url(#clippath-20);
      }

      .cls-20 {
        clip-path: url(#clippath-8);
      }

      .cls-21 {
        clip-path: url(#clippath-3);
      }

      .cls-22 {
        clip-path: url(#clippath-26);
      }

      .cls-23 {
        clip-path: url(#clippath-12);
      }

      .cls-24 {
        clip-path: url(#clippath-14);
      }

      .cls-25 {
        clip-path: url(#clippath-19);
      }

      .cls-26 {
        clip-path: url(#clippath-16);
      }

      .cls-27 {
        clip-path: url(#clippath-2);
      }

      .cls-28 {
        clip-path: url(#clippath-13);
      }

      .cls-29 {
        clip-path: url(#clippath-24);
      }

      .cls-30 {
        clip-path: url(#clippath);
      }
    </style>
    <clipPath id="clippath">
      <circle class="cls-16" cx="250" cy="248" r="248"/>
    </clipPath>
    <clipPath id="clippath-1">
      <circle class="cls-16" cx="250" cy="248" r="248"/>
    </clipPath>
    <clipPath id="clippath-2">
      <circle class="cls-16" cx="250" cy="248" r="248"/>
    </clipPath>
    <clipPath id="clippath-3">
      <circle class="cls-16" cx="250" cy="248" r="248"/>
    </clipPath>
    <clipPath id="clippath-4">
      <circle class="cls-16" cx="250" cy="248" r="248"/>
    </clipPath>
    <clipPath id="clippath-5">
      <circle class="cls-16" cx="250" cy="248" r="248"/>
    </clipPath>
    <clipPath id="clippath-6">
      <circle class="cls-16" cx="250" cy="248" r="248"/>
    </clipPath>
    <clipPath id="clippath-7">
      <circle class="cls-16" cx="250" cy="248" r="248"/>
    </clipPath>
    <clipPath id="clippath-8">
      <circle class="cls-16" cx="250" cy="248" r="248"/>
    </clipPath>
    <clipPath id="clippath-9">
      <circle class="cls-16" cx="250" cy="248" r="248"/>
    </clipPath>
    <clipPath id="clippath-10">
      <circle class="cls-16" cx="250" cy="248" r="248"/>
    </clipPath>
    <clipPath id="clippath-11">
      <circle class="cls-16" cx="250" cy="248" r="248"/>
    </clipPath>
    <clipPath id="clippath-12">
      <circle class="cls-16" cx="250" cy="248" r="248"/>
    </clipPath>
    <clipPath id="clippath-13">
      <circle class="cls-16" cx="250" cy="248" r="248"/>
    </clipPath>
    <clipPath id="clippath-14">
      <circle class="cls-16" cx="250" cy="248" r="248"/>
    </clipPath>
    <clipPath id="clippath-15">
      <circle class="cls-16" cx="250" cy="248" r="248"/>
    </clipPath>
    <clipPath id="clippath-16">
      <circle class="cls-16" cx="250" cy="248" r="248"/>
    </clipPath>
    <clipPath id="clippath-17">
      <circle class="cls-16" cx="250" cy="248" r="248"/>
    </clipPath>
    <clipPath id="clippath-18">
      <circle class="cls-16" cx="250" cy="248" r="248"/>
    </clipPath>
    <clipPath id="clippath-19">
      <circle class="cls-16" cx="250" cy="248" r="248"/>
    </clipPath>
    <clipPath id="clippath-20">
      <circle class="cls-16" cx="250" cy="248" r="248"/>
    </clipPath>
    <clipPath id="clippath-21">
      <circle class="cls-16" cx="250" cy="248" r="248"/>
    </clipPath>
    <clipPath id="clippath-22">
      <circle class="cls-16" cx="250" cy="248" r="248"/>
    </clipPath>
    <clipPath id="clippath-23">
      <circle class="cls-16" cx="250" cy="248" r="248"/>
    </clipPath>
    <clipPath id="clippath-24">
      <circle class="cls-16" cx="250" cy="248" r="248"/>
    </clipPath>
    <clipPath id="clippath-25">
      <circle class="cls-16" cx="250" cy="248" r="248"/>
    </clipPath>
    <clipPath id="clippath-26">
      <path class="cls-16" d="M250,0c136.97,0,248,111.03,248,248s-111.03,248-248,248"/>
    </clipPath>
  </defs>
  <g>
    <g class="cls-30">
      <path class="cls-1" d="M378.7,367.9c-.64,0-1.24-.42-1.44-1.07-.24-.79.21-1.63,1.01-1.87l108.29-32.51c.79-.24,1.63.21,1.87,1.01.24.79-.21,1.63-1.01,1.87l-108.29,32.51c-.14.04-.29.06-.43.06Z"/>
    </g>
    <g class="cls-17">
      <path class="cls-1" d="M89.11,454.84c-.64,0-1.24-.42-1.44-1.07-.24-.79.21-1.63,1-1.87l152.12-45.67c.79-.24,1.63.21,1.87,1.01.24.79-.21,1.63-1.01,1.87l-152.12,45.67c-.14.04-.29.06-.43.06Z"/>
    </g>
    <g class="cls-27">
      <path class="cls-1" d="M332.1,187.28c-.8,0-1.58-.26-2.25-.75-.97-.72-1.53-1.83-1.53-3.04v-26.93c0-4.01,2.58-7.49,6.42-8.65l76.21-23.03h0c1.42-.43,2.92-.17,4.12.72,1.19.89,1.88,2.25,1.88,3.74v28.55c0,2.35-1.51,4.38-3.76,5.06l-80,24.17c-.37.11-.74.17-1.11.17ZM411.39,126.32l-76.21,23.02c-3.2.97-5.36,3.87-5.36,7.21v26.93c0,.73.34,1.4.92,1.84.59.43,1.32.56,2.02.35l80-24.17c1.61-.49,2.69-1.94,2.69-3.62v-28.55c0-1.01-.46-1.93-1.27-2.53-.81-.6-1.83-.78-2.79-.49Z"/>
    </g>
    <g class="cls-21">
      <path class="cls-13" d="M417.48,162.83l-17.38-14.45c-.61-.48-.99-1.27-.99-2.27,0-1.96,1.48-3.95,3.31-4.44.97-.26,1.84-.05,2.45.51l18.32,15.26c4.88,4.06,3.28,11.92-2.8,13.76h0"/>
    </g>
    <g class="cls-8">
      <path class="cls-1" d="M420.4,171.95c-.32,0-.62-.21-.72-.53-.12-.4.1-.82.5-.93,2.59-.78,4.45-2.83,4.99-5.48s-.38-5.26-2.46-6.99l-18.32-15.26c-.47-.42-1.09-.54-1.78-.36-1.49.4-2.76,2.1-2.76,3.71,0,.73.25,1.32.7,1.68l17.39,14.46c.32.26.36.74.1,1.06-.27.32-.74.36-1.06.1l-17.38-14.45c-.81-.63-1.26-1.65-1.26-2.84,0-2.31,1.7-4.58,3.87-5.16,1.18-.32,2.33-.07,3.15.68l18.29,15.23c2.51,2.09,3.62,5.24,2.97,8.44s-2.9,5.67-6.02,6.61c-.07.02-.15.03-.22.03Z"/>
    </g>
    <g class="cls-18">
      <path class="cls-1" d="M299.92,381.75c-13.71,0-31.36-2.52-46.08-12.85-27.61-19.39-81.39-68.37-81.93-68.86-.29-.28-6.37-6.25-6.38-15.59v-16.97c0-.83.67-1.5,1.5-1.5s1.5.67,1.5,1.5v16.96c0,8.03,5.38,13.35,5.43,13.4.51.46,54.14,49.31,81.6,68.59,26.96,18.93,65.67,10.23,66.06,10.14.39-.1,43.13-11.56,61.33-26.08,17.98-14.34,21.75-32.28,10.1-48.01-9.67-13.06-51.45-45.84-74.89-61.57-21.53-14.45-34.73-10.75-34.86-10.71l-92.34,27.85c-.79.24-1.63-.21-1.87-1-.24-.79.21-1.63,1-1.87l92.34-27.85c.57-.18,14.55-4.24,37.4,11.09,23.61,15.85,65.78,48.98,75.63,62.28,12.54,16.92,8.46,36.9-10.64,52.14-18.7,14.91-60.7,26.17-62.48,26.65-.8.19-9.99,2.26-22.43,2.26Z"/>
    </g>
    <g class="cls-3">
      <path class="cls-13" d="M177.61,247.81c3.67-3.45,8.1-6,12.92-7.45l92.34-27.85s13.61-4.21,36.13,10.9,65.27,48.45,75.26,61.93c12.07,16.3,8.3,35.18-10.37,50.07-18.67,14.89-61.93,26.37-61.93,26.37,0,0-39.41,9.18-67.26-10.37-27.85-19.56-81.78-68.74-81.78-68.74,0,0-15.96-15.41,4.69-34.85Z"/>
    </g>
    <g class="cls-4">
      <path class="cls-1" d="M299.92,365.48c-13.71,0-31.36-2.52-46.08-12.85-27.61-19.39-81.39-68.37-81.93-68.86-.29-.28-6.43-6.32-6.38-15.74.04-7.29,3.76-14.46,11.04-21.32,3.8-3.58,8.48-6.28,13.52-7.8l92.34-27.85c.57-.18,14.55-4.24,37.4,11.09,23.61,15.85,65.78,48.98,75.63,62.28,12.54,16.92,8.46,36.9-10.64,52.14-18.7,14.91-60.7,26.17-62.48,26.65-.8.19-9.99,2.26-22.43,2.26ZM177.61,247.81l1.03,1.09c-6.66,6.27-10.06,12.72-10.1,19.15-.05,8.15,5.37,13.48,5.43,13.53.51.46,54.14,49.32,81.6,68.59,26.96,18.93,65.67,10.23,66.06,10.14.39-.1,43.13-11.56,61.33-26.08,17.98-14.34,21.75-32.28,10.1-48.01-9.67-13.06-51.45-45.84-74.89-61.57-21.67-14.54-34.72-10.75-34.85-10.71l-92.35,27.86c-4.6,1.39-8.86,3.85-12.33,7.11l-1.03-1.09Z"/>
    </g>
    <g class="cls-20">
      <path class="cls-1" d="M300.11,347.62c-13.69,0-31.37-2.45-45.84-12.61-21.76-15.28-59.51-48.7-74.73-62.36-.31-.28-.33-.75-.06-1.06.28-.31.75-.33,1.06-.06,15.2,13.64,52.89,47.02,74.59,62.25,27.26,19.14,66.26,10.35,66.66,10.25.04-.01,6.17-1.64,14.67-4.42.39-.13.82.09.95.48s-.09.82-.48.95c-8.54,2.79-14.72,4.43-14.78,4.45-.2.05-9.43,2.13-22.04,2.13Z"/>
    </g>
    <g class="cls-11">
      <path class="cls-1" d="M371.54,326.96c-.27,0-.53-.15-.67-.4-.19-.37-.05-.82.32-1.01,4.95-2.6,9.07-5.2,12.23-7.73,9.77-7.79,14.51-15.92,14.51-24.87,0-.41.34-.75.75-.75s.75.34.75.75c0,9.43-4.93,17.95-15.08,26.04-3.24,2.58-7.44,5.24-12.47,7.88-.11.06-.23.09-.35.09Z"/>
    </g>
    <g class="cls-12">
      <path class="cls-1" d="M279.73,417.27c-14.62,0-30.71-3.35-48.54-12.73-37.07-19.48-64.84-46.66-74.96-63.67-7.22-12.14-10.37-36.62-10.88-84.49-.14-13.41,11.02-16.66,11.13-16.69.79-.22,1.62.25,1.85,1.04.22.8-.25,1.62-1.04,1.85-.36.1-9.05,2.71-8.94,13.77.49,46.67,3.62,71.49,10.46,82.98,9.91,16.66,37.23,43.34,73.78,62.55,38.84,20.41,67.14,12.45,100.1-.08,29.62-11.25,50.59-40.85,54.01-54.25.2-.8,1.02-1.29,1.82-1.08.8.2,1.29,1.02,1.08,1.82-3.56,13.95-25.27,44.69-55.85,56.32-15.53,5.9-33.29,12.65-54.02,12.65Z"/>
    </g>
    <g class="cls-15">
      <path class="cls-1" d="M167.05,286.61c-.38,0-.76-.14-1.06-.44-1.43-1.42-3-2.86-4.67-4.38-6.69-6.12-14.27-13.05-15.91-21.97-.15-.81.39-1.6,1.2-1.75.82-.15,1.6.39,1.75,1.2,1.46,7.93,8.65,14.5,14.98,20.3,1.69,1.55,3.29,3.01,4.76,4.47.59.58.59,1.53,0,2.12-.29.29-.68.44-1.06.44Z"/>
    </g>
    <g class="cls-23">
      <path class="cls-13" d="M240.81,69.96l-50.75,15.33c-7.26,2.19-12.22,8.88-12.22,16.46v20.57c0,8.52,8.23,14.63,16.38,12.17l48.17-14.55c5.9-1.78,9.95-7.22,9.95-13.39v-28.03c0-6-5.79-10.29-11.53-8.56Z"/>
    </g>
    <g class="cls-28">
      <path class="cls-1" d="M190.5,135.8c-2.84,0-5.62-.91-7.98-2.66-3.45-2.57-5.44-6.5-5.44-10.81v-20.57c0-7.97,5.13-14.88,12.76-17.18l50.75-15.33c2.97-.9,6.09-.35,8.58,1.5,2.49,1.85,3.91,4.68,3.91,7.78v28.03c0,6.55-4.21,12.22-10.48,14.11l-48.17,14.55c-1.3.39-2.62.59-3.93.59ZM241.02,70.68l-50.75,15.33c-6.99,2.11-11.69,8.44-11.69,15.75v20.57c0,3.82,1.76,7.32,4.83,9.6,3.07,2.28,6.93,2.95,10.59,1.85l48.17-14.55c5.63-1.7,9.41-6.79,9.41-12.68v-28.02c0-2.62-1.21-5.02-3.31-6.58-2.1-1.56-4.75-2.02-7.25-1.26h0ZM240.81,69.96h0,0Z"/>
    </g>
    <g class="cls-24">
      <path class="cls-1" d="M156.89,242.65c-.65,0-1.24-.42-1.44-1.07-.24-.79.21-1.63,1.01-1.87l104.48-31.37c6.07-1.83,12.59-.49,17.45,3.57l.99.83c.64.53.72,1.48.19,2.11-.53.64-1.48.72-2.11.19l-.99-.83c-4.09-3.41-9.57-4.53-14.66-3l-104.48,31.37c-.14.04-.29.06-.43.06Z"/>
    </g>
    <g class="cls-6">
      <line class="cls-16" x1="384.11" y1="198" x2="377.99" y2="199.85"/>
    </g>
    <g class="cls-26">
      <path class="cls-1" d="M377.99,200.6c-.32,0-.62-.21-.72-.53-.12-.4.1-.82.5-.93l6.12-1.85c.4-.12.81.1.93.5.12.4-.1.82-.5.93l-6.12,1.85c-.07.02-.14.03-.22.03Z"/>
    </g>
    <g class="cls-5">
      <path class="cls-13" d="M102.87,326.36l-42.52,12.85c-1.95.59-3.29,2.39-3.29,4.43v26.01c0,1.42,1.37,2.43,2.72,2.02l44.09-13.32c1.07-.32,1.8-1.31,1.8-2.42v-27.47c0-1.46-1.41-2.51-2.81-2.09Z"/>
    </g>
    <g class="cls-7">
      <path class="cls-1" d="M59.16,372.5c-.6,0-1.19-.19-1.7-.57-.73-.55-1.16-1.38-1.16-2.3v-26c0-2.39,1.53-4.45,3.82-5.14l42.52-12.85h0c.9-.27,1.84-.11,2.59.45.75.56,1.18,1.42,1.18,2.35v27.47c0,1.46-.94,2.72-2.33,3.14l-44.09,13.32c-.28.08-.56.12-.84.12ZM103.08,327.08l-42.52,12.85c-1.65.5-2.75,1.99-2.75,3.71v26c0,.44.2.83.55,1.1.35.26.79.33,1.21.21l44.09-13.32c.76-.23,1.27-.92,1.27-1.71v-27.47c0-.46-.21-.87-.58-1.15-.37-.27-.83-.35-1.27-.22h0Z"/>
    </g>
    <g class="cls-25">
      <polyline class="cls-13" points="75.73 341.7 75.73 361.04 109.31 388.98 121.16 366.06 87.58 338.12 75.73 341.7"/>
    </g>
    <g class="cls-19">
      <path class="cls-1" d="M109.31,389.73c-.17,0-.34-.06-.48-.17l-33.58-27.94c-.17-.14-.27-.35-.27-.58v-19.34c0-.33.22-.62.53-.72l11.85-3.58c.24-.07.5-.02.7.14l33.58,27.94c.27.23.35.61.19.92l-11.85,22.92c-.1.2-.29.35-.52.39-.05.01-.1.02-.15.02ZM76.48,360.68l32.59,27.12,11.15-21.55-32.81-27.3-10.93,3.3s0,18.43,0,18.43Z"/>
    </g>
    <g class="cls-2">
      <path class="cls-1" d="M109.31,370.39c-.17,0-.34-.06-.48-.17l-33.58-27.94c-.32-.27-.36-.74-.1-1.06.26-.32.74-.36,1.06-.1l33.58,27.94c.32.27.36.74.1,1.06-.15.18-.36.27-.58.27Z"/>
    </g>
    <g class="cls-9">
      <path class="cls-13" d="M140.1,345.05v67.76c0,4.6-10.4,8.34-23.23,8.34s-23.23-3.73-23.23-8.34v-67.76"/>
    </g>
    <g class="cls-10">
      <path class="cls-1" d="M116.87,421.89c-13.45,0-23.98-3.99-23.98-9.09v-67.76c0-.41.34-.75.75-.75s.75.34.75.75v67.76c0,3.66,9.03,7.59,22.48,7.59s22.48-3.92,22.48-7.59v-67.76c0-.41.34-.75.75-.75s.75.34.75.75v67.76c0,5.09-10.53,9.09-23.98,9.09Z"/>
    </g>
    <g class="cls-29">
      <ellipse class="cls-13" cx="116.87" cy="345.05" rx="23.23" ry="8.34"/>
    </g>
    <g class="cls-14">
      <path class="cls-1" d="M116.87,354.14c-13.45,0-23.98-3.99-23.98-9.09s10.53-9.09,23.98-9.09,23.98,3.99,23.98,9.09-10.53,9.09-23.98,9.09ZM116.87,337.46c-13.45,0-22.48,3.92-22.48,7.59s9.03,7.59,22.48,7.59,22.48-3.92,22.48-7.59-9.03-7.59-22.48-7.59Z"/>
    </g>
    <g class="cls-22">
      <path class="cls-13" d="M136.19,338.16v6.24c0,3.19-8.65,5.77-19.32,5.77s-19.32-2.58-19.32-5.77v-6.24"/>
    </g>
    <path class="cls-1" d="M116.87,350.92c-9.73,0-20.07-2.29-20.07-6.52v-6.24c0-.41.34-.75.75-.75s.75.34.75.75v6.24c0,2.37,7.94,5.02,18.57,5.02s18.57-2.65,18.57-5.02v-6.24c0-.41.34-.75.75-.75s.75.34.75.75v6.24c0,4.23-10.34,6.52-20.07,6.52Z"/>
    <ellipse class="cls-13" cx="116.87" cy="338.16" rx="19.32" ry="5.77"/>
    <path class="cls-1" d="M116.87,344.68c-9.73,0-20.07-2.29-20.07-6.52s10.34-6.52,20.07-6.52,20.07,2.29,20.07,6.52c0,4.24-10.34,6.52-20.07,6.52ZM116.87,333.14c-10.63,0-18.57,2.65-18.57,5.02s7.94,5.02,18.57,5.02,18.57-2.65,18.57-5.02-7.94-5.02-18.57-5.02Z"/>
    <path class="cls-13" d="M113.49,251c0-1.86,1.51-3.37,3.37-3.37s3.37,1.51,3.37,3.37v85.84c0,.67-1.51,1.21-3.37,1.21s-3.37-.54-3.37-1.21v-85.84Z"/>
    <path class="cls-1" d="M116.87,338.8c-2.05,0-4.12-.61-4.12-1.96v-85.84c0-2.27,1.85-4.12,4.12-4.12s4.12,1.85,4.12,4.12v85.84c0,1.35-2.07,1.96-4.12,1.96ZM114.24,336.74c.23.21,1.17.56,2.62.56s2.39-.35,2.62-.56v-85.74c0-1.45-1.18-2.62-2.62-2.62s-2.62,1.18-2.62,2.62v85.74Z"/>
    <path class="cls-13" d="M368.56,162.64l36.32-10.98c2.42-.74,5.23.1,7.96,2.71,4.76,4.54,7.79,13.06,7.79,20.82h0v28.99c0,.38-.25.71-.61.81l-34.78,10.51c-.57.17-1.14-.25-1.14-.85v-28.43"/>
    <path class="cls-1" d="M384.99,216.27c-.35,0-.68-.11-.97-.32-.42-.31-.66-.79-.66-1.31v-28.43c0-.41.34-.75.75-.75s.75.34.75.75v28.43c0,.06.03.09.05.11.02.02.07.04.12.02l34.78-10.51s.07-.05.07-.1v-28.98s0-.06,0-.09c-.02-7.78-3.05-15.88-7.56-20.18-2.42-2.31-4.99-3.21-7.23-2.53l-36.33,10.98c-.4.12-.82-.1-.93-.5-.12-.4.1-.82.5-.93l36.32-10.98c2.77-.85,5.87.18,8.7,2.88,4.8,4.58,8.02,13.17,8.02,21.36,0,.03,0,.06,0,.09v28.89c0,.71-.46,1.33-1.14,1.53l-34.78,10.51c-.15.05-.32.07-.48.07Z"/>
    <ellipse class="cls-13" cx="372.94" cy="181.37" rx="10.61" ry="19.23" transform="translate(-30.38 84.88) rotate(-12.48)"/>
    <path class="cls-1" d="M375.79,201.02c-2.23,0-4.56-1.08-6.75-3.17-6.03-5.76-9.39-17.79-7.48-26.81,1.01-4.78,3.39-8.08,6.53-9.05,2.79-.86,5.89.16,8.73,2.87,6.03,5.76,9.39,17.79,7.48,26.81h0c-1.01,4.78-3.39,8.08-6.53,9.06-.64.2-1.31.3-1.98.3ZM370.06,163.2c-.52,0-1.04.08-1.53.23-2.6.81-4.61,3.7-5.51,7.93-1.81,8.57,1.35,19.97,7.05,25.41,2.43,2.32,5.01,3.21,7.25,2.52,2.61-.81,4.61-3.7,5.51-7.93,1.81-8.57-1.35-19.97-7.05-25.41-1.89-1.81-3.88-2.75-5.72-2.75ZM383.57,191.51h.01-.01Z"/>
    <path class="cls-1" d="M373.29,188.19c-.85,0-1.72-.4-2.52-1.16-2.09-1.99-3.21-5.99-2.55-9.09.36-1.72,1.26-2.92,2.45-3.29,1.08-.34,2.26.04,3.31,1.04,2.09,1.99,3.21,5.99,2.55,9.09h0c-.36,1.72-1.26,2.92-2.45,3.29-.26.08-.52.12-.79.12ZM371.46,176.03c-.12,0-.23.02-.34.05-.66.2-1.17.99-1.42,2.17-.54,2.56.43,6.08,2.12,7.69.64.61,1.29.86,1.83.69.65-.2,1.17-.99,1.42-2.17.54-2.56-.43-6.08-2.12-7.69-.51-.49-1.03-.74-1.49-.74ZM375.8,184.62h.01-.01Z"/>
    <line class="cls-16" x1="417.86" y1="161.96" x2="382.14" y2="172.75"/>
    <path class="cls-1" d="M415.47,163.43c-.32,0-.62-.21-.72-.53-.12-.4.1-.82.5-.93l2.39-.72c.4-.12.81.1.93.5.12.4-.1.82-.5.93l-2.39.72c-.07.02-.15.03-.22.03Z"/>
    <path class="cls-1" d="M388.95,171.44c-.32,0-.62-.21-.72-.53-.12-.4.1-.82.5-.93l4.42-1.34c.4-.12.82.1.93.5.12.4-.1.82-.5.93l-4.42,1.34c-.07.02-.14.03-.22.03ZM397.79,168.77c-.32,0-.62-.21-.72-.53-.12-.4.1-.82.5-.93l4.42-1.34c.4-.12.82.1.93.5.12.4-.1.82-.5.93l-4.42,1.34c-.07.02-.15.03-.22.03ZM406.63,166.1c-.32,0-.62-.21-.72-.53-.12-.4.1-.82.5-.93l4.42-1.34c.4-.12.82.1.93.5.12.4-.1.82-.5.93l-4.42,1.34c-.07.02-.15.03-.22.03Z"/>
    <path class="cls-1" d="M382.14,173.5c-.32,0-.62-.21-.72-.53-.12-.4.1-.82.5-.93l2.39-.72c.4-.12.82.1.93.5.12.4-.1.82-.5.93l-2.39.72c-.07.02-.15.03-.22.03Z"/>
    <path class="cls-13" d="M373.68,185.32l-2.84.86c-5.86,1.77-12.22.48-16.93-3.43l-14.41-11.99c-.61-.48-.99-1.27-.99-2.27,0-1.96,1.48-3.95,3.31-4.44.97-.26,1.84-.05,2.45.51l12.56,10.47c3.38,2.81,7.94,3.74,12.14,2.47l2.92-.88"/>
    <path class="cls-1" d="M365.55,187.71c-4.37,0-8.66-1.51-12.12-4.39l-14.41-11.99c-.81-.63-1.26-1.65-1.26-2.84,0-2.31,1.7-4.58,3.87-5.16,1.18-.32,2.33-.07,3.15.67l12.54,10.45c3.19,2.66,7.47,3.53,11.44,2.33l4.42-1.34c.4-.12.82.1.93.5.12.4-.1.82-.5.93l-4.42,1.34c-4.46,1.35-9.26.37-12.84-2.61l-12.56-10.47c-.46-.42-1.09-.54-1.77-.36-1.49.4-2.76,2.1-2.76,3.71,0,.73.25,1.32.7,1.68l14.43,12c4.53,3.77,10.6,5,16.24,3.29l4.95-1.49c.4-.12.82.1.93.5.12.4-.1.82-.5.93l-4.95,1.49c-1.81.55-3.67.82-5.51.82Z"/>
  </g>
  <polyline class="cls-1" points="105.87 449.83 0 481.1 0 477.58 102.85 447.65"/>
  <polyline class="cls-1" points="481.46 337.11 500 331.38 500 328.44 482.78 333.58"/>
</svg>